<?xml version="1.0"?>
<svg version="1.1" id="topsvg"
xmlns="http://www.w3.org/2000/svg" xmlns:xlink="http://www.w3.org/1999/xlink"
xmlns:cml="http://www.xml-cml.org/schema" x="0" y="0" width="200px" height="200px" viewBox="0 0 100 100">
<title>AGAXOV_clean - Open Babel Depiction</title>
<defs>
<radialGradient id='radialffffff666666' cx='50%' cy='50%' r='50%' fx='30%' fy='30%'>
  <stop offset=' 0%' stop-color="rgb(255,255,255)"  stop-opacity='0.8'/>
  <stop offset='100%' stop-color="rgb(102,102,102)"  stop-opacity ='1.0'/>
</radialGradient>
<radialGradient id='radialffffffb2b20' cx='50%' cy='50%' r='50%' fx='30%' fy='30%'>
  <stop offset=' 0%' stop-color="rgb(255,255,255)"  stop-opacity='0.8'/>
  <stop offset='100%' stop-color="rgb(178,178,0)"  stop-opacity ='1.0'/>
</radialGradient>
<radialGradient id='radialffffffbfbfbf' cx='50%' cy='50%' r='50%' fx='30%' fy='30%'>
  <stop offset=' 0%' stop-color="rgb(255,255,255)"  stop-opacity='0.8'/>
  <stop offset='100%' stop-color="rgb(191,191,191)"  stop-opacity ='1.0'/>
</radialGradient>
<radialGradient id='radialffffffc67f33' cx='50%' cy='50%' r='50%' fx='30%' fy='30%'>
  <stop offset=' 0%' stop-color="rgb(255,255,255)"  stop-opacity='0.8'/>
  <stop offset='100%' stop-color="rgb(198,127,51)"  stop-opacity ='1.0'/>
</radialGradient>
<radialGradient id='radialffffffffcc' cx='50%' cy='50%' r='50%' fx='30%' fy='30%'>
  <stop offset=' 0%' stop-color="rgb(255,255,255)"  stop-opacity='0.8'/>
  <stop offset='100%' stop-color="rgb(255,12,12)"  stop-opacity ='1.0'/>
</radialGradient>
</defs>
<g transform="translate(0,0)">
<svg width="100" height="100" x="0" y="0" viewBox="0 0 457.723 615.773"
font-family="sans-serif" stroke="rgb(76,76,76)" stroke-width="2"  stroke-linecap="round">
<line x1="148.2" y1="419.0" x2="156.8" y2="379.9" stroke="rgb(76,76,76)"  stroke-width="2.0"/>
<line x1="187.2" y1="324.3" x2="150.5" y2="320.4" stroke="rgb(76,76,76)"  stroke-width="2.0"/>
<line x1="187.9" y1="318.3" x2="151.2" y2="314.4" stroke="rgb(76,76,76)"  stroke-width="2.0"/>
<line x1="305.2" y1="189.3" x2="272.9" y2="180.9" stroke="rgb(76,76,76)"  stroke-width="2.0"/>
<line x1="156.8" y1="379.9" x2="133.2" y2="351.5" stroke="rgb(76,76,76)"  stroke-width="2.0"/>
<line x1="150.9" y1="317.4" x2="133.2" y2="351.5" stroke="rgb(76,76,76)"  stroke-width="2.0"/>
<line x1="150.9" y1="317.4" x2="138.6" y2="294.6" stroke="rgb(76,76,76)"  stroke-width="2.0"/>
<line x1="202.0" y1="259.9" x2="233.6" y2="217.1" stroke="rgb(76,76,76)"  stroke-width="2.0"/>
<line x1="416.5" y1="427.2" x2="398.1" y2="477.8" stroke="rgb(76,76,76)"  stroke-width="2.0"/>
<line x1="272.9" y1="180.9" x2="233.6" y2="217.1" stroke="rgb(76,76,76)"  stroke-width="2.0"/>
<line x1="398.1" y1="477.8" x2="417.7" y2="483.5" stroke="rgb(76,76,76)"  stroke-width="2.0"/>
<line x1="233.6" y1="217.1" x2="247.2" y2="230.9" stroke="rgb(76,76,76)"  stroke-width="2.0"/>
<line x1="174.1" y1="501.0" x2="148.1" y2="496.3" stroke="rgb(76,76,76)"  stroke-width="2.0"/>
<line x1="175.2" y1="495.1" x2="149.2" y2="490.4" stroke="rgb(76,76,76)"  stroke-width="2.0"/>
<line x1="289.0" y1="273.0" x2="270.6" y2="254.7" stroke="rgb(76,76,76)"  stroke-width="2.0"/>
<line x1="293.2" y1="268.7" x2="274.8" y2="250.4" stroke="rgb(76,76,76)"  stroke-width="2.0"/>
<line x1="247.2" y1="230.9" x2="272.7" y2="252.5" stroke="rgb(76,76,76)"  stroke-width="2.0"/>
<line x1="148.7" y1="493.3" x2="156.6" y2="499.7" stroke="rgb(76,76,76)"  stroke-width="2.0"/>
<line x1="272.7" y1="252.5" x2="281.0" y2="258.0" stroke="rgb(76,76,76)"  stroke-width="2.0"/>
<line x1="243.0" y1="226.3" x2="263.7" y2="241.7" stroke="rgb(76,76,76)"  stroke-width="2.0"/>
<line x1="183.8" y1="518.7" x2="208.9" y2="532.5" stroke="rgb(76,76,76)"  stroke-width="2.0"/>
<line x1="310.4" y1="271.8" x2="335.4" y2="285.3" stroke="rgb(76,76,76)"  stroke-width="2.0"/>
<line x1="149.6" y1="506.9" x2="137.2" y2="505.5" stroke="rgb(76,76,76)"  stroke-width="2.0"/>
<line x1="281.0" y1="251.1" x2="272.3" y2="243.2" stroke="rgb(76,76,76)"  stroke-width="2.0"/>
<line x1="195.8" y1="49.4" x2="233.2" y2="65.5" stroke="rgb(76,76,76)"  stroke-width="2.0"/>
<line x1="212.8" y1="184.5" x2="193.0" y2="190.1" stroke="rgb(76,76,76)"  stroke-width="2.0"/>
<line x1="358.0" y1="308.6" x2="333.4" y2="287.5" stroke="rgb(76,76,76)"  stroke-width="2.0"/>
<line x1="361.9" y1="304.1" x2="337.3" y2="283.0" stroke="rgb(76,76,76)"  stroke-width="2.0"/>
<line x1="183.0" y1="243.7" x2="175.7" y2="223.7" stroke="rgb(76,76,76)"  stroke-width="2.0"/>
<line x1="208.9" y1="532.5" x2="194.8" y2="534.8" stroke="rgb(76,76,76)"  stroke-width="2.0"/>
<line x1="335.4" y1="285.3" x2="330.2" y2="273.0" stroke="rgb(76,76,76)"  stroke-width="2.0"/>
<line x1="127.6" y1="285.0" x2="95.7" y2="327.9" stroke="rgb(76,76,76)"  stroke-width="2.0"/>
<line x1="127.6" y1="285.0" x2="121.9" y2="256.5" stroke="rgb(76,76,76)"  stroke-width="2.0"/>
<line x1="215.4" y1="115.8" x2="233.2" y2="65.5" stroke="rgb(76,76,76)"  stroke-width="2.0"/>
<line x1="215.4" y1="115.8" x2="189.3" y2="128.0" stroke="rgb(76,76,76)"  stroke-width="2.0"/>
<line x1="95.7" y1="327.9" x2="127.5" y2="342.8" stroke="rgb(76,76,76)"  stroke-width="2.0"/>
<line x1="233.2" y1="65.5" x2="262.9" y2="80.9" stroke="rgb(76,76,76)"  stroke-width="2.0"/>
<line x1="147.3" y1="225.2" x2="121.9" y2="256.5" stroke="rgb(76,76,76)"  stroke-width="2.0"/>
<line x1="179.0" y1="166.4" x2="189.3" y2="128.0" stroke="rgb(76,76,76)"  stroke-width="2.0"/>
<line x1="194.8" y1="534.8" x2="224.5" y2="550.3" stroke="rgb(76,76,76)"  stroke-width="2.0"/>
<line x1="330.2" y1="273.0" x2="362.0" y2="287.8" stroke="rgb(76,76,76)"  stroke-width="2.0"/>
<line x1="121.3" y1="259.4" x2="96.8" y2="253.7" stroke="rgb(76,76,76)"  stroke-width="2.0"/>
<line x1="122.6" y1="253.6" x2="98.2" y2="247.9" stroke="rgb(76,76,76)"  stroke-width="2.0"/>
<line x1="285.6" y1="507.2" x2="266.4" y2="490.0" stroke="rgb(76,76,76)"  stroke-width="2.0"/>
<line x1="289.6" y1="502.8" x2="270.4" y2="485.6" stroke="rgb(76,76,76)"  stroke-width="2.0"/>
<line x1="187.3" y1="130.2" x2="168.1" y2="113.0" stroke="rgb(76,76,76)"  stroke-width="2.0"/>
<line x1="191.3" y1="125.7" x2="172.1" y2="108.5" stroke="rgb(76,76,76)"  stroke-width="2.0"/>
<line x1="359.5" y1="367.9" x2="335.1" y2="362.2" stroke="rgb(76,76,76)"  stroke-width="2.0"/>
<line x1="360.9" y1="362.1" x2="336.5" y2="356.3" stroke="rgb(76,76,76)"  stroke-width="2.0"/>
<line x1="268.4" y1="487.8" x2="278.8" y2="449.4" stroke="rgb(76,76,76)"  stroke-width="2.0"/>
<line x1="268.4" y1="487.8" x2="242.3" y2="500.0" stroke="rgb(76,76,76)"  stroke-width="2.0"/>
<line x1="335.8" y1="359.2" x2="310.5" y2="390.6" stroke="rgb(76,76,76)"  stroke-width="2.0"/>
<line x1="335.8" y1="359.2" x2="330.1" y2="330.8" stroke="rgb(76,76,76)"  stroke-width="2.0"/>
<line x1="127.5" y1="342.8" x2="122.4" y2="330.5" stroke="rgb(76,76,76)"  stroke-width="2.0"/>
<line x1="262.9" y1="80.9" x2="248.8" y2="83.2" stroke="rgb(76,76,76)"  stroke-width="2.0"/>
<line x1="224.5" y1="550.3" x2="242.3" y2="500.0" stroke="rgb(76,76,76)"  stroke-width="2.0"/>
<line x1="224.5" y1="550.3" x2="261.9" y2="566.4" stroke="rgb(76,76,76)"  stroke-width="2.0"/>
<line x1="362.0" y1="287.8" x2="330.1" y2="330.8" stroke="rgb(76,76,76)"  stroke-width="2.0"/>
<line x1="282.0" y1="392.1" x2="274.8" y2="372.1" stroke="rgb(76,76,76)"  stroke-width="2.0"/>
<line x1="264.7" y1="425.6" x2="244.9" y2="431.3" stroke="rgb(76,76,76)"  stroke-width="2.0"/>
<line x1="120.4" y1="332.8" x2="95.8" y2="311.7" stroke="rgb(76,76,76)"  stroke-width="2.0"/>
<line x1="124.3" y1="328.2" x2="99.7" y2="307.2" stroke="rgb(76,76,76)"  stroke-width="2.0"/>
<line x1="122.4" y1="330.5" x2="147.3" y2="343.9" stroke="rgb(76,76,76)"  stroke-width="2.0"/>
<line x1="185.4" y1="372.6" x2="176.7" y2="364.7" stroke="rgb(76,76,76)"  stroke-width="2.0"/>
<line x1="248.8" y1="83.2" x2="273.9" y2="97.0" stroke="rgb(76,76,76)"  stroke-width="2.0"/>
<line x1="320.5" y1="110.2" x2="308.1" y2="108.9" stroke="rgb(76,76,76)"  stroke-width="2.0"/>
<line x1="194.0" y1="374.1" x2="214.7" y2="389.5" stroke="rgb(76,76,76)"  stroke-width="2.0"/>
<line x1="176.7" y1="357.8" x2="185.1" y2="363.3" stroke="rgb(76,76,76)"  stroke-width="2.0"/>
<line x1="301.2" y1="116.1" x2="309.1" y2="122.5" stroke="rgb(76,76,76)"  stroke-width="2.0"/>
<line x1="185.1" y1="363.3" x2="210.5" y2="384.9" stroke="rgb(76,76,76)"  stroke-width="2.0"/>
<line x1="182.9" y1="365.4" x2="164.5" y2="347.0" stroke="rgb(76,76,76)"  stroke-width="2.0"/>
<line x1="187.2" y1="361.1" x2="168.7" y2="342.8" stroke="rgb(76,76,76)"  stroke-width="2.0"/>
<line x1="308.5" y1="125.4" x2="282.5" y2="120.7" stroke="rgb(76,76,76)"  stroke-width="2.0"/>
<line x1="309.6" y1="119.5" x2="283.6" y2="114.8" stroke="rgb(76,76,76)"  stroke-width="2.0"/>
<line x1="210.5" y1="384.9" x2="224.1" y2="398.7" stroke="rgb(76,76,76)"  stroke-width="2.0"/>
<line x1="40.0" y1="132.3" x2="59.6" y2="138.0" stroke="rgb(76,76,76)"  stroke-width="2.0"/>
<line x1="224.1" y1="398.7" x2="184.8" y2="434.9" stroke="rgb(76,76,76)"  stroke-width="2.0"/>
<line x1="224.1" y1="398.7" x2="255.7" y2="355.9" stroke="rgb(76,76,76)"  stroke-width="2.0"/>
<line x1="59.6" y1="138.0" x2="41.2" y2="188.6" stroke="rgb(76,76,76)"  stroke-width="2.0"/>
<line x1="184.8" y1="434.9" x2="152.5" y2="426.5" stroke="rgb(76,76,76)"  stroke-width="2.0"/>
<line x1="319.1" y1="321.2" x2="306.9" y2="298.4" stroke="rgb(76,76,76)"  stroke-width="2.0"/>
<line x1="324.5" y1="264.3" x2="306.9" y2="298.4" stroke="rgb(76,76,76)"  stroke-width="2.0"/>
<line x1="324.5" y1="264.3" x2="300.9" y2="235.8" stroke="rgb(76,76,76)"  stroke-width="2.0"/>
<line x1="306.6" y1="301.4" x2="269.9" y2="297.5" stroke="rgb(76,76,76)"  stroke-width="2.0"/>
<line x1="307.2" y1="295.4" x2="270.5" y2="291.5" stroke="rgb(76,76,76)"  stroke-width="2.0"/>
<line x1="300.9" y1="235.8" x2="309.5" y2="196.8" stroke="rgb(76,76,76)"  stroke-width="2.0"/>
<line x1="156.6" y1="499.7" x2="197.9" y2="516.7" stroke="rgb(76,76,76)"  stroke-width="2.0"/>
<line x1="154.4" y1="507.9" x2="166.2" y2="512.7" stroke="rgb(76,76,76)"  stroke-width="2.0" stroke-dasharray="5.0,5.0"/>
<line x1="197.9" y1="516.7" x2="183.8" y2="518.7" stroke="rgb(76,76,76)"  stroke-width="2.0"/>
<line x1="166.4" y1="512.8" x2="184.5" y2="510.2" stroke="rgb(76,76,76)"  stroke-width="2.0" stroke-dasharray="5.0,5.0"/>
<line x1="183.8" y1="518.7" x2="149.6" y2="506.9" stroke="rgb(76,76,76)"  stroke-width="2.0"/>
<line x1="184.5" y1="510.1" x2="153.3" y2="499.3" stroke="rgb(76,76,76)"  stroke-width="2.0" stroke-dasharray="5.0,5.0"/>
<line x1="149.6" y1="506.9" x2="133.1" y2="496.6" stroke="rgb(76,76,76)"  stroke-width="2.0"/>
<line x1="153.3" y1="499.3" x2="170.4" y2="510.0" stroke="rgb(76,76,76)"  stroke-width="2.0" stroke-dasharray="5.0,5.0"/>
<line x1="133.1" y1="496.6" x2="156.6" y2="499.7" stroke="rgb(76,76,76)"  stroke-width="2.0"/>
<line x1="170.4" y1="510.0" x2="154.4" y2="507.9" stroke="rgb(76,76,76)"  stroke-width="2.0" stroke-dasharray="5.0,5.0"/>
<line x1="317.2" y1="283.2" x2="310.4" y2="271.8" stroke="rgb(76,76,76)"  stroke-width="2.0"/>
<line x1="290.2" y1="254.2" x2="304.0" y2="277.5" stroke="rgb(76,76,76)"  stroke-width="2.0" stroke-dasharray="5.0,5.0"/>
<line x1="310.4" y1="271.8" x2="281.0" y2="251.1" stroke="rgb(76,76,76)"  stroke-width="2.0"/>
<line x1="304.0" y1="277.6" x2="276.7" y2="258.3" stroke="rgb(76,76,76)"  stroke-width="2.0" stroke-dasharray="5.0,5.0"/>
<line x1="281.0" y1="251.1" x2="263.7" y2="241.7" stroke="rgb(76,76,76)"  stroke-width="2.0"/>
<line x1="276.7" y1="258.3" x2="316.4" y2="279.8" stroke="rgb(76,76,76)"  stroke-width="2.0" stroke-dasharray="5.0,5.0"/>
<line x1="263.7" y1="241.7" x2="281.0" y2="258.0" stroke="rgb(76,76,76)"  stroke-width="2.0"/>
<line x1="316.4" y1="279.9" x2="286.3" y2="251.5" stroke="rgb(76,76,76)"  stroke-width="2.0" stroke-dasharray="5.0,5.0"/>
<line x1="281.0" y1="258.0" x2="317.2" y2="283.2" stroke="rgb(76,76,76)"  stroke-width="2.0"/>
<line x1="286.4" y1="251.5" x2="290.0" y2="254.0" stroke="rgb(76,76,76)"  stroke-width="2.0" stroke-dasharray="5.0,5.0"/>
<line x1="147.3" y1="225.2" x2="142.3" y2="185.3" stroke="rgb(76,76,76)"  stroke-width="2.0"/>
<line x1="154.8" y1="216.2" x2="151.6" y2="190.2" stroke="rgb(76,76,76)"  stroke-width="2.0" stroke-dasharray="5.0,5.0"/>
<line x1="142.3" y1="185.3" x2="179.0" y2="166.4" stroke="rgb(76,76,76)"  stroke-width="2.0"/>
<line x1="151.6" y1="190.2" x2="175.7" y2="177.7" stroke="rgb(76,76,76)"  stroke-width="2.0" stroke-dasharray="5.0,5.0"/>
<line x1="179.0" y1="166.4" x2="193.0" y2="190.1" stroke="rgb(76,76,76)"  stroke-width="2.0"/>
<line x1="175.7" y1="177.7" x2="183.2" y2="190.4" stroke="rgb(76,76,76)"  stroke-width="2.0" stroke-dasharray="5.0,5.0"/>
<line x1="193.0" y1="190.1" x2="175.7" y2="223.7" stroke="rgb(76,76,76)"  stroke-width="2.0"/>
<line x1="183.2" y1="190.4" x2="170.3" y2="215.4" stroke="rgb(76,76,76)"  stroke-width="2.0" stroke-dasharray="5.0,5.0"/>
<line x1="175.7" y1="223.7" x2="147.3" y2="225.2" stroke="rgb(76,76,76)"  stroke-width="2.0"/>
<line x1="170.3" y1="215.4" x2="154.8" y2="216.2" stroke="rgb(76,76,76)"  stroke-width="2.0" stroke-dasharray="5.0,5.0"/>
<line x1="278.8" y1="449.4" x2="315.4" y2="430.4" stroke="rgb(76,76,76)"  stroke-width="2.0"/>
<line x1="282.0" y1="438.3" x2="306.3" y2="425.7" stroke="rgb(76,76,76)"  stroke-width="2.0" stroke-dasharray="5.0,5.0"/>
<line x1="315.4" y1="430.4" x2="310.5" y2="390.6" stroke="rgb(76,76,76)"  stroke-width="2.0"/>
<line x1="306.3" y1="425.7" x2="303.1" y2="399.4" stroke="rgb(76,76,76)"  stroke-width="2.0" stroke-dasharray="5.0,5.0"/>
<line x1="310.5" y1="390.6" x2="282.0" y2="392.1" stroke="rgb(76,76,76)"  stroke-width="2.0"/>
<line x1="303.1" y1="399.4" x2="287.3" y2="400.2" stroke="rgb(76,76,76)"  stroke-width="2.0" stroke-dasharray="5.0,5.0"/>
<line x1="282.0" y1="392.1" x2="264.7" y2="425.6" stroke="rgb(76,76,76)"  stroke-width="2.0"/>
<line x1="287.3" y1="400.2" x2="274.3" y2="425.4" stroke="rgb(76,76,76)"  stroke-width="2.0" stroke-dasharray="5.0,5.0"/>
<line x1="264.7" y1="425.6" x2="278.8" y2="449.4" stroke="rgb(76,76,76)"  stroke-width="2.0"/>
<line x1="274.3" y1="425.4" x2="282.0" y2="438.3" stroke="rgb(76,76,76)"  stroke-width="2.0" stroke-dasharray="5.0,5.0"/>
<line x1="273.9" y1="97.0" x2="259.8" y2="99.0" stroke="rgb(76,76,76)"  stroke-width="2.0"/>
<line x1="272.8" y1="110.0" x2="307.4" y2="105.0" stroke="rgb(76,76,76)"  stroke-width="2.0" stroke-dasharray="5.0,5.0"/>
<line x1="259.8" y1="99.0" x2="301.2" y2="116.1" stroke="rgb(76,76,76)"  stroke-width="2.0"/>
<line x1="307.7" y1="105.1" x2="304.4" y2="103.7" stroke="rgb(76,76,76)"  stroke-width="2.0" stroke-dasharray="5.0,5.0"/>
<line x1="301.2" y1="116.1" x2="324.6" y2="119.2" stroke="rgb(76,76,76)"  stroke-width="2.0"/>
<line x1="304.4" y1="103.7" x2="268.2" y2="98.9" stroke="rgb(76,76,76)"  stroke-width="2.0" stroke-dasharray="5.0,5.0"/>
<line x1="324.6" y1="119.2" x2="308.1" y2="108.9" stroke="rgb(76,76,76)"  stroke-width="2.0"/>
<line x1="268.3" y1="98.9" x2="302.5" y2="120.3" stroke="rgb(76,76,76)"  stroke-width="2.0" stroke-dasharray="5.0,5.0"/>
<line x1="308.1" y1="108.9" x2="273.9" y2="97.0" stroke="rgb(76,76,76)"  stroke-width="2.0"/>
<line x1="302.5" y1="120.3" x2="272.8" y2="110.1" stroke="rgb(76,76,76)"  stroke-width="2.0" stroke-dasharray="5.0,5.0"/>
<line x1="176.7" y1="364.7" x2="147.3" y2="343.9" stroke="rgb(76,76,76)"  stroke-width="2.0"/>
<line x1="183.2" y1="353.8" x2="157.0" y2="335.3" stroke="rgb(76,76,76)"  stroke-width="2.0" stroke-dasharray="5.0,5.0"/>
<line x1="147.3" y1="343.9" x2="140.6" y2="332.6" stroke="rgb(76,76,76)"  stroke-width="2.0"/>
<line x1="156.9" y1="335.4" x2="181.2" y2="376.1" stroke="rgb(76,76,76)"  stroke-width="2.0" stroke-dasharray="5.0,5.0"/>
<line x1="140.6" y1="332.6" x2="176.7" y2="357.8" stroke="rgb(76,76,76)"  stroke-width="2.0"/>
<line x1="181.5" y1="376.4" x2="168.7" y2="367.5" stroke="rgb(76,76,76)"  stroke-width="2.0" stroke-dasharray="5.0,5.0"/>
<line x1="176.7" y1="357.8" x2="194.0" y2="374.1" stroke="rgb(76,76,76)"  stroke-width="2.0"/>
<line x1="168.7" y1="367.5" x2="114.8" y2="316.7" stroke="rgb(76,76,76)"  stroke-width="2.0" stroke-dasharray="5.0,5.0"/>
<line x1="194.0" y1="374.1" x2="176.7" y2="364.7" stroke="rgb(76,76,76)"  stroke-width="2.0"/>
<line x1="114.8" y1="316.7" x2="183.2" y2="353.9" stroke="rgb(76,76,76)"  stroke-width="2.0" stroke-dasharray="5.0,5.0"/>
<circle cx="148.195035" cy="419.021694" r="5.066667" opacity="1.000000" style="stroke:black;fill:url(#radialffffff666666)"/>
<text x="152.995035" y="414.989694" fill="rgb(102,102,102)"  stroke="rgb(102,102,102)" stroke-width="1" font-size="16" ></text>
<text x="152.995035" y="414.989694" fill="rgb(102,102,102)"  stroke="rgb(102,102,102)" stroke-width="1" font-size="32" >..</text>
<circle cx="187.532366" cy="321.292055" r="5.066667" opacity="1.000000" style="stroke:black;fill:url(#radialffffff666666)"/>
<text x="192.332366" y="317.260055" fill="rgb(102,102,102)"  stroke="rgb(102,102,102)" stroke-width="1" font-size="16" ></text>
<text x="192.332366" y="317.260055" fill="rgb(102,102,102)"  stroke="rgb(102,102,102)" stroke-width="1" font-size="32" >..</text>
<circle cx="305.191518" cy="189.269017" r="5.066667" opacity="1.000000" style="stroke:black;fill:url(#radialffffff666666)"/>
<text x="309.991518" y="185.237017" fill="rgb(102,102,102)"  stroke="rgb(102,102,102)" stroke-width="1" font-size="16" ></text>
<text x="309.991518" y="185.237017" fill="rgb(102,102,102)"  stroke="rgb(102,102,102)" stroke-width="1" font-size="32" >..</text>
<circle cx="156.842683" cy="379.936036" r="5.066667" opacity="1.000000" style="stroke:black;fill:url(#radialffffff666666)"/>
<text x="161.642683" y="375.904036" fill="rgb(102,102,102)"  stroke="rgb(102,102,102)" stroke-width="1" font-size="16" ></text>
<text x="161.642683" y="375.904036" fill="rgb(102,102,102)"  stroke="rgb(102,102,102)" stroke-width="1" font-size="32" >..</text>
<circle cx="319.086372" cy="115.158232" r="7.000000" opacity="1.000000" style="stroke:black;fill:url(#radialffffffb2b20)"/>
<text x="323.886372" y="111.126232" fill="rgb(178,178,0)"  stroke="rgb(178,178,0)" stroke-width="1" font-size="16" ></text>
<text x="323.886372" y="111.126232" fill="rgb(178,178,0)"  stroke="rgb(178,178,0)" stroke-width="1" font-size="32" >..</text>
<circle cx="150.853912" cy="317.379390" r="5.066667" opacity="1.000000" style="stroke:black;fill:url(#radialffffff666666)"/>
<circle cx="133.229276" cy="351.499616" r="5.066667" opacity="1.000000" style="stroke:black;fill:url(#radialffffff666666)"/>
<text x="138.029276" y="347.467616" fill="rgb(102,102,102)"  stroke="rgb(102,102,102)" stroke-width="1" font-size="16" ></text>
<text x="138.029276" y="347.467616" fill="rgb(102,102,102)"  stroke="rgb(102,102,102)" stroke-width="1" font-size="32" >..</text>
<circle cx="138.642277" cy="294.578544" r="2.066667" opacity="1.000000" style="stroke:black;fill:url(#radialffffffbfbfbf)"/>
<circle cx="346.683824" cy="40.000000" r="4.400000" opacity="1.000000" style="stroke:black;fill:url(#radialffffffffcc)"/>
<text x="351.483824" y="35.968000" fill="rgb(255,12,12)"  stroke="rgb(255,12,12)" stroke-width="1" font-size="16" ></text>
<text x="351.483824" y="35.968000" fill="rgb(255,12,12)"  stroke="rgb(255,12,12)" stroke-width="1" font-size="32" >..</text>
<circle cx="408.558343" cy="354.333449" r="2.066667" opacity="1.000000" style="stroke:black;fill:url(#radialffffffbfbfbf)"/>
<text x="413.358343" y="350.301449" fill="rgb(191,191,191)"  stroke="rgb(191,191,191)" stroke-width="1" font-size="16" ></text>
<text x="413.358343" y="350.301449" fill="rgb(191,191,191)"  stroke="rgb(191,191,191)" stroke-width="1" font-size="32" >.</text>
<circle cx="201.976965" cy="259.903193" r="4.400000" opacity="1.000000" style="stroke:black;fill:url(#radialffffffffcc)"/>
<text x="206.776965" y="255.871193" fill="rgb(255,12,12)"  stroke="rgb(255,12,12)" stroke-width="1" font-size="16" ></text>
<text x="206.776965" y="255.871193" fill="rgb(255,12,12)"  stroke="rgb(255,12,12)" stroke-width="1" font-size="32" >.</text>
<circle cx="416.520055" cy="427.214673" r="4.400000" opacity="1.000000" style="stroke:black;fill:url(#radialffffffffcc)"/>
<text x="421.320055" y="423.182673" fill="rgb(255,12,12)"  stroke="rgb(255,12,12)" stroke-width="1" font-size="16" ></text>
<text x="421.320055" y="423.182673" fill="rgb(255,12,12)"  stroke="rgb(255,12,12)" stroke-width="1" font-size="32" >.</text>
<circle cx="272.945783" cy="180.879938" r="4.400000" opacity="1.000000" style="stroke:black;fill:url(#radialffffffffcc)"/>
<circle cx="398.133015" cy="477.815863" r="8.800000" opacity="1.000000" style="stroke:black;fill:url(#radialffffffc67f33)"/>
<circle cx="233.590600" cy="217.071025" r="8.800000" opacity="1.000000" style="stroke:black;fill:url(#radialffffffc67f33)"/>
<circle cx="174.656557" cy="498.042081" r="4.400000" opacity="1.000000" style="stroke:black;fill:url(#radialffffffffcc)"/>
<circle cx="291.128226" cy="270.862031" r="4.400000" opacity="1.000000" style="stroke:black;fill:url(#radialffffffffcc)"/>
<circle cx="417.722554" cy="483.516513" r="4.400000" opacity="1.000000" style="stroke:black;fill:url(#radialffffffffcc)"/>
<text x="422.522554" y="479.484513" fill="rgb(255,12,12)"  stroke="rgb(255,12,12)" stroke-width="1" font-size="16" ></text>
<text x="422.522554" y="479.484513" fill="rgb(255,12,12)"  stroke="rgb(255,12,12)" stroke-width="1" font-size="32" >.</text>
<circle cx="247.181539" cy="230.888448" r="4.400000" opacity="1.000000" style="stroke:black;fill:url(#radialffffffffcc)"/>
<circle cx="148.657699" cy="493.320034" r="5.066667" opacity="1.000000" style="stroke:black;fill:url(#radialffffff666666)"/>
<text x="153.457699" y="489.288034" fill="rgb(102,102,102)"  stroke="rgb(102,102,102)" stroke-width="1" font-size="16" ></text>
<text x="153.457699" y="489.288034" fill="rgb(102,102,102)"  stroke="rgb(102,102,102)" stroke-width="1" font-size="32" >.</text>
<circle cx="272.664484" cy="252.522241" r="5.066667" opacity="1.000000" style="stroke:black;fill:url(#radialffffff666666)"/>
<circle cx="156.572522" cy="499.713750" r="5.066667" opacity="1.000000" style="stroke:black;fill:url(#radialffffff666666)"/>
<circle cx="281.002339" cy="258.011162" r="5.066667" opacity="1.000000" style="stroke:black;fill:url(#radialffffff666666)"/>
<circle cx="197.912585" cy="516.725449" r="7.000000" opacity="1.000000" style="stroke:black;fill:url(#radialffffffb2b20)"/>
<circle cx="317.157339" cy="283.171589" r="7.000000" opacity="1.000000" style="stroke:black;fill:url(#radialffffffb2b20)"/>
<circle cx="409.618250" cy="488.513494" r="2.066667" opacity="1.000000" style="stroke:black;fill:url(#radialffffffbfbfbf)"/>
<text x="414.418250" y="484.481494" fill="rgb(191,191,191)"  stroke="rgb(191,191,191)" stroke-width="1" font-size="16" ></text>
<text x="414.418250" y="484.481494" fill="rgb(191,191,191)"  stroke="rgb(191,191,191)" stroke-width="1" font-size="32" >.</text>
<circle cx="133.076986" cy="496.566448" r="5.066667" opacity="1.000000" style="stroke:black;fill:url(#radialffffff666666)"/>
<text x="137.876986" y="492.534448" fill="rgb(102,102,102)"  stroke="rgb(102,102,102)" stroke-width="1" font-size="16" ></text>
<text x="137.876986" y="492.534448" fill="rgb(102,102,102)"  stroke="rgb(102,102,102)" stroke-width="1" font-size="32" >.</text>
<circle cx="242.977097" cy="226.258892" r="2.066667" opacity="1.000000" style="stroke:black;fill:url(#radialffffffbfbfbf)"/>
<circle cx="263.682988" cy="241.680493" r="5.066667" opacity="1.000000" style="stroke:black;fill:url(#radialffffff666666)"/>
<circle cx="183.836217" cy="518.747522" r="5.066667" opacity="1.000000" style="stroke:black;fill:url(#radialffffff666666)"/>
<circle cx="310.409234" cy="271.830680" r="5.066667" opacity="1.000000" style="stroke:black;fill:url(#radialffffff666666)"/>
<circle cx="149.604633" cy="506.916385" r="5.066667" opacity="1.000000" style="stroke:black;fill:url(#radialffffff666666)"/>
<circle cx="280.980129" cy="251.065695" r="5.066667" opacity="1.000000" style="stroke:black;fill:url(#radialffffff666666)"/>
<circle cx="195.806414" cy="49.383922" r="4.400000" opacity="1.000000" style="stroke:black;fill:url(#radialffffffffcc)"/>
<text x="200.606414" y="45.351922" fill="rgb(255,12,12)"  stroke="rgb(255,12,12)" stroke-width="1" font-size="16" ></text>
<text x="200.606414" y="45.351922" fill="rgb(255,12,12)"  stroke="rgb(255,12,12)" stroke-width="1" font-size="32" >.</text>
<circle cx="212.783416" cy="184.480314" r="2.066667" opacity="1.000000" style="stroke:black;fill:url(#radialffffffbfbfbf)"/>
<circle cx="359.949207" cy="306.328531" r="4.400000" opacity="1.000000" style="stroke:black;fill:url(#radialffffffffcc)"/>
<circle cx="182.958215" cy="243.678986" r="2.066667" opacity="1.000000" style="stroke:black;fill:url(#radialffffffbfbfbf)"/>
<circle cx="137.240277" cy="505.526680" r="2.066667" opacity="1.000000" style="stroke:black;fill:url(#radialffffffbfbfbf)"/>
<circle cx="208.930767" cy="532.533056" r="5.066667" opacity="1.000000" style="stroke:black;fill:url(#radialffffff666666)"/>
<text x="213.730767" y="528.501056" fill="rgb(102,102,102)"  stroke="rgb(102,102,102)" stroke-width="1" font-size="16" ></text>
<text x="213.730767" y="528.501056" fill="rgb(102,102,102)"  stroke="rgb(102,102,102)" stroke-width="1" font-size="32" >..</text>
<circle cx="272.290990" cy="243.169013" r="2.066667" opacity="1.000000" style="stroke:black;fill:url(#radialffffffbfbfbf)"/>
<circle cx="335.358256" cy="285.259028" r="5.066667" opacity="1.000000" style="stroke:black;fill:url(#radialffffff666666)"/>
<circle cx="192.979230" cy="190.133000" r="5.066667" opacity="1.000000" style="stroke:black;fill:url(#radialffffff666666)"/>
<circle cx="175.679858" cy="223.691018" r="5.066667" opacity="1.000000" style="stroke:black;fill:url(#radialffffff666666)"/>
<circle cx="127.604650" cy="284.982654" r="4.400000" opacity="1.000000" style="stroke:black;fill:url(#radialffffffffcc)"/>
<circle cx="215.391688" cy="115.753220" r="4.400000" opacity="1.000000" style="stroke:black;fill:url(#radialffffffffcc)"/>
<circle cx="95.692336" cy="327.923899" r="8.800000" opacity="1.000000" style="stroke:black;fill:url(#radialffffffc67f33)"/>
<circle cx="233.194213" cy="65.460434" r="8.800000" opacity="1.000000" style="stroke:black;fill:url(#radialffffffc67f33)"/>
<circle cx="147.267220" cy="225.222503" r="5.066667" opacity="1.000000" style="stroke:black;fill:url(#radialffffff666666)"/>
<circle cx="178.961357" cy="166.352492" r="5.066667" opacity="1.000000" style="stroke:black;fill:url(#radialffffff666666)"/>
<circle cx="194.827796" cy="534.831148" r="4.400000" opacity="1.000000" style="stroke:black;fill:url(#radialffffffffcc)"/>
<circle cx="330.246905" cy="272.992998" r="4.400000" opacity="1.000000" style="stroke:black;fill:url(#radialffffffffcc)"/>
<circle cx="121.947101" cy="256.525523" r="5.066667" opacity="1.000000" style="stroke:black;fill:url(#radialffffff666666)"/>
<circle cx="287.625665" cy="504.999618" r="4.400000" opacity="1.000000" style="stroke:black;fill:url(#radialffffffffcc)"/>
<circle cx="189.287872" cy="127.958900" r="5.066667" opacity="1.000000" style="stroke:black;fill:url(#radialffffff666666)"/>
<circle cx="360.192737" cy="364.984243" r="4.400000" opacity="1.000000" style="stroke:black;fill:url(#radialffffffffcc)"/>
<circle cx="315.403178" cy="430.441237" r="7.000000" opacity="1.000000" style="stroke:black;fill:url(#radialffffffb2b20)"/>
<circle cx="142.319377" cy="185.332215" r="7.135375" opacity="1.000000" style="stroke:black;fill:url(#radialffffffb2b20)"/>
<circle cx="97.529817" cy="250.789209" r="4.599079" opacity="1.000000" style="stroke:black;fill:url(#radialffffffffcc)"/>
<circle cx="268.434682" cy="487.814551" r="5.305038" opacity="1.000000" style="stroke:black;fill:url(#radialffffff666666)"/>
<circle cx="170.096890" cy="110.773834" r="4.619339" opacity="1.000000" style="stroke:black;fill:url(#radialffffffffcc)"/>
<circle cx="335.775453" cy="359.247928" r="5.325325" opacity="1.000000" style="stroke:black;fill:url(#radialffffff666666)"/>
<circle cx="127.475649" cy="342.780453" r="4.690691" opacity="1.000000" style="stroke:black;fill:url(#radialffffffffcc)"/>
<circle cx="262.894758" cy="80.942303" r="4.723283" opacity="1.000000" style="stroke:black;fill:url(#radialffffffffcc)"/>
<circle cx="278.761198" cy="449.420959" r="5.460234" opacity="1.000000" style="stroke:black;fill:url(#radialffffff666666)"/>
<circle cx="310.455335" cy="390.550949" r="5.460234" opacity="1.000000" style="stroke:black;fill:url(#radialffffff666666)"/>
<circle cx="224.528341" cy="550.313018" r="9.690394" opacity="1.000000" style="stroke:black;fill:url(#radialffffffc67f33)"/>
<circle cx="362.030218" cy="287.849552" r="9.701493" opacity="1.000000" style="stroke:black;fill:url(#radialffffffc67f33)"/>
<circle cx="242.330867" cy="500.020231" r="4.939099" opacity="1.000000" style="stroke:black;fill:url(#radialffffffffcc)"/>
<circle cx="330.117904" cy="330.790798" r="4.959359" opacity="1.000000" style="stroke:black;fill:url(#radialffffffffcc)"/>
<circle cx="282.042697" cy="392.082433" r="5.959293" opacity="1.000000" style="stroke:black;fill:url(#radialffffff666666)"/>
<circle cx="264.743325" cy="425.640451" r="5.968422" opacity="1.000000" style="stroke:black;fill:url(#radialffffff666666)"/>
<circle cx="122.364298" cy="330.514424" r="6.073914" opacity="1.000000" style="stroke:black;fill:url(#radialffffff666666)"/>
<circle cx="185.431565" cy="372.604438" r="2.489930" opacity="1.000000" style="stroke:black;fill:url(#radialffffffbfbfbf)"/>
<circle cx="248.791787" cy="83.240395" r="6.106373" opacity="1.000000" style="stroke:black;fill:url(#radialffffff666666)"/>
<text x="253.591787" y="79.208395" fill="rgb(102,102,102)"  stroke="rgb(102,102,102)" stroke-width="1" font-size="16" ></text>
<text x="253.591787" y="79.208395" fill="rgb(102,102,102)"  stroke="rgb(102,102,102)" stroke-width="1" font-size="32" >..</text>
<circle cx="320.482277" cy="110.246771" r="2.516410" opacity="1.000000" style="stroke:black;fill:url(#radialffffffbfbfbf)"/>
<circle cx="274.764340" cy="372.094465" r="2.558612" opacity="1.000000" style="stroke:black;fill:url(#radialffffffbfbfbf)"/>
<circle cx="97.773348" cy="309.444921" r="5.457057" opacity="1.000000" style="stroke:black;fill:url(#radialffffffffcc)"/>
<circle cx="244.939138" cy="431.293137" r="2.570197" opacity="1.000000" style="stroke:black;fill:url(#radialffffffbfbfbf)"/>
<circle cx="261.916140" cy="566.389529" r="5.489650" opacity="1.000000" style="stroke:black;fill:url(#radialffffffffcc)"/>
<text x="266.716140" y="562.357529" fill="rgb(255,12,12)"  stroke="rgb(255,12,12)" stroke-width="1" font-size="16" ></text>
<text x="266.716140" y="562.357529" fill="rgb(255,12,12)"  stroke="rgb(255,12,12)" stroke-width="1" font-size="32" >.</text>
<circle cx="176.742425" cy="364.707757" r="6.592246" opacity="1.000000" style="stroke:black;fill:url(#radialffffff666666)"/>
<circle cx="308.117921" cy="108.857066" r="6.648035" opacity="1.000000" style="stroke:black;fill:url(#radialffffff666666)"/>
<circle cx="147.313320" cy="343.942772" r="6.677451" opacity="1.000000" style="stroke:black;fill:url(#radialffffff666666)"/>
<circle cx="273.886338" cy="97.025929" r="6.710924" opacity="1.000000" style="stroke:black;fill:url(#radialffffff666666)"/>
<circle cx="194.039567" cy="374.092959" r="7.294174" opacity="1.000000" style="stroke:black;fill:url(#radialffffff666666)"/>
<circle cx="214.745457" cy="389.514560" r="2.993460" opacity="1.000000" style="stroke:black;fill:url(#radialffffffbfbfbf)"/>
<circle cx="324.645569" cy="119.207004" r="7.356049" opacity="1.000000" style="stroke:black;fill:url(#radialffffff666666)"/>
<text x="329.445569" y="115.175004" fill="rgb(102,102,102)"  stroke="rgb(102,102,102)" stroke-width="1" font-size="16" ></text>
<text x="329.445569" y="115.175004" fill="rgb(102,102,102)"  stroke="rgb(102,102,102)" stroke-width="1" font-size="32" >.</text>
<circle cx="48.104305" cy="127.259958" r="3.021595" opacity="1.000000" style="stroke:black;fill:url(#radialffffffbfbfbf)"/>
<text x="52.904305" y="123.227958" fill="rgb(191,191,191)"  stroke="rgb(191,191,191)" stroke-width="1" font-size="16" ></text>
<text x="52.904305" y="123.227958" fill="rgb(191,191,191)"  stroke="rgb(191,191,191)" stroke-width="1" font-size="32" >.</text>
<circle cx="140.565216" cy="332.601862" r="10.524525" opacity="1.000000" style="stroke:black;fill:url(#radialffffffb2b20)"/>
<circle cx="259.809969" cy="99.048002" r="10.570070" opacity="1.000000" style="stroke:black;fill:url(#radialffffffb2b20)"/>
<circle cx="176.720215" cy="357.762290" r="7.893654" opacity="1.000000" style="stroke:black;fill:url(#radialffffff666666)"/>
<circle cx="301.150033" cy="116.059702" r="7.935242" opacity="1.000000" style="stroke:black;fill:url(#radialffffff666666)"/>
<circle cx="185.058071" cy="363.251211" r="8.734548" opacity="1.000000" style="stroke:black;fill:url(#radialffffff666666)"/>
<circle cx="309.064855" cy="122.453418" r="8.762950" opacity="1.000000" style="stroke:black;fill:url(#radialffffff666666)"/>
<text x="313.864855" y="118.421418" fill="rgb(102,102,102)"  stroke="rgb(102,102,102)" stroke-width="1" font-size="16" ></text>
<text x="313.864855" y="118.421418" fill="rgb(102,102,102)"  stroke="rgb(102,102,102)" stroke-width="1" font-size="32" >.</text>
<circle cx="210.541015" cy="384.885003" r="7.731491" opacity="1.000000" style="stroke:black;fill:url(#radialffffffffcc)"/>
<circle cx="40.000000" cy="132.256938" r="7.740300" opacity="1.000000" style="stroke:black;fill:url(#radialffffffffcc)"/>
<text x="44.800000" y="128.224938" fill="rgb(255,12,12)"  stroke="rgb(255,12,12)" stroke-width="1" font-size="16" ></text>
<text x="44.800000" y="128.224938" fill="rgb(255,12,12)"  stroke="rgb(255,12,12)" stroke-width="1" font-size="32" >.</text>
<circle cx="166.594328" cy="344.911420" r="7.984304" opacity="1.000000" style="stroke:black;fill:url(#radialffffffffcc)"/>
<circle cx="283.065998" cy="117.731371" r="8.003684" opacity="1.000000" style="stroke:black;fill:url(#radialffffffffcc)"/>
<circle cx="224.131954" cy="398.702426" r="17.296801" opacity="1.000000" style="stroke:black;fill:url(#radialffffffc67f33)"/>
<circle cx="59.589539" cy="137.957589" r="17.302791" opacity="1.000000" style="stroke:black;fill:url(#radialffffffc67f33)"/>
<circle cx="184.776771" cy="434.893513" r="8.656416" opacity="1.000000" style="stroke:black;fill:url(#radialffffffffcc)"/>
<circle cx="41.202499" cy="188.558778" r="8.662583" opacity="1.000000" style="stroke:black;fill:url(#radialffffffffcc)"/>
<text x="46.002499" y="184.526778" fill="rgb(255,12,12)"  stroke="rgb(255,12,12)" stroke-width="1" font-size="16" ></text>
<text x="46.002499" y="184.526778" fill="rgb(255,12,12)"  stroke="rgb(255,12,12)" stroke-width="1" font-size="32" >.</text>
<circle cx="255.745589" cy="355.870258" r="8.693413" opacity="1.000000" style="stroke:black;fill:url(#radialffffffffcc)"/>
<text x="260.545589" y="351.838258" fill="rgb(255,12,12)"  stroke="rgb(255,12,12)" stroke-width="1" font-size="16" ></text>
<text x="260.545589" y="351.838258" fill="rgb(255,12,12)"  stroke="rgb(255,12,12)" stroke-width="1" font-size="32" >.</text>
<circle cx="49.164212" cy="261.440003" r="4.087407" opacity="1.000000" style="stroke:black;fill:url(#radialffffffbfbfbf)"/>
<text x="53.964212" y="257.408003" fill="rgb(191,191,191)"  stroke="rgb(191,191,191)" stroke-width="1" font-size="16" ></text>
<text x="53.964212" y="257.408003" fill="rgb(191,191,191)"  stroke="rgb(191,191,191)" stroke-width="1" font-size="32" >.</text>
<circle cx="111.038730" cy="575.773451" r="8.702222" opacity="1.000000" style="stroke:black;fill:url(#radialffffffffcc)"/>
<text x="115.838730" y="571.741451" fill="rgb(255,12,12)"  stroke="rgb(255,12,12)" stroke-width="1" font-size="16" ></text>
<text x="115.838730" y="571.741451" fill="rgb(255,12,12)"  stroke="rgb(255,12,12)" stroke-width="1" font-size="32" >..</text>
<circle cx="319.080277" cy="321.194908" r="4.091959" opacity="1.000000" style="stroke:black;fill:url(#radialffffffbfbfbf)"/>
<circle cx="324.493279" cy="264.273835" r="10.060300" opacity="1.000000" style="stroke:black;fill:url(#radialffffff666666)"/>
<text x="329.293279" y="260.241835" fill="rgb(102,102,102)"  stroke="rgb(102,102,102)" stroke-width="1" font-size="16" ></text>
<text x="329.293279" y="260.241835" fill="rgb(102,102,102)"  stroke="rgb(102,102,102)" stroke-width="1" font-size="32" >..</text>
<circle cx="306.868643" cy="298.394061" r="10.067401" opacity="1.000000" style="stroke:black;fill:url(#radialffffff666666)"/>
<circle cx="138.636182" cy="500.615219" r="13.928388" opacity="1.000000" style="stroke:black;fill:url(#radialffffffb2b20)"/>
<text x="143.436182" y="496.583219" fill="rgb(178,178,0)"  stroke="rgb(178,178,0)" stroke-width="1" font-size="16" ></text>
<text x="143.436182" y="496.583219" fill="rgb(178,178,0)"  stroke="rgb(178,178,0)" stroke-width="1" font-size="32" >..</text>
<circle cx="300.879871" cy="235.837416" r="10.115075" opacity="1.000000" style="stroke:black;fill:url(#radialffffff666666)"/>
<text x="305.679871" y="231.805416" fill="rgb(102,102,102)"  stroke="rgb(102,102,102)" stroke-width="1" font-size="16" ></text>
<text x="305.679871" y="231.805416" fill="rgb(102,102,102)"  stroke="rgb(102,102,102)" stroke-width="1" font-size="32" >..</text>
<circle cx="152.531036" cy="426.504434" r="10.127247" opacity="1.000000" style="stroke:black;fill:url(#radialffffff666666)"/>
<text x="157.331036" y="422.472434" fill="rgb(102,102,102)"  stroke="rgb(102,102,102)" stroke-width="1" font-size="16" ></text>
<text x="157.331036" y="422.472434" fill="rgb(102,102,102)"  stroke="rgb(102,102,102)" stroke-width="1" font-size="32" >..</text>
<circle cx="270.190188" cy="294.481396" r="10.131305" opacity="1.000000" style="stroke:black;fill:url(#radialffffff666666)"/>
<text x="274.990188" y="290.449396" fill="rgb(102,102,102)"  stroke="rgb(102,102,102)" stroke-width="1" font-size="16" ></text>
<text x="274.990188" y="290.449396" fill="rgb(102,102,102)"  stroke="rgb(102,102,102)" stroke-width="1" font-size="32" >..</text>
<circle cx="309.527520" cy="196.751757" r="10.133333" opacity="1.000000" style="stroke:black;fill:url(#radialffffff666666)"/>
<text x="314.327520" y="192.719757" fill="rgb(102,102,102)"  stroke="rgb(102,102,102)" stroke-width="1" font-size="16" ></text>
<text x="314.327520" y="192.719757" fill="rgb(102,102,102)"  stroke="rgb(102,102,102)" stroke-width="1" font-size="32" >..</text>
</svg>
</g>
</svg>
