<?xml version="1.0"?>
<svg version="1.1" id="topsvg"
xmlns="http://www.w3.org/2000/svg" xmlns:xlink="http://www.w3.org/1999/xlink"
xmlns:cml="http://www.xml-cml.org/schema" x="0" y="0" width="200px" height="200px" viewBox="0 0 100 100">
<title>ANUGUM_clean - Open Babel Depiction</title>
<defs>
<radialGradient id='radialffffff666666' cx='50%' cy='50%' r='50%' fx='30%' fy='30%'>
  <stop offset=' 0%' stop-color="rgb(255,255,255)"  stop-opacity='0.8'/>
  <stop offset='100%' stop-color="rgb(102,102,102)"  stop-opacity ='1.0'/>
</radialGradient>
<radialGradient id='radialffffff7c7faf' cx='50%' cy='50%' r='50%' fx='30%' fy='30%'>
  <stop offset=' 0%' stop-color="rgb(255,255,255)"  stop-opacity='0.8'/>
  <stop offset='100%' stop-color="rgb(124,127,175)"  stop-opacity ='1.0'/>
</radialGradient>
<radialGradient id='radialffffffbfbfbf' cx='50%' cy='50%' r='50%' fx='30%' fy='30%'>
  <stop offset=' 0%' stop-color="rgb(255,255,255)"  stop-opacity='0.8'/>
  <stop offset='100%' stop-color="rgb(191,191,191)"  stop-opacity ='1.0'/>
</radialGradient>
<radialGradient id='radialffffffffcc' cx='50%' cy='50%' r='50%' fx='30%' fy='30%'>
  <stop offset=' 0%' stop-color="rgb(255,255,255)"  stop-opacity='0.8'/>
  <stop offset='100%' stop-color="rgb(255,12,12)"  stop-opacity ='1.0'/>
</radialGradient>
</defs>
<g transform="translate(0,0)">
<svg width="100" height="100" x="0" y="0" viewBox="0 0 573.332 519.82"
font-family="sans-serif" stroke="rgb(76,76,76)" stroke-width="2"  stroke-linecap="round">
<line x1="479.7" y1="99.6" x2="462.7" y2="128.4" stroke="rgb(76,76,76)"  stroke-width="2.0"/>
<line x1="474.6" y1="96.6" x2="457.6" y2="125.4" stroke="rgb(76,76,76)"  stroke-width="2.0"/>
<line x1="477.2" y1="98.1" x2="504.2" y2="77.3" stroke="rgb(76,76,76)"  stroke-width="2.0"/>
<line x1="57.2" y1="479.8" x2="76.8" y2="465.3" stroke="rgb(76,76,76)"  stroke-width="2.0"/>
<line x1="138.3" y1="388.7" x2="125.5" y2="411.1" stroke="rgb(76,76,76)"  stroke-width="2.0"/>
<line x1="504.2" y1="77.3" x2="524.8" y2="86.6" stroke="rgb(76,76,76)"  stroke-width="2.0"/>
<line x1="166.8" y1="212.4" x2="177.3" y2="226.1" stroke="rgb(76,76,76)"  stroke-width="2.0"/>
<line x1="162.2" y1="281.3" x2="175.8" y2="267.5" stroke="rgb(76,76,76)"  stroke-width="2.0"/>
<line x1="214.4" y1="56.5" x2="241.0" y2="39.2" stroke="rgb(76,76,76)"  stroke-width="2.0"/>
<line x1="217.6" y1="61.6" x2="244.3" y2="44.2" stroke="rgb(76,76,76)"  stroke-width="2.0"/>
<line x1="135.3" y1="422.1" x2="166.2" y2="399.3" stroke="rgb(76,76,76)"  stroke-width="2.0"/>
<line x1="524.8" y1="86.6" x2="497.9" y2="48.8" stroke="rgb(76,76,76)"  stroke-width="2.0"/>
<line x1="147.4" y1="341.9" x2="166.3" y2="356.2" stroke="rgb(76,76,76)"  stroke-width="2.0"/>
<line x1="242.7" y1="41.7" x2="251.4" y2="48.8" stroke="rgb(76,76,76)"  stroke-width="2.0"/>
<line x1="115.0" y1="455.0" x2="120.9" y2="462.4" stroke="rgb(76,76,76)"  stroke-width="2.0"/>
<line x1="177.6" y1="139.4" x2="196.1" y2="156.4" stroke="rgb(76,76,76)"  stroke-width="2.0"/>
<line x1="173.6" y1="143.8" x2="192.1" y2="160.8" stroke="rgb(76,76,76)"  stroke-width="2.0"/>
<line x1="497.9" y1="48.8" x2="506.7" y2="41.7" stroke="rgb(76,76,76)"  stroke-width="2.0"/>
<line x1="194.1" y1="447.6" x2="194.1" y2="419.3" stroke="rgb(76,76,76)"  stroke-width="2.0"/>
<line x1="267.3" y1="462.4" x2="273.2" y2="455.0" stroke="rgb(76,76,76)"  stroke-width="2.0"/>
<line x1="251.4" y1="48.8" x2="224.5" y2="86.6" stroke="rgb(76,76,76)"  stroke-width="2.0"/>
<line x1="222.0" y1="356.2" x2="240.8" y2="341.9" stroke="rgb(76,76,76)"  stroke-width="2.0"/>
<line x1="508.3" y1="39.2" x2="535.0" y2="56.5" stroke="rgb(76,76,76)"  stroke-width="2.0"/>
<line x1="505.0" y1="44.2" x2="531.7" y2="61.6" stroke="rgb(76,76,76)"  stroke-width="2.0"/>
<line x1="212.4" y1="267.5" x2="226.0" y2="281.3" stroke="rgb(76,76,76)"  stroke-width="2.0"/>
<line x1="210.9" y1="226.1" x2="221.4" y2="212.4" stroke="rgb(76,76,76)"  stroke-width="2.0"/>
<line x1="262.7" y1="411.1" x2="250.0" y2="388.7" stroke="rgb(76,76,76)"  stroke-width="2.0"/>
<line x1="311.4" y1="465.3" x2="331.0" y2="479.8" stroke="rgb(76,76,76)"  stroke-width="2.0"/>
<line x1="286.6" y1="128.4" x2="269.6" y2="99.6" stroke="rgb(76,76,76)"  stroke-width="2.0"/>
<line x1="291.8" y1="125.4" x2="274.7" y2="96.6" stroke="rgb(76,76,76)"  stroke-width="2.0"/>
<line x1="298.6" y1="423.2" x2="281.6" y2="394.4" stroke="rgb(76,76,76)"  stroke-width="2.0"/>
<line x1="303.8" y1="420.2" x2="286.7" y2="391.4" stroke="rgb(76,76,76)"  stroke-width="2.0"/>
<line x1="242.3" y1="40.0" x2="261.9" y2="54.5" stroke="rgb(76,76,76)"  stroke-width="2.0"/>
<line x1="323.4" y1="131.2" x2="310.6" y2="108.7" stroke="rgb(76,76,76)"  stroke-width="2.0"/>
<line x1="351.9" y1="307.4" x2="362.4" y2="293.7" stroke="rgb(76,76,76)"  stroke-width="2.0"/>
<line x1="347.3" y1="238.5" x2="360.9" y2="252.4" stroke="rgb(76,76,76)"  stroke-width="2.0"/>
<line x1="41.6" y1="458.3" x2="68.3" y2="475.6" stroke="rgb(76,76,76)"  stroke-width="2.0"/>
<line x1="38.4" y1="463.3" x2="65.0" y2="480.6" stroke="rgb(76,76,76)"  stroke-width="2.0"/>
<line x1="348.8" y1="433.2" x2="321.9" y2="471.0" stroke="rgb(76,76,76)"  stroke-width="2.0"/>
<line x1="332.5" y1="177.9" x2="351.4" y2="163.6" stroke="rgb(76,76,76)"  stroke-width="2.0"/>
<line x1="66.7" y1="478.1" x2="75.4" y2="471.0" stroke="rgb(76,76,76)"  stroke-width="2.0"/>
<line x1="300.1" y1="64.9" x2="306.0" y2="57.4" stroke="rgb(76,76,76)"  stroke-width="2.0"/>
<line x1="321.9" y1="471.0" x2="330.7" y2="478.1" stroke="rgb(76,76,76)"  stroke-width="2.0"/>
<line x1="379.2" y1="72.2" x2="379.2" y2="100.5" stroke="rgb(76,76,76)"  stroke-width="2.0"/>
<line x1="381.3" y1="359.0" x2="399.8" y2="376.0" stroke="rgb(76,76,76)"  stroke-width="2.0"/>
<line x1="377.2" y1="363.4" x2="395.7" y2="380.4" stroke="rgb(76,76,76)"  stroke-width="2.0"/>
<line x1="452.4" y1="57.4" x2="458.3" y2="64.9" stroke="rgb(76,76,76)"  stroke-width="2.0"/>
<line x1="75.4" y1="471.0" x2="48.5" y2="433.2" stroke="rgb(76,76,76)"  stroke-width="2.0"/>
<line x1="407.1" y1="163.6" x2="425.9" y2="177.9" stroke="rgb(76,76,76)"  stroke-width="2.0"/>
<line x1="407.1" y1="120.5" x2="438.1" y2="97.7" stroke="rgb(76,76,76)"  stroke-width="2.0"/>
<line x1="329.0" y1="475.6" x2="355.7" y2="458.3" stroke="rgb(76,76,76)"  stroke-width="2.0"/>
<line x1="332.3" y1="480.6" x2="359.0" y2="463.3" stroke="rgb(76,76,76)"  stroke-width="2.0"/>
<line x1="397.5" y1="252.4" x2="411.1" y2="238.5" stroke="rgb(76,76,76)"  stroke-width="2.0"/>
<line x1="396.1" y1="293.7" x2="406.5" y2="307.4" stroke="rgb(76,76,76)"  stroke-width="2.0"/>
<line x1="48.5" y1="433.2" x2="69.1" y2="442.5" stroke="rgb(76,76,76)"  stroke-width="2.0"/>
<line x1="447.8" y1="108.7" x2="435.1" y2="131.2" stroke="rgb(76,76,76)"  stroke-width="2.0"/>
<line x1="496.5" y1="54.5" x2="516.1" y2="40.0" stroke="rgb(76,76,76)"  stroke-width="2.0"/>
<line x1="69.1" y1="442.5" x2="96.2" y2="421.7" stroke="rgb(76,76,76)"  stroke-width="2.0"/>
<line x1="115.8" y1="394.4" x2="98.8" y2="423.2" stroke="rgb(76,76,76)"  stroke-width="2.0"/>
<line x1="110.6" y1="391.4" x2="93.6" y2="420.2" stroke="rgb(76,76,76)"  stroke-width="2.0"/>
<line x1="76.8" y1="465.3" x2="96.5" y2="433.3" stroke="rgb(76,76,76)"  stroke-width="2.0"/>
<line x1="84.3" y1="464.8" x2="101.1" y2="437.4" stroke="rgb(76,76,76)"  stroke-width="2.0" stroke-dasharray="5.0,5.0"/>
<line x1="96.5" y1="433.3" x2="125.5" y2="411.1" stroke="rgb(76,76,76)"  stroke-width="2.0"/>
<line x1="101.1" y1="437.4" x2="124.7" y2="419.4" stroke="rgb(76,76,76)"  stroke-width="2.0" stroke-dasharray="5.0,5.0"/>
<line x1="125.5" y1="411.1" x2="135.3" y2="422.1" stroke="rgb(76,76,76)"  stroke-width="2.0"/>
<line x1="124.7" y1="419.3" x2="127.7" y2="422.8" stroke="rgb(76,76,76)"  stroke-width="2.0" stroke-dasharray="5.0,5.0"/>
<line x1="135.3" y1="422.1" x2="115.0" y2="455.0" stroke="rgb(76,76,76)"  stroke-width="2.0"/>
<line x1="127.7" y1="422.8" x2="110.4" y2="450.8" stroke="rgb(76,76,76)"  stroke-width="2.0" stroke-dasharray="5.0,5.0"/>
<line x1="115.0" y1="455.0" x2="86.2" y2="476.5" stroke="rgb(76,76,76)"  stroke-width="2.0"/>
<line x1="110.4" y1="450.8" x2="87.2" y2="468.2" stroke="rgb(76,76,76)"  stroke-width="2.0" stroke-dasharray="5.0,5.0"/>
<line x1="86.2" y1="476.5" x2="76.8" y2="465.3" stroke="rgb(76,76,76)"  stroke-width="2.0"/>
<line x1="87.2" y1="468.2" x2="84.3" y2="464.8" stroke="rgb(76,76,76)"  stroke-width="2.0" stroke-dasharray="5.0,5.0"/>
<line x1="194.1" y1="203.8" x2="177.3" y2="226.1" stroke="rgb(76,76,76)"  stroke-width="2.0"/>
<line x1="194.1" y1="213.9" x2="183.3" y2="228.3" stroke="rgb(76,76,76)"  stroke-width="2.0" stroke-dasharray="5.0,5.0"/>
<line x1="177.3" y1="226.1" x2="175.8" y2="267.5" stroke="rgb(76,76,76)"  stroke-width="2.0"/>
<line x1="183.3" y1="228.3" x2="182.0" y2="265.4" stroke="rgb(76,76,76)"  stroke-width="2.0" stroke-dasharray="5.0,5.0"/>
<line x1="175.8" y1="267.5" x2="194.1" y2="289.5" stroke="rgb(76,76,76)"  stroke-width="2.0"/>
<line x1="182.0" y1="265.4" x2="194.1" y2="280.0" stroke="rgb(76,76,76)"  stroke-width="2.0" stroke-dasharray="5.0,5.0"/>
<line x1="194.1" y1="289.5" x2="212.4" y2="267.5" stroke="rgb(76,76,76)"  stroke-width="2.0"/>
<line x1="194.1" y1="280.0" x2="206.3" y2="265.4" stroke="rgb(76,76,76)"  stroke-width="2.0" stroke-dasharray="5.0,5.0"/>
<line x1="212.4" y1="267.5" x2="210.9" y2="226.1" stroke="rgb(76,76,76)"  stroke-width="2.0"/>
<line x1="206.3" y1="265.4" x2="204.9" y2="228.3" stroke="rgb(76,76,76)"  stroke-width="2.0" stroke-dasharray="5.0,5.0"/>
<line x1="210.9" y1="226.1" x2="194.1" y2="203.8" stroke="rgb(76,76,76)"  stroke-width="2.0"/>
<line x1="204.9" y1="228.3" x2="194.1" y2="213.9" stroke="rgb(76,76,76)"  stroke-width="2.0" stroke-dasharray="5.0,5.0"/>
<line x1="166.3" y1="356.2" x2="194.1" y2="335.3" stroke="rgb(76,76,76)"  stroke-width="2.0"/>
<line x1="172.3" y1="359.3" x2="194.1" y2="342.9" stroke="rgb(76,76,76)"  stroke-width="2.0" stroke-dasharray="5.0,5.0"/>
<line x1="194.1" y1="335.3" x2="222.0" y2="356.2" stroke="rgb(76,76,76)"  stroke-width="2.0"/>
<line x1="194.1" y1="342.9" x2="215.9" y2="359.3" stroke="rgb(76,76,76)"  stroke-width="2.0" stroke-dasharray="5.0,5.0"/>
<line x1="222.0" y1="356.2" x2="222.0" y2="399.3" stroke="rgb(76,76,76)"  stroke-width="2.0"/>
<line x1="215.9" y1="359.3" x2="215.9" y2="396.2" stroke="rgb(76,76,76)"  stroke-width="2.0" stroke-dasharray="5.0,5.0"/>
<line x1="222.0" y1="399.3" x2="194.1" y2="419.3" stroke="rgb(76,76,76)"  stroke-width="2.0"/>
<line x1="215.9" y1="396.2" x2="194.1" y2="411.8" stroke="rgb(76,76,76)"  stroke-width="2.0" stroke-dasharray="5.0,5.0"/>
<line x1="194.1" y1="419.3" x2="166.2" y2="399.3" stroke="rgb(76,76,76)"  stroke-width="2.0"/>
<line x1="194.1" y1="411.8" x2="172.3" y2="396.2" stroke="rgb(76,76,76)"  stroke-width="2.0" stroke-dasharray="5.0,5.0"/>
<line x1="166.2" y1="399.3" x2="166.3" y2="356.2" stroke="rgb(76,76,76)"  stroke-width="2.0"/>
<line x1="172.3" y1="396.2" x2="172.3" y2="359.3" stroke="rgb(76,76,76)"  stroke-width="2.0" stroke-dasharray="5.0,5.0"/>
<line x1="311.4" y1="465.3" x2="291.7" y2="433.3" stroke="rgb(76,76,76)"  stroke-width="2.0"/>
<line x1="303.9" y1="464.8" x2="287.1" y2="437.4" stroke="rgb(76,76,76)"  stroke-width="2.0" stroke-dasharray="5.0,5.0"/>
<line x1="291.7" y1="433.3" x2="262.7" y2="411.1" stroke="rgb(76,76,76)"  stroke-width="2.0"/>
<line x1="287.1" y1="437.4" x2="263.5" y2="419.4" stroke="rgb(76,76,76)"  stroke-width="2.0" stroke-dasharray="5.0,5.0"/>
<line x1="262.7" y1="411.1" x2="253.0" y2="422.1" stroke="rgb(76,76,76)"  stroke-width="2.0"/>
<line x1="263.5" y1="419.3" x2="260.5" y2="422.8" stroke="rgb(76,76,76)"  stroke-width="2.0" stroke-dasharray="5.0,5.0"/>
<line x1="253.0" y1="422.1" x2="273.2" y2="455.0" stroke="rgb(76,76,76)"  stroke-width="2.0"/>
<line x1="260.5" y1="422.8" x2="277.8" y2="450.8" stroke="rgb(76,76,76)"  stroke-width="2.0" stroke-dasharray="5.0,5.0"/>
<line x1="273.2" y1="455.0" x2="302.0" y2="476.5" stroke="rgb(76,76,76)"  stroke-width="2.0"/>
<line x1="277.8" y1="450.8" x2="301.1" y2="468.2" stroke="rgb(76,76,76)"  stroke-width="2.0" stroke-dasharray="5.0,5.0"/>
<line x1="302.0" y1="476.5" x2="311.4" y2="465.3" stroke="rgb(76,76,76)"  stroke-width="2.0"/>
<line x1="301.1" y1="468.2" x2="304.0" y2="464.8" stroke="rgb(76,76,76)"  stroke-width="2.0" stroke-dasharray="5.0,5.0"/>
<line x1="261.9" y1="54.5" x2="281.6" y2="86.5" stroke="rgb(76,76,76)"  stroke-width="2.0"/>
<line x1="272.6" y1="55.3" x2="288.1" y2="80.6" stroke="rgb(76,76,76)"  stroke-width="2.0" stroke-dasharray="5.0,5.0"/>
<line x1="281.6" y1="86.5" x2="310.6" y2="108.7" stroke="rgb(76,76,76)"  stroke-width="2.0"/>
<line x1="288.1" y1="80.6" x2="309.5" y2="97.0" stroke="rgb(76,76,76)"  stroke-width="2.0" stroke-dasharray="5.0,5.0"/>
<line x1="310.6" y1="108.7" x2="320.4" y2="97.7" stroke="rgb(76,76,76)"  stroke-width="2.0"/>
<line x1="309.5" y1="97.0" x2="309.7" y2="96.8" stroke="rgb(76,76,76)"  stroke-width="2.0" stroke-dasharray="5.0,5.0"/>
<line x1="320.4" y1="97.7" x2="300.1" y2="64.9" stroke="rgb(76,76,76)"  stroke-width="2.0"/>
<line x1="309.6" y1="96.7" x2="293.6" y2="70.8" stroke="rgb(76,76,76)"  stroke-width="2.0" stroke-dasharray="5.0,5.0"/>
<line x1="300.1" y1="64.9" x2="271.3" y2="43.3" stroke="rgb(76,76,76)"  stroke-width="2.0"/>
<line x1="293.6" y1="70.8" x2="272.7" y2="55.1" stroke="rgb(76,76,76)"  stroke-width="2.0" stroke-dasharray="5.0,5.0"/>
<line x1="271.3" y1="43.3" x2="261.9" y2="54.5" stroke="rgb(76,76,76)"  stroke-width="2.0"/>
<line x1="272.7" y1="55.1" x2="272.5" y2="55.3" stroke="rgb(76,76,76)"  stroke-width="2.0" stroke-dasharray="5.0,5.0"/>
<line x1="407.1" y1="163.6" x2="379.2" y2="184.5" stroke="rgb(76,76,76)"  stroke-width="2.0"/>
<line x1="397.1" y1="158.6" x2="379.2" y2="172.0" stroke="rgb(76,76,76)"  stroke-width="2.0" stroke-dasharray="5.0,5.0"/>
<line x1="379.2" y1="184.5" x2="351.4" y2="163.6" stroke="rgb(76,76,76)"  stroke-width="2.0"/>
<line x1="379.2" y1="172.0" x2="361.3" y2="158.6" stroke="rgb(76,76,76)"  stroke-width="2.0" stroke-dasharray="5.0,5.0"/>
<line x1="351.4" y1="163.6" x2="351.3" y2="120.5" stroke="rgb(76,76,76)"  stroke-width="2.0"/>
<line x1="361.3" y1="158.6" x2="361.3" y2="125.6" stroke="rgb(76,76,76)"  stroke-width="2.0" stroke-dasharray="5.0,5.0"/>
<line x1="351.3" y1="120.5" x2="379.2" y2="100.5" stroke="rgb(76,76,76)"  stroke-width="2.0"/>
<line x1="361.3" y1="125.6" x2="379.2" y2="112.8" stroke="rgb(76,76,76)"  stroke-width="2.0" stroke-dasharray="5.0,5.0"/>
<line x1="379.2" y1="100.5" x2="407.1" y2="120.5" stroke="rgb(76,76,76)"  stroke-width="2.0"/>
<line x1="379.2" y1="112.8" x2="397.1" y2="125.6" stroke="rgb(76,76,76)"  stroke-width="2.0" stroke-dasharray="5.0,5.0"/>
<line x1="407.1" y1="120.5" x2="407.1" y2="163.6" stroke="rgb(76,76,76)"  stroke-width="2.0"/>
<line x1="397.1" y1="125.6" x2="397.1" y2="158.6" stroke="rgb(76,76,76)"  stroke-width="2.0" stroke-dasharray="5.0,5.0"/>
<line x1="379.2" y1="230.3" x2="397.5" y2="252.4" stroke="rgb(76,76,76)"  stroke-width="2.0"/>
<line x1="379.2" y1="246.2" x2="387.2" y2="255.9" stroke="rgb(76,76,76)"  stroke-width="2.0" stroke-dasharray="5.0,5.0"/>
<line x1="397.5" y1="252.4" x2="396.1" y2="293.7" stroke="rgb(76,76,76)"  stroke-width="2.0"/>
<line x1="387.2" y1="255.9" x2="386.0" y2="290.1" stroke="rgb(76,76,76)"  stroke-width="2.0" stroke-dasharray="5.0,5.0"/>
<line x1="396.1" y1="293.7" x2="379.2" y2="316.0" stroke="rgb(76,76,76)"  stroke-width="2.0"/>
<line x1="386.0" y1="290.1" x2="379.2" y2="299.1" stroke="rgb(76,76,76)"  stroke-width="2.0" stroke-dasharray="5.0,5.0"/>
<line x1="379.2" y1="316.0" x2="362.4" y2="293.7" stroke="rgb(76,76,76)"  stroke-width="2.0"/>
<line x1="379.2" y1="299.1" x2="372.4" y2="290.1" stroke="rgb(76,76,76)"  stroke-width="2.0" stroke-dasharray="5.0,5.0"/>
<line x1="362.4" y1="293.7" x2="360.9" y2="252.4" stroke="rgb(76,76,76)"  stroke-width="2.0"/>
<line x1="372.4" y1="290.1" x2="371.2" y2="255.9" stroke="rgb(76,76,76)"  stroke-width="2.0" stroke-dasharray="5.0,5.0"/>
<line x1="360.9" y1="252.4" x2="379.2" y2="230.3" stroke="rgb(76,76,76)"  stroke-width="2.0"/>
<line x1="371.2" y1="255.9" x2="379.2" y2="246.2" stroke="rgb(76,76,76)"  stroke-width="2.0" stroke-dasharray="5.0,5.0"/>
<line x1="458.3" y1="64.9" x2="438.1" y2="97.7" stroke="rgb(76,76,76)"  stroke-width="2.0"/>
<line x1="467.4" y1="73.2" x2="453.1" y2="96.4" stroke="rgb(76,76,76)"  stroke-width="2.0" stroke-dasharray="5.0,5.0"/>
<line x1="438.1" y1="97.7" x2="447.8" y2="108.7" stroke="rgb(76,76,76)"  stroke-width="2.0"/>
<line x1="453.0" y1="96.4" x2="449.4" y2="92.3" stroke="rgb(76,76,76)"  stroke-width="2.0" stroke-dasharray="5.0,5.0"/>
<line x1="447.8" y1="108.7" x2="476.8" y2="86.5" stroke="rgb(76,76,76)"  stroke-width="2.0"/>
<line x1="449.5" y1="92.2" x2="467.7" y2="78.3" stroke="rgb(76,76,76)"  stroke-width="2.0" stroke-dasharray="5.0,5.0"/>
<line x1="476.8" y1="86.5" x2="496.5" y2="54.5" stroke="rgb(76,76,76)"  stroke-width="2.0"/>
<line x1="467.7" y1="78.3" x2="481.6" y2="55.6" stroke="rgb(76,76,76)"  stroke-width="2.0" stroke-dasharray="5.0,5.0"/>
<line x1="496.5" y1="54.5" x2="487.1" y2="43.3" stroke="rgb(76,76,76)"  stroke-width="2.0"/>
<line x1="481.7" y1="55.6" x2="485.2" y2="59.8" stroke="rgb(76,76,76)"  stroke-width="2.0" stroke-dasharray="5.0,5.0"/>
<line x1="487.1" y1="43.3" x2="458.3" y2="64.9" stroke="rgb(76,76,76)"  stroke-width="2.0"/>
<line x1="485.2" y1="59.9" x2="467.4" y2="73.2" stroke="rgb(76,76,76)"  stroke-width="2.0" stroke-dasharray="5.0,5.0"/>
<line x1="348.8" y1="433.2" x2="328.2" y2="442.5" stroke="rgb(76,76,76)"  stroke-width="2.0"/>
<line x1="328.2" y1="442.5" x2="301.2" y2="421.7" stroke="rgb(76,76,76)"  stroke-width="2.0"/>
<line x1="301.2" y1="421.7" x2="291.7" y2="433.3" stroke="rgb(76,76,76)"  stroke-width="2.0"/>
<line x1="253.0" y1="422.1" x2="222.0" y2="399.3" stroke="rgb(76,76,76)"  stroke-width="2.0"/>
<line x1="194.1" y1="335.3" x2="194.1" y2="289.5" stroke="rgb(76,76,76)"  stroke-width="2.0"/>
<line x1="194.1" y1="203.8" x2="194.1" y2="158.6" stroke="rgb(76,76,76)"  stroke-width="2.0"/>
<line x1="194.1" y1="158.6" x2="212.6" y2="141.6" stroke="rgb(76,76,76)"  stroke-width="2.0"/>
<line x1="212.6" y1="141.6" x2="224.5" y2="86.6" stroke="rgb(76,76,76)"  stroke-width="2.0"/>
<line x1="224.5" y1="86.6" x2="245.1" y2="77.3" stroke="rgb(76,76,76)"  stroke-width="2.0"/>
<line x1="245.1" y1="77.3" x2="272.2" y2="98.1" stroke="rgb(76,76,76)"  stroke-width="2.0"/>
<line x1="272.2" y1="98.1" x2="281.6" y2="86.5" stroke="rgb(76,76,76)"  stroke-width="2.0"/>
<line x1="320.4" y1="97.7" x2="351.3" y2="120.5" stroke="rgb(76,76,76)"  stroke-width="2.0"/>
<line x1="379.2" y1="184.5" x2="379.2" y2="230.3" stroke="rgb(76,76,76)"  stroke-width="2.0"/>
<line x1="379.2" y1="316.0" x2="379.2" y2="361.2" stroke="rgb(76,76,76)"  stroke-width="2.0"/>
<line x1="379.2" y1="361.2" x2="360.7" y2="378.2" stroke="rgb(76,76,76)"  stroke-width="2.0"/>
<line x1="360.7" y1="378.2" x2="348.8" y2="433.2" stroke="rgb(76,76,76)"  stroke-width="2.0"/>
<circle cx="477.159896" cy="98.111641" r="5.066667" opacity="1.000000" style="stroke:black;fill:url(#radialffffff666666)"/>
<text x="481.959896" y="94.079641" fill="rgb(102,102,102)"  stroke="rgb(102,102,102)" stroke-width="1" font-size="16" ></text>
<text x="481.959896" y="94.079641" fill="rgb(102,102,102)"  stroke="rgb(102,102,102)" stroke-width="1" font-size="32" >.</text>
<circle cx="96.494838" cy="433.289248" r="5.066667" opacity="1.000000" style="stroke:black;fill:url(#radialffffff666666)"/>
<text x="101.294838" y="429.257248" fill="rgb(102,102,102)"  stroke="rgb(102,102,102)" stroke-width="1" font-size="16" ></text>
<text x="101.294838" y="429.257248" fill="rgb(102,102,102)"  stroke="rgb(102,102,102)" stroke-width="1" font-size="32" >.</text>
<circle cx="57.199111" cy="479.819831" r="2.066667" opacity="1.000000" style="stroke:black;fill:url(#radialffffffbfbfbf)"/>
<circle cx="138.252190" cy="388.651374" r="2.066667" opacity="1.000000" style="stroke:black;fill:url(#radialffffffbfbfbf)"/>
<circle cx="460.138706" cy="126.914506" r="4.400000" opacity="1.000000" style="stroke:black;fill:url(#radialffffffffcc)"/>
<circle cx="504.210564" cy="77.319989" r="4.400000" opacity="1.000000" style="stroke:black;fill:url(#radialffffffffcc)"/>
<circle cx="76.800980" cy="465.343444" r="5.066667" opacity="1.000000" style="stroke:black;fill:url(#radialffffff666666)"/>
<circle cx="125.525507" cy="411.092122" r="5.066667" opacity="1.000000" style="stroke:black;fill:url(#radialffffff666666)"/>
<circle cx="166.818048" cy="212.404855" r="2.066667" opacity="1.000000" style="stroke:black;fill:url(#radialffffffbfbfbf)"/>
<circle cx="162.208183" cy="281.273116" r="2.066667" opacity="1.000000" style="stroke:black;fill:url(#radialffffffbfbfbf)"/>
<circle cx="86.199069" cy="476.493552" r="5.066667" opacity="1.000000" style="stroke:black;fill:url(#radialffffff666666)"/>
<text x="90.999069" y="472.461552" fill="rgb(102,102,102)"  stroke="rgb(102,102,102)" stroke-width="1" font-size="16" ></text>
<text x="90.999069" y="472.461552" fill="rgb(102,102,102)"  stroke="rgb(102,102,102)" stroke-width="1" font-size="32" >.</text>
<circle cx="215.989724" cy="59.048826" r="4.400000" opacity="1.000000" style="stroke:black;fill:url(#radialffffffffcc)"/>
<circle cx="135.271017" cy="422.129791" r="5.066667" opacity="1.000000" style="stroke:black;fill:url(#radialffffff666666)"/>
<circle cx="524.785369" cy="86.586762" r="8.133333" opacity="1.000000" style="stroke:black;fill:url(#radialffffff7c7faf)"/>
<circle cx="147.405352" cy="341.895927" r="2.066667" opacity="1.000000" style="stroke:black;fill:url(#radialffffffbfbfbf)"/>
<circle cx="177.278305" cy="226.122292" r="5.066667" opacity="1.000000" style="stroke:black;fill:url(#radialffffff666666)"/>
<circle cx="175.814195" cy="267.461988" r="5.066667" opacity="1.000000" style="stroke:black;fill:url(#radialffffff666666)"/>
<circle cx="242.654212" cy="41.695903" r="5.066667" opacity="1.000000" style="stroke:black;fill:url(#radialffffff666666)"/>
<text x="247.454212" y="37.663903" fill="rgb(102,102,102)"  stroke="rgb(102,102,102)" stroke-width="1" font-size="16" ></text>
<text x="247.454212" y="37.663903" fill="rgb(102,102,102)"  stroke="rgb(102,102,102)" stroke-width="1" font-size="32" >.</text>
<circle cx="114.992110" cy="454.961683" r="5.066667" opacity="1.000000" style="stroke:black;fill:url(#radialffffff666666)"/>
<circle cx="175.605361" cy="141.597045" r="4.400000" opacity="1.000000" style="stroke:black;fill:url(#radialffffffffcc)"/>
<circle cx="166.221881" cy="399.323626" r="5.066667" opacity="1.000000" style="stroke:black;fill:url(#radialffffff666666)"/>
<circle cx="166.268047" cy="356.231772" r="5.066667" opacity="1.000000" style="stroke:black;fill:url(#radialffffff666666)"/>
<circle cx="497.922950" cy="48.816980" r="4.400000" opacity="1.000000" style="stroke:black;fill:url(#radialffffffffcc)"/>
<circle cx="120.902365" cy="462.391965" r="2.066667" opacity="1.000000" style="stroke:black;fill:url(#radialffffffbfbfbf)"/>
<circle cx="194.112677" cy="158.622034" r="5.066667" opacity="1.000000" style="stroke:black;fill:url(#radialffffff666666)"/>
<circle cx="194.112498" cy="447.587632" r="2.066667" opacity="1.000000" style="stroke:black;fill:url(#radialffffffbfbfbf)"/>
<circle cx="194.112568" cy="335.337053" r="5.066667" opacity="1.000000" style="stroke:black;fill:url(#radialffffff666666)"/>
<circle cx="194.112596" cy="289.518577" r="5.066667" opacity="1.000000" style="stroke:black;fill:url(#radialffffff666666)"/>
<circle cx="194.112516" cy="419.290741" r="5.066667" opacity="1.000000" style="stroke:black;fill:url(#radialffffff666666)"/>
<circle cx="194.112649" cy="203.784621" r="5.066667" opacity="1.000000" style="stroke:black;fill:url(#radialffffff666666)"/>
<circle cx="267.322613" cy="462.391966" r="2.066667" opacity="1.000000" style="stroke:black;fill:url(#radialffffffbfbfbf)"/>
<circle cx="251.399056" cy="48.816981" r="4.400000" opacity="1.000000" style="stroke:black;fill:url(#radialffffffffcc)"/>
<circle cx="221.957063" cy="356.231781" r="5.066667" opacity="1.000000" style="stroke:black;fill:url(#radialffffff666666)"/>
<circle cx="222.003175" cy="399.323635" r="5.066667" opacity="1.000000" style="stroke:black;fill:url(#radialffffff666666)"/>
<circle cx="212.620014" cy="141.597056" r="4.400000" opacity="1.000000" style="stroke:black;fill:url(#radialffffffffcc)"/>
<circle cx="273.232877" cy="454.961695" r="5.066667" opacity="1.000000" style="stroke:black;fill:url(#radialffffff666666)"/>
<circle cx="506.667803" cy="41.695915" r="5.066667" opacity="1.000000" style="stroke:black;fill:url(#radialffffff666666)"/>
<text x="511.467803" y="37.663915" fill="rgb(102,102,102)"  stroke="rgb(102,102,102)" stroke-width="1" font-size="16" ></text>
<text x="511.467803" y="37.663915" fill="rgb(102,102,102)"  stroke="rgb(102,102,102)" stroke-width="1" font-size="32" >.</text>
<circle cx="212.411024" cy="267.462000" r="5.066667" opacity="1.000000" style="stroke:black;fill:url(#radialffffff666666)"/>
<circle cx="210.946965" cy="226.122305" r="5.066667" opacity="1.000000" style="stroke:black;fill:url(#radialffffff666666)"/>
<circle cx="240.819775" cy="341.895942" r="2.066667" opacity="1.000000" style="stroke:black;fill:url(#radialffffffbfbfbf)"/>
<circle cx="224.536590" cy="86.586779" r="8.133333" opacity="1.000000" style="stroke:black;fill:url(#radialffffff7c7faf)"/>
<circle cx="252.954011" cy="422.129809" r="5.066667" opacity="1.000000" style="stroke:black;fill:url(#radialffffff666666)"/>
<circle cx="533.332269" cy="59.048846" r="4.400000" opacity="1.000000" style="stroke:black;fill:url(#radialffffffffcc)"/>
<circle cx="302.025891" cy="476.493571" r="5.066667" opacity="1.000000" style="stroke:black;fill:url(#radialffffff666666)"/>
<text x="306.825891" y="472.461571" fill="rgb(102,102,102)"  stroke="rgb(102,102,102)" stroke-width="1" font-size="16" ></text>
<text x="306.825891" y="472.461571" fill="rgb(102,102,102)"  stroke="rgb(102,102,102)" stroke-width="1" font-size="32" >.</text>
<circle cx="226.017019" cy="281.273136" r="2.066667" opacity="1.000000" style="stroke:black;fill:url(#radialffffffbfbfbf)"/>
<circle cx="221.407240" cy="212.404876" r="2.066667" opacity="1.000000" style="stroke:black;fill:url(#radialffffffbfbfbf)"/>
<circle cx="262.699534" cy="411.092156" r="5.066667" opacity="1.000000" style="stroke:black;fill:url(#radialffffff666666)"/>
<circle cx="311.423994" cy="465.343480" r="5.066667" opacity="1.000000" style="stroke:black;fill:url(#radialffffff666666)"/>
<circle cx="245.111406" cy="77.320026" r="4.400000" opacity="1.000000" style="stroke:black;fill:url(#radialffffffffcc)"/>
<circle cx="289.183203" cy="126.914543" r="4.400000" opacity="1.000000" style="stroke:black;fill:url(#radialffffffffcc)"/>
<circle cx="249.972879" cy="388.651412" r="2.066667" opacity="1.000000" style="stroke:black;fill:url(#radialffffffbfbfbf)"/>
<circle cx="331.025845" cy="479.819872" r="2.066667" opacity="1.000000" style="stroke:black;fill:url(#radialffffffbfbfbf)"/>
<circle cx="291.730176" cy="433.289291" r="5.066667" opacity="1.000000" style="stroke:black;fill:url(#radialffffff666666)"/>
<circle cx="272.162049" cy="98.111685" r="5.066667" opacity="1.000000" style="stroke:black;fill:url(#radialffffff666666)"/>
<circle cx="301.170220" cy="421.708187" r="5.486968" opacity="1.000000" style="stroke:black;fill:url(#radialffffff666666)"/>
<circle cx="281.602093" cy="86.530582" r="5.534156" opacity="1.000000" style="stroke:black;fill:url(#radialffffff666666)"/>
<circle cx="242.306424" cy="40.000000" r="2.288687" opacity="1.000000" style="stroke:black;fill:url(#radialffffffbfbfbf)"/>
<circle cx="323.359390" cy="131.168460" r="2.353144" opacity="1.000000" style="stroke:black;fill:url(#radialffffffbfbfbf)"/>
<circle cx="284.149066" cy="392.905329" r="5.052805" opacity="1.000000" style="stroke:black;fill:url(#radialffffffffcc)"/>
<circle cx="328.220863" cy="442.499846" r="5.071674" opacity="1.000000" style="stroke:black;fill:url(#radialffffffffcc)"/>
<circle cx="261.908275" cy="54.476392" r="5.908368" opacity="1.000000" style="stroke:black;fill:url(#radialffffff666666)"/>
<circle cx="310.632735" cy="108.727717" r="6.010425" opacity="1.000000" style="stroke:black;fill:url(#radialffffff666666)"/>
<circle cx="351.925029" cy="307.414996" r="2.726908" opacity="1.000000" style="stroke:black;fill:url(#radialffffffbfbfbf)"/>
<circle cx="347.315250" cy="238.546736" r="2.750632" opacity="1.000000" style="stroke:black;fill:url(#radialffffffbfbfbf)"/>
<circle cx="271.306378" cy="43.326301" r="6.745679" opacity="1.000000" style="stroke:black;fill:url(#radialffffff666666)"/>
<text x="276.106378" y="39.294301" fill="rgb(102,102,102)"  stroke="rgb(102,102,102)" stroke-width="1" font-size="16" ></text>
<text x="276.106378" y="39.294301" fill="rgb(102,102,102)"  stroke="rgb(102,102,102)" stroke-width="1" font-size="32" >.</text>
<circle cx="40.000000" cy="460.771026" r="5.870955" opacity="1.000000" style="stroke:black;fill:url(#radialffffffffcc)"/>
<circle cx="320.378258" cy="97.690063" r="6.831276" opacity="1.000000" style="stroke:black;fill:url(#radialffffff666666)"/>
<circle cx="348.795679" cy="433.233094" r="11.153078" opacity="1.000000" style="stroke:black;fill:url(#radialffffff7c7faf)"/>
<circle cx="332.512494" cy="177.923930" r="2.858061" opacity="1.000000" style="stroke:black;fill:url(#radialffffffbfbfbf)"/>
<circle cx="362.385304" cy="293.697567" r="7.149520" opacity="1.000000" style="stroke:black;fill:url(#radialffffff666666)"/>
<circle cx="360.921245" cy="252.357872" r="7.169273" opacity="1.000000" style="stroke:black;fill:url(#radialffffff666666)"/>
<circle cx="66.664466" cy="478.123958" r="7.170370" opacity="1.000000" style="stroke:black;fill:url(#radialffffff666666)"/>
<text x="71.464466" y="474.091958" fill="rgb(102,102,102)"  stroke="rgb(102,102,102)" stroke-width="1" font-size="16" ></text>
<text x="71.464466" y="474.091958" fill="rgb(102,102,102)"  stroke="rgb(102,102,102)" stroke-width="1" font-size="32" >.</text>
<circle cx="300.099392" cy="64.858177" r="7.196708" opacity="1.000000" style="stroke:black;fill:url(#radialffffff666666)"/>
<circle cx="360.712255" cy="378.222816" r="6.271787" opacity="1.000000" style="stroke:black;fill:url(#radialffffffffcc)"/>
<circle cx="351.329094" cy="120.496237" r="7.315226" opacity="1.000000" style="stroke:black;fill:url(#radialffffff666666)"/>
<circle cx="351.375206" cy="163.588091" r="7.327298" opacity="1.000000" style="stroke:black;fill:url(#radialffffff666666)"/>
<circle cx="321.933213" cy="471.002891" r="6.689868" opacity="1.000000" style="stroke:black;fill:url(#radialffffffffcc)"/>
<circle cx="306.009656" cy="57.427906" r="3.160205" opacity="1.000000" style="stroke:black;fill:url(#radialffffffbfbfbf)"/>
<circle cx="379.219673" cy="230.301295" r="7.810151" opacity="1.000000" style="stroke:black;fill:url(#radialffffff666666)"/>
<circle cx="379.219771" cy="72.232240" r="3.185719" opacity="1.000000" style="stroke:black;fill:url(#radialffffffbfbfbf)"/>
<circle cx="379.219620" cy="316.035251" r="7.810151" opacity="1.000000" style="stroke:black;fill:url(#radialffffff666666)"/>
<circle cx="379.219592" cy="361.197838" r="7.810151" opacity="1.000000" style="stroke:black;fill:url(#radialffffff666666)"/>
<circle cx="379.219701" cy="184.482820" r="7.810151" opacity="1.000000" style="stroke:black;fill:url(#radialffffff666666)"/>
<circle cx="379.219753" cy="100.529131" r="7.810151" opacity="1.000000" style="stroke:black;fill:url(#radialffffff666666)"/>
<circle cx="452.429904" cy="57.427907" r="3.211234" opacity="1.000000" style="stroke:black;fill:url(#radialffffffbfbfbf)"/>
<circle cx="75.409319" cy="471.002893" r="6.875131" opacity="1.000000" style="stroke:black;fill:url(#radialffffffffcc)"/>
<circle cx="407.064222" cy="163.588100" r="8.293004" opacity="1.000000" style="stroke:black;fill:url(#radialffffff666666)"/>
<circle cx="407.110388" cy="120.496246" r="8.305075" opacity="1.000000" style="stroke:black;fill:url(#radialffffff666666)"/>
<circle cx="397.726908" cy="378.222827" r="7.293212" opacity="1.000000" style="stroke:black;fill:url(#radialffffffffcc)"/>
<circle cx="458.340159" cy="64.858189" r="8.423594" opacity="1.000000" style="stroke:black;fill:url(#radialffffff666666)"/>
<circle cx="330.678057" cy="478.123969" r="8.449931" opacity="1.000000" style="stroke:black;fill:url(#radialffffff666666)"/>
<text x="335.478057" y="474.091969" fill="rgb(102,102,102)"  stroke="rgb(102,102,102)" stroke-width="1" font-size="16" ></text>
<text x="335.478057" y="474.091969" fill="rgb(102,102,102)"  stroke="rgb(102,102,102)" stroke-width="1" font-size="32" >.</text>
<circle cx="397.518074" cy="252.357884" r="8.451029" opacity="1.000000" style="stroke:black;fill:url(#radialffffff666666)"/>
<circle cx="396.053964" cy="293.697580" r="8.470782" opacity="1.000000" style="stroke:black;fill:url(#radialffffff666666)"/>
<circle cx="425.926917" cy="177.923945" r="3.513378" opacity="1.000000" style="stroke:black;fill:url(#radialffffffbfbfbf)"/>
<circle cx="48.546900" cy="433.233110" r="13.921617" opacity="1.000000" style="stroke:black;fill:url(#radialffffff7c7faf)"/>
<circle cx="438.061252" cy="97.690081" r="8.789026" opacity="1.000000" style="stroke:black;fill:url(#radialffffff666666)"/>
<circle cx="357.342545" cy="460.771046" r="7.694044" opacity="1.000000" style="stroke:black;fill:url(#radialffffffffcc)"/>
<circle cx="487.133200" cy="43.326321" r="8.874623" opacity="1.000000" style="stroke:black;fill:url(#radialffffff666666)"/>
<text x="491.933200" y="39.294321" fill="rgb(102,102,102)"  stroke="rgb(102,102,102)" stroke-width="1" font-size="16" ></text>
<text x="491.933200" y="39.294321" fill="rgb(102,102,102)"  stroke="rgb(102,102,102)" stroke-width="1" font-size="32" >.</text>
<circle cx="411.124086" cy="238.546756" r="3.620807" opacity="1.000000" style="stroke:black;fill:url(#radialffffffbfbfbf)"/>
<circle cx="406.514221" cy="307.415017" r="3.644531" opacity="1.000000" style="stroke:black;fill:url(#radialffffffbfbfbf)"/>
<circle cx="447.806762" cy="108.727750" r="9.609877" opacity="1.000000" style="stroke:black;fill:url(#radialffffff666666)"/>
<circle cx="496.531289" cy="54.476428" r="9.711934" opacity="1.000000" style="stroke:black;fill:url(#radialffffff666666)"/>
<circle cx="69.121705" cy="442.499883" r="8.493325" opacity="1.000000" style="stroke:black;fill:url(#radialffffffffcc)"/>
<circle cx="113.193563" cy="392.905366" r="8.512194" opacity="1.000000" style="stroke:black;fill:url(#radialffffffffcc)"/>
<circle cx="435.080079" cy="131.168498" r="4.018295" opacity="1.000000" style="stroke:black;fill:url(#radialffffffbfbfbf)"/>
<circle cx="516.133158" cy="40.000041" r="4.082752" opacity="1.000000" style="stroke:black;fill:url(#radialffffffbfbfbf)"/>
<circle cx="476.837431" cy="86.530624" r="10.086145" opacity="1.000000" style="stroke:black;fill:url(#radialffffff666666)"/>
<text x="481.637431" y="82.498624" fill="rgb(102,102,102)"  stroke="rgb(102,102,102)" stroke-width="1" font-size="16" ></text>
<text x="481.637431" y="82.498624" fill="rgb(102,102,102)"  stroke="rgb(102,102,102)" stroke-width="1" font-size="32" >.</text>
<circle cx="96.172373" cy="421.708231" r="10.133333" opacity="1.000000" style="stroke:black;fill:url(#radialffffff666666)"/>
<text x="100.972373" y="417.676231" fill="rgb(102,102,102)"  stroke="rgb(102,102,102)" stroke-width="1" font-size="16" ></text>
<text x="100.972373" y="417.676231" fill="rgb(102,102,102)"  stroke="rgb(102,102,102)" stroke-width="1" font-size="32" >.</text>
</svg>
</g>
</svg>
