<?xml version="1.0"?>
<svg version="1.1" id="topsvg"
xmlns="http://www.w3.org/2000/svg" xmlns:xlink="http://www.w3.org/1999/xlink"
xmlns:cml="http://www.xml-cml.org/schema" x="0" y="0" width="200px" height="200px" viewBox="0 0 100 100">
<title>FUNBEW_clean - Open Babel Depiction</title>
<defs>
<radialGradient id='radialffffff0ccff' cx='50%' cy='50%' r='50%' fx='30%' fy='30%'>
  <stop offset=' 0%' stop-color="rgb(255,255,255)"  stop-opacity='0.8'/>
  <stop offset='100%' stop-color="rgb(12,12,255)"  stop-opacity ='1.0'/>
</radialGradient>
<radialGradient id='radialffffff666666' cx='50%' cy='50%' r='50%' fx='30%' fy='30%'>
  <stop offset=' 0%' stop-color="rgb(255,255,255)"  stop-opacity='0.8'/>
  <stop offset='100%' stop-color="rgb(102,102,102)"  stop-opacity ='1.0'/>
</radialGradient>
<radialGradient id='radialffffff7c7faf' cx='50%' cy='50%' r='50%' fx='30%' fy='30%'>
  <stop offset=' 0%' stop-color="rgb(255,255,255)"  stop-opacity='0.8'/>
  <stop offset='100%' stop-color="rgb(124,127,175)"  stop-opacity ='1.0'/>
</radialGradient>
<radialGradient id='radialffffffa52828' cx='50%' cy='50%' r='50%' fx='30%' fy='30%'>
  <stop offset=' 0%' stop-color="rgb(255,255,255)"  stop-opacity='0.8'/>
  <stop offset='100%' stop-color="rgb(165,40,40)"  stop-opacity ='1.0'/>
</radialGradient>
<radialGradient id='radialffffffbfbfbf' cx='50%' cy='50%' r='50%' fx='30%' fy='30%'>
  <stop offset=' 0%' stop-color="rgb(255,255,255)"  stop-opacity='0.8'/>
  <stop offset='100%' stop-color="rgb(191,191,191)"  stop-opacity ='1.0'/>
</radialGradient>
<radialGradient id='radialffffffffcc' cx='50%' cy='50%' r='50%' fx='30%' fy='30%'>
  <stop offset=' 0%' stop-color="rgb(255,255,255)"  stop-opacity='0.8'/>
  <stop offset='100%' stop-color="rgb(255,12,12)"  stop-opacity ='1.0'/>
</radialGradient>
</defs>
<g transform="translate(0,0)">
<svg width="100" height="100" x="0" y="0" viewBox="0 0 380.705 473.106"
font-family="sans-serif" stroke="rgb(76,76,76)" stroke-width="2"  stroke-linecap="round">
<line x1="193.4" y1="198.0" x2="193.4" y2="241.4" stroke="rgb(76,76,76)"  stroke-width="2.0"/>
<line x1="187.4" y1="198.0" x2="187.4" y2="241.4" stroke="rgb(76,76,76)"  stroke-width="2.0"/>
<line x1="133.0" y1="321.8" x2="158.1" y2="307.3" stroke="rgb(76,76,76)"  stroke-width="2.0"/>
<line x1="129.7" y1="251.5" x2="155.6" y2="264.5" stroke="rgb(76,76,76)"  stroke-width="2.0"/>
<line x1="133.0" y1="117.6" x2="158.1" y2="132.1" stroke="rgb(76,76,76)"  stroke-width="2.0"/>
<line x1="129.7" y1="187.9" x2="155.6" y2="174.9" stroke="rgb(76,76,76)"  stroke-width="2.0"/>
<line x1="247.7" y1="321.8" x2="222.7" y2="307.3" stroke="rgb(76,76,76)"  stroke-width="2.0"/>
<line x1="251.1" y1="251.5" x2="225.1" y2="264.5" stroke="rgb(76,76,76)"  stroke-width="2.0"/>
<line x1="190.4" y1="328.2" x2="190.4" y2="388.8" stroke="rgb(76,76,76)"  stroke-width="2.0"/>
<line x1="190.4" y1="111.2" x2="190.4" y2="50.6" stroke="rgb(76,76,76)"  stroke-width="2.0"/>
<line x1="190.4" y1="50.6" x2="147.6" y2="40.0" stroke="rgb(76,76,76)"  stroke-width="2.0"/>
<line x1="190.4" y1="50.6" x2="233.1" y2="40.0" stroke="rgb(76,76,76)"  stroke-width="2.0"/>
<line x1="190.4" y1="388.8" x2="233.1" y2="399.4" stroke="rgb(76,76,76)"  stroke-width="2.0"/>
<line x1="190.4" y1="388.8" x2="147.6" y2="399.4" stroke="rgb(76,76,76)"  stroke-width="2.0"/>
<line x1="222.7" y1="132.1" x2="247.7" y2="117.6" stroke="rgb(76,76,76)"  stroke-width="2.0"/>
<line x1="225.1" y1="174.9" x2="251.1" y2="187.9" stroke="rgb(76,76,76)"  stroke-width="2.0"/>
<line x1="233.1" y1="399.4" x2="243.7" y2="433.1" stroke="rgb(76,76,76)"  stroke-width="2.0"/>
<line x1="147.6" y1="399.4" x2="137.0" y2="433.1" stroke="rgb(76,76,76)"  stroke-width="2.0"/>
<line x1="243.7" y1="430.1" x2="271.4" y2="430.1" stroke="rgb(76,76,76)"  stroke-width="2.0"/>
<line x1="243.7" y1="436.1" x2="271.4" y2="436.1" stroke="rgb(76,76,76)"  stroke-width="2.0"/>
<line x1="137.0" y1="436.1" x2="109.3" y2="436.1" stroke="rgb(76,76,76)"  stroke-width="2.0"/>
<line x1="137.0" y1="430.1" x2="109.3" y2="430.1" stroke="rgb(76,76,76)"  stroke-width="2.0"/>
<line x1="271.4" y1="433.1" x2="283.7" y2="397.0" stroke="rgb(76,76,76)"  stroke-width="2.0"/>
<line x1="109.3" y1="433.1" x2="97.0" y2="397.0" stroke="rgb(76,76,76)"  stroke-width="2.0"/>
<line x1="104.1" y1="67.6" x2="97.0" y2="42.4" stroke="rgb(76,76,76)"  stroke-width="2.0"/>
<line x1="276.6" y1="371.8" x2="283.7" y2="397.0" stroke="rgb(76,76,76)"  stroke-width="2.0"/>
<line x1="104.1" y1="371.8" x2="97.0" y2="397.0" stroke="rgb(76,76,76)"  stroke-width="2.0"/>
<line x1="276.6" y1="67.6" x2="283.7" y2="42.4" stroke="rgb(76,76,76)"  stroke-width="2.0"/>
<line x1="283.7" y1="394.0" x2="306.1" y2="394.1" stroke="rgb(76,76,76)"  stroke-width="2.0"/>
<line x1="283.7" y1="400.0" x2="306.1" y2="400.1" stroke="rgb(76,76,76)"  stroke-width="2.0"/>
<line x1="97.1" y1="400.0" x2="74.6" y2="400.1" stroke="rgb(76,76,76)"  stroke-width="2.0"/>
<line x1="97.0" y1="394.0" x2="74.6" y2="394.1" stroke="rgb(76,76,76)"  stroke-width="2.0"/>
<line x1="283.7" y1="39.4" x2="306.1" y2="39.3" stroke="rgb(76,76,76)"  stroke-width="2.0"/>
<line x1="283.7" y1="45.4" x2="306.1" y2="45.3" stroke="rgb(76,76,76)"  stroke-width="2.0"/>
<line x1="97.0" y1="45.4" x2="74.6" y2="45.3" stroke="rgb(76,76,76)"  stroke-width="2.0"/>
<line x1="97.1" y1="39.4" x2="74.6" y2="39.3" stroke="rgb(76,76,76)"  stroke-width="2.0"/>
<line x1="74.6" y1="397.1" x2="66.5" y2="371.9" stroke="rgb(76,76,76)"  stroke-width="2.0"/>
<line x1="74.6" y1="397.1" x2="63.8" y2="433.1" stroke="rgb(76,76,76)"  stroke-width="2.0"/>
<line x1="74.6" y1="42.3" x2="66.5" y2="67.5" stroke="rgb(76,76,76)"  stroke-width="2.0"/>
<line x1="306.1" y1="397.1" x2="314.2" y2="371.9" stroke="rgb(76,76,76)"  stroke-width="2.0"/>
<line x1="306.1" y1="397.1" x2="316.9" y2="433.1" stroke="rgb(76,76,76)"  stroke-width="2.0"/>
<line x1="306.1" y1="42.3" x2="314.2" y2="67.5" stroke="rgb(76,76,76)"  stroke-width="2.0"/>
<line x1="316.9" y1="433.1" x2="340.7" y2="433.1" stroke="rgb(76,76,76)"  stroke-width="2.0"/>
<line x1="63.8" y1="433.1" x2="40.0" y2="433.1" stroke="rgb(76,76,76)"  stroke-width="2.0"/>
<line x1="340.7" y1="436.1" x2="320.0" y2="436.1" stroke="rgb(76,76,76)"  stroke-width="2.0"/>
<line x1="340.7" y1="430.1" x2="320.0" y2="430.1" stroke="rgb(76,76,76)"  stroke-width="2.0"/>
<line x1="40.0" y1="433.1" x2="60.7" y2="433.1" stroke="rgb(76,76,76)"  stroke-width="2.0"/>
<line x1="60.7" y1="433.1" x2="119.3" y2="433.1" stroke="rgb(76,76,76)"  stroke-width="2.0"/>
<line x1="60.7" y1="436.1" x2="40.0" y2="436.1" stroke="rgb(76,76,76)"  stroke-width="2.0"/>
<line x1="60.7" y1="430.1" x2="40.0" y2="430.1" stroke="rgb(76,76,76)"  stroke-width="2.0"/>
<line x1="261.4" y1="433.1" x2="320.0" y2="433.1" stroke="rgb(76,76,76)"  stroke-width="2.0"/>
<line x1="320.0" y1="433.1" x2="340.7" y2="433.1" stroke="rgb(76,76,76)"  stroke-width="2.0"/>
<line x1="40.0" y1="433.1" x2="63.8" y2="433.1" stroke="rgb(76,76,76)"  stroke-width="2.0"/>
<line x1="340.7" y1="433.1" x2="316.9" y2="433.1" stroke="rgb(76,76,76)"  stroke-width="2.0"/>
<line x1="60.9" y1="432.2" x2="71.8" y2="396.3" stroke="rgb(76,76,76)"  stroke-width="2.0"/>
<line x1="66.7" y1="434.0" x2="77.5" y2="398.0" stroke="rgb(76,76,76)"  stroke-width="2.0"/>
<line x1="314.1" y1="434.0" x2="303.2" y2="398.0" stroke="rgb(76,76,76)"  stroke-width="2.0"/>
<line x1="319.8" y1="432.2" x2="308.9" y2="396.3" stroke="rgb(76,76,76)"  stroke-width="2.0"/>
<line x1="314.2" y1="371.9" x2="306.1" y2="397.1" stroke="rgb(76,76,76)"  stroke-width="2.0"/>
<line x1="66.5" y1="371.9" x2="74.6" y2="397.1" stroke="rgb(76,76,76)"  stroke-width="2.0"/>
<line x1="66.5" y1="67.5" x2="74.6" y2="42.3" stroke="rgb(76,76,76)"  stroke-width="2.0"/>
<line x1="314.2" y1="67.5" x2="306.1" y2="42.3" stroke="rgb(76,76,76)"  stroke-width="2.0"/>
<line x1="74.6" y1="39.3" x2="97.1" y2="39.4" stroke="rgb(76,76,76)"  stroke-width="2.0"/>
<line x1="74.6" y1="45.3" x2="97.0" y2="45.4" stroke="rgb(76,76,76)"  stroke-width="2.0"/>
<line x1="306.1" y1="397.1" x2="283.7" y2="397.0" stroke="rgb(76,76,76)"  stroke-width="2.0"/>
<line x1="74.6" y1="397.1" x2="97.0" y2="397.0" stroke="rgb(76,76,76)"  stroke-width="2.0"/>
<line x1="306.1" y1="45.3" x2="283.7" y2="45.4" stroke="rgb(76,76,76)"  stroke-width="2.0"/>
<line x1="306.1" y1="39.3" x2="283.7" y2="39.4" stroke="rgb(76,76,76)"  stroke-width="2.0"/>
<line x1="97.0" y1="42.4" x2="104.1" y2="67.6" stroke="rgb(76,76,76)"  stroke-width="2.0"/>
<line x1="283.7" y1="397.0" x2="276.6" y2="371.8" stroke="rgb(76,76,76)"  stroke-width="2.0"/>
<line x1="286.5" y1="398.0" x2="274.2" y2="434.1" stroke="rgb(76,76,76)"  stroke-width="2.0"/>
<line x1="280.8" y1="396.1" x2="268.5" y2="432.1" stroke="rgb(76,76,76)"  stroke-width="2.0"/>
<line x1="97.0" y1="397.0" x2="104.1" y2="371.8" stroke="rgb(76,76,76)"  stroke-width="2.0"/>
<line x1="99.9" y1="396.1" x2="112.2" y2="432.1" stroke="rgb(76,76,76)"  stroke-width="2.0"/>
<line x1="94.2" y1="398.0" x2="106.5" y2="434.1" stroke="rgb(76,76,76)"  stroke-width="2.0"/>
<line x1="283.7" y1="42.4" x2="276.6" y2="67.6" stroke="rgb(76,76,76)"  stroke-width="2.0"/>
<line x1="109.3" y1="433.1" x2="137.0" y2="433.1" stroke="rgb(76,76,76)"  stroke-width="2.0"/>
<line x1="271.4" y1="433.1" x2="243.7" y2="433.1" stroke="rgb(76,76,76)"  stroke-width="2.0"/>
<line x1="134.1" y1="432.2" x2="144.8" y2="398.5" stroke="rgb(76,76,76)"  stroke-width="2.0"/>
<line x1="139.9" y1="434.0" x2="150.5" y2="400.3" stroke="rgb(76,76,76)"  stroke-width="2.0"/>
<line x1="240.8" y1="434.0" x2="230.2" y2="400.3" stroke="rgb(76,76,76)"  stroke-width="2.0"/>
<line x1="246.6" y1="432.2" x2="235.9" y2="398.5" stroke="rgb(76,76,76)"  stroke-width="2.0"/>
<line x1="225.1" y1="174.9" x2="222.7" y2="132.1" stroke="rgb(76,76,76)"  stroke-width="2.0"/>
<line x1="218.8" y1="171.8" x2="216.8" y2="135.5" stroke="rgb(76,76,76)"  stroke-width="2.0" stroke-dasharray="5.0,5.0"/>
<line x1="222.7" y1="132.1" x2="190.4" y2="111.2" stroke="rgb(76,76,76)"  stroke-width="2.0"/>
<line x1="216.8" y1="135.5" x2="190.4" y2="118.4" stroke="rgb(76,76,76)"  stroke-width="2.0" stroke-dasharray="5.0,5.0"/>
<line x1="190.4" y1="111.2" x2="158.1" y2="132.1" stroke="rgb(76,76,76)"  stroke-width="2.0"/>
<line x1="190.4" y1="118.4" x2="163.9" y2="135.5" stroke="rgb(76,76,76)"  stroke-width="2.0" stroke-dasharray="5.0,5.0"/>
<line x1="158.1" y1="132.1" x2="155.6" y2="174.9" stroke="rgb(76,76,76)"  stroke-width="2.0"/>
<line x1="163.9" y1="135.5" x2="161.9" y2="171.8" stroke="rgb(76,76,76)"  stroke-width="2.0" stroke-dasharray="5.0,5.0"/>
<line x1="155.6" y1="174.9" x2="190.4" y2="198.0" stroke="rgb(76,76,76)"  stroke-width="2.0"/>
<line x1="161.9" y1="171.8" x2="190.4" y2="190.7" stroke="rgb(76,76,76)"  stroke-width="2.0" stroke-dasharray="5.0,5.0"/>
<line x1="190.4" y1="198.0" x2="225.1" y2="174.9" stroke="rgb(76,76,76)"  stroke-width="2.0"/>
<line x1="190.4" y1="190.7" x2="218.8" y2="171.8" stroke="rgb(76,76,76)"  stroke-width="2.0" stroke-dasharray="5.0,5.0"/>
<line x1="190.4" y1="328.2" x2="222.7" y2="307.3" stroke="rgb(76,76,76)"  stroke-width="2.0"/>
<line x1="190.4" y1="321.0" x2="216.8" y2="303.9" stroke="rgb(76,76,76)"  stroke-width="2.0" stroke-dasharray="5.0,5.0"/>
<line x1="222.7" y1="307.3" x2="225.1" y2="264.5" stroke="rgb(76,76,76)"  stroke-width="2.0"/>
<line x1="216.8" y1="303.9" x2="218.8" y2="267.6" stroke="rgb(76,76,76)"  stroke-width="2.0" stroke-dasharray="5.0,5.0"/>
<line x1="225.1" y1="264.5" x2="190.4" y2="241.4" stroke="rgb(76,76,76)"  stroke-width="2.0"/>
<line x1="218.8" y1="267.6" x2="190.4" y2="248.7" stroke="rgb(76,76,76)"  stroke-width="2.0" stroke-dasharray="5.0,5.0"/>
<line x1="190.4" y1="241.4" x2="155.6" y2="264.5" stroke="rgb(76,76,76)"  stroke-width="2.0"/>
<line x1="190.4" y1="248.7" x2="161.9" y2="267.6" stroke="rgb(76,76,76)"  stroke-width="2.0" stroke-dasharray="5.0,5.0"/>
<line x1="155.6" y1="264.5" x2="158.1" y2="307.3" stroke="rgb(76,76,76)"  stroke-width="2.0"/>
<line x1="161.9" y1="267.6" x2="163.9" y2="303.9" stroke="rgb(76,76,76)"  stroke-width="2.0" stroke-dasharray="5.0,5.0"/>
<line x1="158.1" y1="307.3" x2="190.4" y2="328.2" stroke="rgb(76,76,76)"  stroke-width="2.0"/>
<line x1="163.9" y1="303.9" x2="190.4" y2="321.0" stroke="rgb(76,76,76)"  stroke-width="2.0" stroke-dasharray="5.0,5.0"/>
<circle cx="190.352280" cy="198.018539" r="5.066667" opacity="1.000000" style="stroke:black;fill:url(#radialffffff666666)"/>
<circle cx="132.969309" cy="321.836647" r="2.066667" opacity="1.000000" style="stroke:black;fill:url(#radialffffffbfbfbf)"/>
<circle cx="129.650199" cy="251.498060" r="2.066667" opacity="1.000000" style="stroke:black;fill:url(#radialffffffbfbfbf)"/>
<circle cx="132.969309" cy="117.564511" r="2.066667" opacity="1.000000" style="stroke:black;fill:url(#radialffffffbfbfbf)"/>
<circle cx="129.650199" cy="187.903099" r="2.066667" opacity="1.000000" style="stroke:black;fill:url(#radialffffffbfbfbf)"/>
<circle cx="247.735251" cy="321.836647" r="2.066667" opacity="1.000000" style="stroke:black;fill:url(#radialffffffbfbfbf)"/>
<circle cx="251.054361" cy="251.498060" r="2.066667" opacity="1.000000" style="stroke:black;fill:url(#radialffffffbfbfbf)"/>
<circle cx="190.352280" cy="328.196143" r="4.733333" opacity="1.000000" style="stroke:black;fill:url(#radialffffff0ccff)"/>
<circle cx="190.352280" cy="111.205015" r="4.733333" opacity="1.000000" style="stroke:black;fill:url(#radialffffff0ccff)"/>
<circle cx="190.352280" cy="50.584933" r="8.133333" opacity="1.000000" style="stroke:black;fill:url(#radialffffff7c7faf)"/>
<circle cx="190.352280" cy="388.816225" r="8.133333" opacity="1.000000" style="stroke:black;fill:url(#radialffffff7c7faf)"/>
<circle cx="190.352280" cy="241.382620" r="5.066667" opacity="1.000000" style="stroke:black;fill:url(#radialffffff666666)"/>
<circle cx="225.117395" cy="264.473139" r="5.066667" opacity="1.000000" style="stroke:black;fill:url(#radialffffff666666)"/>
<circle cx="222.653726" cy="307.282364" r="5.066667" opacity="1.000000" style="stroke:black;fill:url(#radialffffff666666)"/>
<circle cx="155.587165" cy="174.928020" r="5.066667" opacity="1.000000" style="stroke:black;fill:url(#radialffffff666666)"/>
<circle cx="222.653726" cy="132.118794" r="5.066667" opacity="1.000000" style="stroke:black;fill:url(#radialffffff666666)"/>
<circle cx="225.117395" cy="174.928020" r="5.066667" opacity="1.000000" style="stroke:black;fill:url(#radialffffff666666)"/>
<circle cx="158.050834" cy="307.282364" r="5.066667" opacity="1.000000" style="stroke:black;fill:url(#radialffffff666666)"/>
<circle cx="155.587165" cy="264.473139" r="5.066667" opacity="1.000000" style="stroke:black;fill:url(#radialffffff666666)"/>
<circle cx="158.050834" cy="132.118794" r="5.066667" opacity="1.000000" style="stroke:black;fill:url(#radialffffff666666)"/>
<circle cx="247.735251" cy="117.564511" r="2.066667" opacity="1.000000" style="stroke:black;fill:url(#radialffffffbfbfbf)"/>
<circle cx="251.054361" cy="187.903099" r="2.066667" opacity="1.000000" style="stroke:black;fill:url(#radialffffffbfbfbf)"/>
<circle cx="147.648674" cy="40.000000" r="4.400000" opacity="1.000000" style="stroke:black;fill:url(#radialffffffffcc)"/>
<text x="152.448674" y="35.968000" fill="rgb(255,12,12)"  stroke="rgb(255,12,12)" stroke-width="1" font-size="16" ></text>
<text x="152.448674" y="35.968000" fill="rgb(255,12,12)"  stroke="rgb(255,12,12)" stroke-width="1" font-size="32" >.</text>
<circle cx="233.055886" cy="40.000000" r="4.400000" opacity="1.000000" style="stroke:black;fill:url(#radialffffffffcc)"/>
<text x="237.855886" y="35.968000" fill="rgb(255,12,12)"  stroke="rgb(255,12,12)" stroke-width="1" font-size="16" ></text>
<text x="237.855886" y="35.968000" fill="rgb(255,12,12)"  stroke="rgb(255,12,12)" stroke-width="1" font-size="32" >.</text>
<circle cx="233.055886" cy="399.401158" r="4.400000" opacity="1.000000" style="stroke:black;fill:url(#radialffffffffcc)"/>
<circle cx="147.648674" cy="399.401158" r="4.400000" opacity="1.000000" style="stroke:black;fill:url(#radialffffffffcc)"/>
<circle cx="243.697570" cy="433.106488" r="5.066667" opacity="1.000000" style="stroke:black;fill:url(#radialffffff666666)"/>
<text x="248.497570" y="429.074488" fill="rgb(102,102,102)"  stroke="rgb(102,102,102)" stroke-width="1" font-size="16" ></text>
<text x="248.497570" y="429.074488" fill="rgb(102,102,102)"  stroke="rgb(102,102,102)" stroke-width="1" font-size="32" >.</text>
<circle cx="137.006990" cy="433.106488" r="5.066667" opacity="1.000000" style="stroke:black;fill:url(#radialffffff666666)"/>
<text x="141.806990" y="429.074488" fill="rgb(102,102,102)"  stroke="rgb(102,102,102)" stroke-width="1" font-size="16" ></text>
<text x="141.806990" y="429.074488" fill="rgb(102,102,102)"  stroke="rgb(102,102,102)" stroke-width="1" font-size="32" >.</text>
<circle cx="271.379635" cy="433.106488" r="5.066667" opacity="1.000000" style="stroke:black;fill:url(#radialffffff666666)"/>
<text x="276.179635" y="429.074488" fill="rgb(102,102,102)"  stroke="rgb(102,102,102)" stroke-width="1" font-size="16" ></text>
<text x="276.179635" y="429.074488" fill="rgb(102,102,102)"  stroke="rgb(102,102,102)" stroke-width="1" font-size="32" >.</text>
<circle cx="109.324925" cy="433.106488" r="5.066667" opacity="1.000000" style="stroke:black;fill:url(#radialffffff666666)"/>
<text x="114.124925" y="429.074488" fill="rgb(102,102,102)"  stroke="rgb(102,102,102)" stroke-width="1" font-size="16" ></text>
<text x="114.124925" y="429.074488" fill="rgb(102,102,102)"  stroke="rgb(102,102,102)" stroke-width="1" font-size="32" >.</text>
<circle cx="104.089627" cy="67.584848" r="2.066667" opacity="1.000000" style="stroke:black;fill:url(#radialffffffbfbfbf)"/>
<circle cx="276.614933" cy="371.816311" r="2.066667" opacity="1.000000" style="stroke:black;fill:url(#radialffffffbfbfbf)"/>
<circle cx="104.089627" cy="371.816311" r="2.066667" opacity="1.000000" style="stroke:black;fill:url(#radialffffffbfbfbf)"/>
<circle cx="276.614933" cy="67.584848" r="2.066667" opacity="1.000000" style="stroke:black;fill:url(#radialffffffbfbfbf)"/>
<circle cx="283.663766" cy="397.040889" r="5.066667" opacity="1.000000" style="stroke:black;fill:url(#radialffffff666666)"/>
<circle cx="97.040794" cy="397.040889" r="5.066667" opacity="1.000000" style="stroke:black;fill:url(#radialffffff666666)"/>
<circle cx="283.663766" cy="42.360269" r="5.066667" opacity="1.000000" style="stroke:black;fill:url(#radialffffff666666)"/>
<text x="288.463766" y="38.328269" fill="rgb(102,102,102)"  stroke="rgb(102,102,102)" stroke-width="1" font-size="16" ></text>
<text x="288.463766" y="38.328269" fill="rgb(102,102,102)"  stroke="rgb(102,102,102)" stroke-width="1" font-size="32" >.</text>
<circle cx="97.040794" cy="42.360269" r="5.066667" opacity="1.000000" style="stroke:black;fill:url(#radialffffff666666)"/>
<text x="101.840794" y="38.328269" fill="rgb(102,102,102)"  stroke="rgb(102,102,102)" stroke-width="1" font-size="16" ></text>
<text x="101.840794" y="38.328269" fill="rgb(102,102,102)"  stroke="rgb(102,102,102)" stroke-width="1" font-size="32" >.</text>
<circle cx="74.628245" cy="397.126252" r="5.066667" opacity="1.000000" style="stroke:black;fill:url(#radialffffff666666)"/>
<circle cx="74.628245" cy="42.274907" r="5.066667" opacity="1.000000" style="stroke:black;fill:url(#radialffffff666666)"/>
<text x="79.428245" y="38.242907" fill="rgb(102,102,102)"  stroke="rgb(102,102,102)" stroke-width="1" font-size="16" ></text>
<text x="79.428245" y="38.242907" fill="rgb(102,102,102)"  stroke="rgb(102,102,102)" stroke-width="1" font-size="32" >.</text>
<circle cx="306.076315" cy="397.126252" r="5.066667" opacity="1.000000" style="stroke:black;fill:url(#radialffffff666666)"/>
<circle cx="306.076315" cy="42.274907" r="5.066667" opacity="1.000000" style="stroke:black;fill:url(#radialffffff666666)"/>
<text x="310.876315" y="38.242907" fill="rgb(102,102,102)"  stroke="rgb(102,102,102)" stroke-width="1" font-size="16" ></text>
<text x="310.876315" y="38.242907" fill="rgb(102,102,102)"  stroke="rgb(102,102,102)" stroke-width="1" font-size="32" >.</text>
<circle cx="314.220112" cy="67.499485" r="2.066667" opacity="1.000000" style="stroke:black;fill:url(#radialffffffbfbfbf)"/>
<circle cx="66.484448" cy="371.901673" r="2.066667" opacity="1.000000" style="stroke:black;fill:url(#radialffffffbfbfbf)"/>
<circle cx="66.484448" cy="67.499485" r="2.066667" opacity="1.000000" style="stroke:black;fill:url(#radialffffffbfbfbf)"/>
<circle cx="314.220112" cy="371.901673" r="2.066667" opacity="1.000000" style="stroke:black;fill:url(#radialffffffbfbfbf)"/>
<circle cx="316.923305" cy="433.106488" r="5.066667" opacity="1.000000" style="stroke:black;fill:url(#radialffffff666666)"/>
<text x="321.723305" y="429.074488" fill="rgb(102,102,102)"  stroke="rgb(102,102,102)" stroke-width="1" font-size="16" ></text>
<text x="321.723305" y="429.074488" fill="rgb(102,102,102)"  stroke="rgb(102,102,102)" stroke-width="1" font-size="32" >..</text>
<circle cx="63.781255" cy="433.106488" r="5.066667" opacity="1.000000" style="stroke:black;fill:url(#radialffffff666666)"/>
<text x="68.581255" y="429.074488" fill="rgb(102,102,102)"  stroke="rgb(102,102,102)" stroke-width="1" font-size="16" ></text>
<text x="68.581255" y="429.074488" fill="rgb(102,102,102)"  stroke="rgb(102,102,102)" stroke-width="1" font-size="32" >..</text>
<circle cx="340.704560" cy="433.106488" r="5.066667" opacity="1.000000" style="stroke:black;fill:url(#radialffffff666666)"/>
<text x="345.504560" y="429.074488" fill="rgb(102,102,102)"  stroke="rgb(102,102,102)" stroke-width="1" font-size="16" ></text>
<text x="345.504560" y="429.074488" fill="rgb(102,102,102)"  stroke="rgb(102,102,102)" stroke-width="1" font-size="32" >.</text>
<circle cx="40.000000" cy="433.106488" r="5.066667" opacity="1.000000" style="stroke:black;fill:url(#radialffffff666666)"/>
<text x="44.800000" y="429.074488" fill="rgb(102,102,102)"  stroke="rgb(102,102,102)" stroke-width="1" font-size="16" ></text>
<text x="44.800000" y="429.074488" fill="rgb(102,102,102)"  stroke="rgb(102,102,102)" stroke-width="1" font-size="32" >..</text>
<circle cx="60.735886" cy="433.106488" r="5.564708" opacity="1.000000" style="stroke:black;fill:url(#radialffffff666666)"/>
<circle cx="261.370978" cy="433.106488" r="8.786381" opacity="1.000000" style="stroke:black;fill:url(#radialffffffa52828)"/>
<circle cx="319.968674" cy="433.106488" r="5.564708" opacity="1.000000" style="stroke:black;fill:url(#radialffffff666666)"/>
<circle cx="119.333582" cy="433.106488" r="8.786381" opacity="1.000000" style="stroke:black;fill:url(#radialffffffa52828)"/>
<circle cx="40.000000" cy="433.106488" r="6.425012" opacity="1.000000" style="stroke:black;fill:url(#radialffffff666666)"/>
<text x="44.800000" y="429.074488" fill="rgb(102,102,102)"  stroke="rgb(102,102,102)" stroke-width="1" font-size="16" ></text>
<text x="44.800000" y="429.074488" fill="rgb(102,102,102)"  stroke="rgb(102,102,102)" stroke-width="1" font-size="32" >.</text>
<circle cx="340.704560" cy="433.106488" r="6.425012" opacity="1.000000" style="stroke:black;fill:url(#radialffffff666666)"/>
<text x="345.504560" y="429.074488" fill="rgb(102,102,102)"  stroke="rgb(102,102,102)" stroke-width="1" font-size="16" ></text>
<text x="345.504560" y="429.074488" fill="rgb(102,102,102)"  stroke="rgb(102,102,102)" stroke-width="1" font-size="32" >..</text>
<circle cx="63.781255" cy="433.106488" r="7.327608" opacity="1.000000" style="stroke:black;fill:url(#radialffffff666666)"/>
<text x="68.581255" y="429.074488" fill="rgb(102,102,102)"  stroke="rgb(102,102,102)" stroke-width="1" font-size="16" ></text>
<text x="68.581255" y="429.074488" fill="rgb(102,102,102)"  stroke="rgb(102,102,102)" stroke-width="1" font-size="32" >.</text>
<circle cx="316.923305" cy="433.106488" r="7.327608" opacity="1.000000" style="stroke:black;fill:url(#radialffffff666666)"/>
<text x="321.723305" y="429.074488" fill="rgb(102,102,102)"  stroke="rgb(102,102,102)" stroke-width="1" font-size="16" ></text>
<text x="321.723305" y="429.074488" fill="rgb(102,102,102)"  stroke="rgb(102,102,102)" stroke-width="1" font-size="32" >.</text>
<circle cx="314.220112" cy="371.901673" r="3.052447" opacity="1.000000" style="stroke:black;fill:url(#radialffffffbfbfbf)"/>
<circle cx="66.484448" cy="371.901673" r="3.052447" opacity="1.000000" style="stroke:black;fill:url(#radialffffffbfbfbf)"/>
<circle cx="66.484448" cy="67.499485" r="3.052447" opacity="1.000000" style="stroke:black;fill:url(#radialffffffbfbfbf)"/>
<circle cx="314.220112" cy="67.499485" r="3.052447" opacity="1.000000" style="stroke:black;fill:url(#radialffffffbfbfbf)"/>
<circle cx="74.628245" cy="42.274907" r="7.756090" opacity="1.000000" style="stroke:black;fill:url(#radialffffff666666)"/>
<text x="79.428245" y="38.242907" fill="rgb(102,102,102)"  stroke="rgb(102,102,102)" stroke-width="1" font-size="16" ></text>
<text x="79.428245" y="38.242907" fill="rgb(102,102,102)"  stroke="rgb(102,102,102)" stroke-width="1" font-size="32" >.</text>
<circle cx="306.076315" cy="397.126252" r="7.756090" opacity="1.000000" style="stroke:black;fill:url(#radialffffff666666)"/>
<circle cx="74.628245" cy="397.126252" r="7.756090" opacity="1.000000" style="stroke:black;fill:url(#radialffffff666666)"/>
<circle cx="306.076315" cy="42.274907" r="7.756090" opacity="1.000000" style="stroke:black;fill:url(#radialffffff666666)"/>
<text x="310.876315" y="38.242907" fill="rgb(102,102,102)"  stroke="rgb(102,102,102)" stroke-width="1" font-size="16" ></text>
<text x="310.876315" y="38.242907" fill="rgb(102,102,102)"  stroke="rgb(102,102,102)" stroke-width="1" font-size="32" >.</text>
<circle cx="97.040794" cy="42.360269" r="8.571876" opacity="1.000000" style="stroke:black;fill:url(#radialffffff666666)"/>
<text x="101.840794" y="38.328269" fill="rgb(102,102,102)"  stroke="rgb(102,102,102)" stroke-width="1" font-size="16" ></text>
<text x="101.840794" y="38.328269" fill="rgb(102,102,102)"  stroke="rgb(102,102,102)" stroke-width="1" font-size="32" >.</text>
<circle cx="283.663766" cy="397.040889" r="8.571876" opacity="1.000000" style="stroke:black;fill:url(#radialffffff666666)"/>
<circle cx="97.040794" cy="397.040889" r="8.571876" opacity="1.000000" style="stroke:black;fill:url(#radialffffff666666)"/>
<circle cx="283.663766" cy="42.360269" r="8.571876" opacity="1.000000" style="stroke:black;fill:url(#radialffffff666666)"/>
<text x="288.463766" y="38.328269" fill="rgb(102,102,102)"  stroke="rgb(102,102,102)" stroke-width="1" font-size="16" ></text>
<text x="288.463766" y="38.328269" fill="rgb(102,102,102)"  stroke="rgb(102,102,102)" stroke-width="1" font-size="32" >.</text>
<circle cx="104.089627" cy="67.584848" r="3.614000" opacity="1.000000" style="stroke:black;fill:url(#radialffffffbfbfbf)"/>
<circle cx="276.614933" cy="371.816311" r="3.614000" opacity="1.000000" style="stroke:black;fill:url(#radialffffffbfbfbf)"/>
<circle cx="104.089627" cy="371.816311" r="3.614000" opacity="1.000000" style="stroke:black;fill:url(#radialffffffbfbfbf)"/>
<circle cx="276.614933" cy="67.584848" r="3.614000" opacity="1.000000" style="stroke:black;fill:url(#radialffffffbfbfbf)"/>
<circle cx="109.324925" cy="433.106488" r="8.973648" opacity="1.000000" style="stroke:black;fill:url(#radialffffff666666)"/>
<text x="114.124925" y="429.074488" fill="rgb(102,102,102)"  stroke="rgb(102,102,102)" stroke-width="1" font-size="16" ></text>
<text x="114.124925" y="429.074488" fill="rgb(102,102,102)"  stroke="rgb(102,102,102)" stroke-width="1" font-size="32" >.</text>
<circle cx="271.379635" cy="433.106488" r="8.973648" opacity="1.000000" style="stroke:black;fill:url(#radialffffff666666)"/>
<text x="276.179635" y="429.074488" fill="rgb(102,102,102)"  stroke="rgb(102,102,102)" stroke-width="1" font-size="16" ></text>
<text x="276.179635" y="429.074488" fill="rgb(102,102,102)"  stroke="rgb(102,102,102)" stroke-width="1" font-size="32" >.</text>
<circle cx="137.006990" cy="433.106488" r="9.828387" opacity="1.000000" style="stroke:black;fill:url(#radialffffff666666)"/>
<text x="141.806990" y="429.074488" fill="rgb(102,102,102)"  stroke="rgb(102,102,102)" stroke-width="1" font-size="16" ></text>
<text x="141.806990" y="429.074488" fill="rgb(102,102,102)"  stroke="rgb(102,102,102)" stroke-width="1" font-size="32" >.</text>
<circle cx="243.697570" cy="433.106488" r="9.828387" opacity="1.000000" style="stroke:black;fill:url(#radialffffff666666)"/>
<text x="248.497570" y="429.074488" fill="rgb(102,102,102)"  stroke="rgb(102,102,102)" stroke-width="1" font-size="16" ></text>
<text x="248.497570" y="429.074488" fill="rgb(102,102,102)"  stroke="rgb(102,102,102)" stroke-width="1" font-size="32" >.</text>
<circle cx="233.055886" cy="40.000000" r="8.800000" opacity="1.000000" style="stroke:black;fill:url(#radialffffffffcc)"/>
<text x="237.855886" y="35.968000" fill="rgb(255,12,12)"  stroke="rgb(255,12,12)" stroke-width="1" font-size="16" ></text>
<text x="237.855886" y="35.968000" fill="rgb(255,12,12)"  stroke="rgb(255,12,12)" stroke-width="1" font-size="32" >..</text>
<circle cx="147.648674" cy="399.401158" r="8.800000" opacity="1.000000" style="stroke:black;fill:url(#radialffffffffcc)"/>
<circle cx="233.055886" cy="399.401158" r="8.800000" opacity="1.000000" style="stroke:black;fill:url(#radialffffffffcc)"/>
<circle cx="147.648674" cy="40.000000" r="8.800000" opacity="1.000000" style="stroke:black;fill:url(#radialffffffffcc)"/>
<text x="152.448674" y="35.968000" fill="rgb(255,12,12)"  stroke="rgb(255,12,12)" stroke-width="1" font-size="16" ></text>
<text x="152.448674" y="35.968000" fill="rgb(255,12,12)"  stroke="rgb(255,12,12)" stroke-width="1" font-size="32" >..</text>
</svg>
</g>
</svg>
