<?xml version="1.0"?>
<svg version="1.1" id="topsvg"
xmlns="http://www.w3.org/2000/svg" xmlns:xlink="http://www.w3.org/1999/xlink"
xmlns:cml="http://www.xml-cml.org/schema" x="0" y="0" width="200px" height="200px" viewBox="0 0 100 100">
<title>LECGIL_clean - Open Babel Depiction</title>
<defs>
<radialGradient id='radialffffff0ccff' cx='50%' cy='50%' r='50%' fx='30%' fy='30%'>
  <stop offset=' 0%' stop-color="rgb(255,255,255)"  stop-opacity='0.8'/>
  <stop offset='100%' stop-color="rgb(12,12,255)"  stop-opacity ='1.0'/>
</radialGradient>
<radialGradient id='radialffffff666666' cx='50%' cy='50%' r='50%' fx='30%' fy='30%'>
  <stop offset=' 0%' stop-color="rgb(255,255,255)"  stop-opacity='0.8'/>
  <stop offset='100%' stop-color="rgb(102,102,102)"  stop-opacity ='1.0'/>
</radialGradient>
<radialGradient id='radialffffffbfbfbf' cx='50%' cy='50%' r='50%' fx='30%' fy='30%'>
  <stop offset=' 0%' stop-color="rgb(255,255,255)"  stop-opacity='0.8'/>
  <stop offset='100%' stop-color="rgb(191,191,191)"  stop-opacity ='1.0'/>
</radialGradient>
<radialGradient id='radialffffffc67f33' cx='50%' cy='50%' r='50%' fx='30%' fy='30%'>
  <stop offset=' 0%' stop-color="rgb(255,255,255)"  stop-opacity='0.8'/>
  <stop offset='100%' stop-color="rgb(198,127,51)"  stop-opacity ='1.0'/>
</radialGradient>
<radialGradient id='radialffffffffcc' cx='50%' cy='50%' r='50%' fx='30%' fy='30%'>
  <stop offset=' 0%' stop-color="rgb(255,255,255)"  stop-opacity='0.8'/>
  <stop offset='100%' stop-color="rgb(255,12,12)"  stop-opacity ='1.0'/>
</radialGradient>
</defs>
<g transform="translate(0,0)">
<svg width="100" height="100" x="0" y="0" viewBox="0 0 782.995 588.753"
font-family="sans-serif" stroke="rgb(76,76,76)" stroke-width="2"  stroke-linecap="round">
<line x1="342.2" y1="336.0" x2="344.2" y2="389.2" stroke="rgb(76,76,76)"  stroke-width="2.0"/>
<line x1="342.2" y1="336.0" x2="312.4" y2="324.7" stroke="rgb(76,76,76)"  stroke-width="2.0"/>
<line x1="444.4" y1="495.5" x2="462.3" y2="464.9" stroke="rgb(76,76,76)"  stroke-width="2.0"/>
<line x1="449.6" y1="498.6" x2="467.5" y2="467.9" stroke="rgb(76,76,76)"  stroke-width="2.0"/>
<line x1="441.7" y1="436.0" x2="447.3" y2="410.3" stroke="rgb(76,76,76)"  stroke-width="2.0"/>
<line x1="441.7" y1="436.0" x2="464.9" y2="466.4" stroke="rgb(76,76,76)"  stroke-width="2.0"/>
<line x1="187.2" y1="506.7" x2="184.4" y2="507.4" stroke="rgb(76,76,76)"  stroke-width="2.0"/>
<line x1="464.9" y1="466.4" x2="489.1" y2="465.4" stroke="rgb(76,76,76)"  stroke-width="2.0"/>
<line x1="344.2" y1="389.2" x2="367.6" y2="390.2" stroke="rgb(76,76,76)"  stroke-width="2.0"/>
<line x1="314.9" y1="515.4" x2="311.8" y2="541.5" stroke="rgb(76,76,76)"  stroke-width="2.0"/>
<line x1="328.0" y1="247.9" x2="307.7" y2="290.6" stroke="rgb(76,76,76)"  stroke-width="2.0"/>
<line x1="309.9" y1="455.2" x2="305.2" y2="403.4" stroke="rgb(76,76,76)"  stroke-width="2.0"/>
<line x1="299.1" y1="488.4" x2="283.2" y2="491.6" stroke="rgb(76,76,76)"  stroke-width="2.0"/>
<line x1="210.9" y1="459.1" x2="197.6" y2="481.3" stroke="rgb(76,76,76)"  stroke-width="2.0"/>
<line x1="305.2" y1="403.4" x2="298.6" y2="350.0" stroke="rgb(76,76,76)"  stroke-width="2.0"/>
<line x1="305.2" y1="403.4" x2="281.7" y2="419.8" stroke="rgb(76,76,76)"  stroke-width="2.0"/>
<line x1="661.3" y1="116.6" x2="641.5" y2="106.2" stroke="rgb(76,76,76)"  stroke-width="2.0"/>
<line x1="641.5" y1="106.2" x2="664.2" y2="108.9" stroke="rgb(76,76,76)"  stroke-width="2.0"/>
<line x1="289.7" y1="295.0" x2="281.5" y2="275.4" stroke="rgb(76,76,76)"  stroke-width="2.0"/>
<line x1="187.9" y1="493.6" x2="190.0" y2="467.3" stroke="rgb(76,76,76)"  stroke-width="2.0"/>
<line x1="284.7" y1="332.1" x2="273.5" y2="343.1" stroke="rgb(76,76,76)"  stroke-width="2.0"/>
<line x1="355.8" y1="233.7" x2="365.4" y2="258.0" stroke="rgb(76,76,76)"  stroke-width="2.0"/>
<line x1="664.2" y1="108.9" x2="657.3" y2="102.9" stroke="rgb(76,76,76)"  stroke-width="2.0"/>
<line x1="321.8" y1="124.9" x2="297.0" y2="146.1" stroke="rgb(76,76,76)"  stroke-width="2.0"/>
<line x1="355.7" y1="204.6" x2="365.7" y2="204.4" stroke="rgb(76,76,76)"  stroke-width="2.0"/>
<line x1="239.2" y1="444.3" x2="190.0" y2="467.3" stroke="rgb(76,76,76)"  stroke-width="2.0"/>
<line x1="296.9" y1="426.9" x2="321.7" y2="421.7" stroke="rgb(76,76,76)"  stroke-width="2.0"/>
<line x1="269.0" y1="443.4" x2="270.5" y2="452.4" stroke="rgb(76,76,76)"  stroke-width="2.0"/>
<line x1="274.0" y1="198.8" x2="277.4" y2="178.0" stroke="rgb(76,76,76)"  stroke-width="2.0"/>
<line x1="299.5" y1="147.7" x2="280.0" y2="179.5" stroke="rgb(76,76,76)"  stroke-width="2.0"/>
<line x1="294.4" y1="144.5" x2="274.9" y2="176.4" stroke="rgb(76,76,76)"  stroke-width="2.0"/>
<line x1="186.5" y1="440.2" x2="197.1" y2="407.5" stroke="rgb(76,76,76)"  stroke-width="2.0"/>
<line x1="212.0" y1="389.6" x2="197.1" y2="407.5" stroke="rgb(76,76,76)"  stroke-width="2.0"/>
<line x1="723.9" y1="124.5" x2="702.9" y2="141.3" stroke="rgb(76,76,76)"  stroke-width="2.0"/>
<line x1="692.3" y1="174.0" x2="677.4" y2="191.8" stroke="rgb(76,76,76)"  stroke-width="2.0"/>
<line x1="692.3" y1="174.0" x2="702.9" y2="141.3" stroke="rgb(76,76,76)"  stroke-width="2.0"/>
<line x1="702.9" y1="141.3" x2="699.4" y2="114.2" stroke="rgb(76,76,76)"  stroke-width="2.0"/>
<line x1="614.5" y1="405.1" x2="595.0" y2="436.9" stroke="rgb(76,76,76)"  stroke-width="2.0"/>
<line x1="609.4" y1="401.9" x2="589.9" y2="433.8" stroke="rgb(76,76,76)"  stroke-width="2.0"/>
<line x1="612.0" y1="403.5" x2="615.4" y2="382.6" stroke="rgb(76,76,76)"  stroke-width="2.0"/>
<line x1="618.9" y1="129.0" x2="620.4" y2="138.0" stroke="rgb(76,76,76)"  stroke-width="2.0"/>
<line x1="592.4" y1="435.4" x2="567.6" y2="456.6" stroke="rgb(76,76,76)"  stroke-width="2.0"/>
<line x1="743.0" y1="82.3" x2="699.4" y2="114.2" stroke="rgb(76,76,76)"  stroke-width="2.0"/>
<line x1="523.7" y1="377.0" x2="533.7" y2="376.9" stroke="rgb(76,76,76)"  stroke-width="2.0"/>
<line x1="567.7" y1="159.8" x2="592.5" y2="154.5" stroke="rgb(76,76,76)"  stroke-width="2.0"/>
<line x1="699.4" y1="114.2" x2="650.2" y2="137.2" stroke="rgb(76,76,76)"  stroke-width="2.0"/>
<line x1="699.4" y1="114.2" x2="701.5" y2="87.9" stroke="rgb(76,76,76)"  stroke-width="2.0"/>
<line x1="232.1" y1="478.6" x2="225.2" y2="472.6" stroke="rgb(76,76,76)"  stroke-width="2.0"/>
<line x1="615.9" y1="238.4" x2="604.7" y2="249.3" stroke="rgb(76,76,76)"  stroke-width="2.0"/>
<line x1="524.0" y1="323.5" x2="533.6" y2="347.8" stroke="rgb(76,76,76)"  stroke-width="2.0"/>
<line x1="225.2" y1="472.6" x2="247.9" y2="475.2" stroke="rgb(76,76,76)"  stroke-width="2.0"/>
<line x1="607.9" y1="306.1" x2="599.7" y2="286.4" stroke="rgb(76,76,76)"  stroke-width="2.0"/>
<line x1="607.7" y1="161.7" x2="584.2" y2="178.1" stroke="rgb(76,76,76)"  stroke-width="2.0"/>
<line x1="247.9" y1="475.2" x2="228.1" y2="464.9" stroke="rgb(76,76,76)"  stroke-width="2.0"/>
<line x1="606.2" y1="89.9" x2="590.3" y2="93.1" stroke="rgb(76,76,76)"  stroke-width="2.0"/>
<line x1="590.8" y1="231.5" x2="584.2" y2="178.1" stroke="rgb(76,76,76)"  stroke-width="2.0"/>
<line x1="691.8" y1="100.2" x2="678.5" y2="122.4" stroke="rgb(76,76,76)"  stroke-width="2.0"/>
<line x1="581.7" y1="290.9" x2="561.4" y2="333.5" stroke="rgb(76,76,76)"  stroke-width="2.0"/>
<line x1="584.2" y1="178.1" x2="579.5" y2="126.2" stroke="rgb(76,76,76)"  stroke-width="2.0"/>
<line x1="584.2" y1="178.1" x2="545.2" y2="192.3" stroke="rgb(76,76,76)"  stroke-width="2.0"/>
<line x1="705.0" y1="74.0" x2="702.2" y2="74.8" stroke="rgb(76,76,76)"  stroke-width="2.0"/>
<line x1="577.6" y1="40.0" x2="574.5" y2="66.1" stroke="rgb(76,76,76)"  stroke-width="2.0"/>
<line x1="521.8" y1="191.2" x2="545.2" y2="192.3" stroke="rgb(76,76,76)"  stroke-width="2.0"/>
<line x1="400.3" y1="116.1" x2="424.5" y2="115.0" stroke="rgb(76,76,76)"  stroke-width="2.0"/>
<line x1="424.5" y1="115.0" x2="447.7" y2="145.5" stroke="rgb(76,76,76)"  stroke-width="2.0"/>
<line x1="421.9" y1="113.5" x2="439.8" y2="82.9" stroke="rgb(76,76,76)"  stroke-width="2.0"/>
<line x1="427.1" y1="116.6" x2="445.0" y2="85.9" stroke="rgb(76,76,76)"  stroke-width="2.0"/>
<line x1="442.1" y1="171.2" x2="447.7" y2="145.5" stroke="rgb(76,76,76)"  stroke-width="2.0"/>
<line x1="336.1" y1="499.8" x2="331.7" y2="463.2" stroke="rgb(76,76,76)"  stroke-width="2.0"/>
<line x1="329.6" y1="497.0" x2="326.1" y2="467.7" stroke="rgb(76,76,76)"  stroke-width="2.0" stroke-dasharray="5.0,5.0"/>
<line x1="331.7" y1="463.2" x2="309.9" y2="455.2" stroke="rgb(76,76,76)"  stroke-width="2.0"/>
<line x1="326.1" y1="467.7" x2="313.7" y2="463.1" stroke="rgb(76,76,76)"  stroke-width="2.0" stroke-dasharray="5.0,5.0"/>
<line x1="309.9" y1="455.2" x2="299.1" y2="488.4" stroke="rgb(76,76,76)"  stroke-width="2.0"/>
<line x1="313.7" y1="463.1" x2="305.7" y2="487.7" stroke="rgb(76,76,76)"  stroke-width="2.0" stroke-dasharray="5.0,5.0"/>
<line x1="299.1" y1="488.4" x2="314.9" y2="515.4" stroke="rgb(76,76,76)"  stroke-width="2.0"/>
<line x1="305.7" y1="487.7" x2="316.7" y2="506.5" stroke="rgb(76,76,76)"  stroke-width="2.0" stroke-dasharray="5.0,5.0"/>
<line x1="314.9" y1="515.4" x2="336.1" y2="499.8" stroke="rgb(76,76,76)"  stroke-width="2.0"/>
<line x1="316.7" y1="506.5" x2="329.6" y2="497.0" stroke="rgb(76,76,76)"  stroke-width="2.0" stroke-dasharray="5.0,5.0"/>
<line x1="184.4" y1="507.4" x2="166.7" y2="534.4" stroke="rgb(76,76,76)"  stroke-width="2.0"/>
<line x1="179.1" y1="504.4" x2="184.3" y2="496.4" stroke="rgb(76,76,76)"  stroke-width="2.0" stroke-dasharray="5.0,5.0"/>
<line x1="166.7" y1="534.4" x2="169.5" y2="525.0" stroke="rgb(76,76,76)"  stroke-width="2.0"/>
<line x1="184.2" y1="496.7" x2="175.1" y2="527.2" stroke="rgb(76,76,76)"  stroke-width="2.0" stroke-dasharray="5.0,5.0"/>
<line x1="169.5" y1="525.0" x2="187.9" y2="493.6" stroke="rgb(76,76,76)"  stroke-width="2.0"/>
<line x1="175.2" y1="527.2" x2="192.9" y2="497.1" stroke="rgb(76,76,76)"  stroke-width="2.0" stroke-dasharray="5.0,5.0"/>
<line x1="187.9" y1="493.6" x2="197.6" y2="481.3" stroke="rgb(76,76,76)"  stroke-width="2.0"/>
<line x1="192.9" y1="497.1" x2="164.8" y2="532.6" stroke="rgb(76,76,76)"  stroke-width="2.0" stroke-dasharray="5.0,5.0"/>
<line x1="197.6" y1="481.3" x2="184.4" y2="507.4" stroke="rgb(76,76,76)"  stroke-width="2.0"/>
<line x1="164.8" y1="532.8" x2="179.1" y2="504.4" stroke="rgb(76,76,76)"  stroke-width="2.0" stroke-dasharray="5.0,5.0"/>
<line x1="722.7" y1="47.1" x2="719.9" y2="56.5" stroke="rgb(76,76,76)"  stroke-width="2.0"/>
<line x1="690.4" y1="116.6" x2="709.5" y2="52.3" stroke="rgb(76,76,76)"  stroke-width="2.0" stroke-dasharray="5.0,5.0"/>
<line x1="719.9" y1="56.5" x2="701.5" y2="87.9" stroke="rgb(76,76,76)"  stroke-width="2.0"/>
<line x1="709.4" y1="52.3" x2="692.3" y2="81.3" stroke="rgb(76,76,76)"  stroke-width="2.0" stroke-dasharray="5.0,5.0"/>
<line x1="701.5" y1="87.9" x2="691.8" y2="100.2" stroke="rgb(76,76,76)"  stroke-width="2.0"/>
<line x1="692.4" y1="81.4" x2="752.2" y2="5.5" stroke="rgb(76,76,76)"  stroke-width="2.0" stroke-dasharray="5.0,5.0"/>
<line x1="691.8" y1="100.2" x2="705.0" y2="74.0" stroke="rgb(76,76,76)"  stroke-width="2.0"/>
<line x1="752.4" y1="5.3" x2="714.8" y2="79.7" stroke="rgb(76,76,76)"  stroke-width="2.0" stroke-dasharray="5.0,5.0"/>
<line x1="705.0" y1="74.0" x2="722.7" y2="47.1" stroke="rgb(76,76,76)"  stroke-width="2.0"/>
<line x1="714.8" y1="79.7" x2="690.2" y2="117.1" stroke="rgb(76,76,76)"  stroke-width="2.0" stroke-dasharray="5.0,5.0"/>
<line x1="590.3" y1="93.1" x2="579.5" y2="126.2" stroke="rgb(76,76,76)"  stroke-width="2.0"/>
<line x1="577.9" y1="94.4" x2="572.3" y2="111.5" stroke="rgb(76,76,76)"  stroke-width="2.0" stroke-dasharray="5.0,5.0"/>
<line x1="579.5" y1="126.2" x2="557.7" y2="118.2" stroke="rgb(76,76,76)"  stroke-width="2.0"/>
<line x1="572.4" y1="111.5" x2="568.2" y2="109.9" stroke="rgb(76,76,76)"  stroke-width="2.0" stroke-dasharray="5.0,5.0"/>
<line x1="557.7" y1="118.2" x2="553.3" y2="81.6" stroke="rgb(76,76,76)"  stroke-width="2.0"/>
<line x1="568.2" y1="109.9" x2="565.4" y2="86.9" stroke="rgb(76,76,76)"  stroke-width="2.0" stroke-dasharray="5.0,5.0"/>
<line x1="553.3" y1="81.6" x2="574.5" y2="66.1" stroke="rgb(76,76,76)"  stroke-width="2.0"/>
<line x1="565.4" y1="86.9" x2="571.1" y2="82.7" stroke="rgb(76,76,76)"  stroke-width="2.0" stroke-dasharray="5.0,5.0"/>
<line x1="574.5" y1="66.1" x2="590.3" y2="93.1" stroke="rgb(76,76,76)"  stroke-width="2.0"/>
<line x1="571.1" y1="82.7" x2="577.9" y2="94.4" stroke="rgb(76,76,76)"  stroke-width="2.0" stroke-dasharray="5.0,5.0"/>
<line x1="355.7" y1="204.6" x2="338.8" y2="175.3" stroke="rgb(76,76,76)"  stroke-width="2.0"/>
<line x1="338.8" y1="175.3" x2="329.6" y2="187.1" stroke="rgb(76,76,76)"  stroke-width="2.0"/>
<line x1="329.6" y1="187.1" x2="339.3" y2="221.5" stroke="rgb(76,76,76)"  stroke-width="2.0"/>
<line x1="339.3" y1="221.5" x2="355.8" y2="233.7" stroke="rgb(76,76,76)"  stroke-width="2.0"/>
<line x1="355.8" y1="233.7" x2="355.7" y2="204.6" stroke="rgb(76,76,76)"  stroke-width="2.0"/>
<line x1="348.6" y1="227.7" x2="348.6" y2="210.6" stroke="rgb(76,76,76)"  stroke-width="2.0"/>
<line x1="289.7" y1="295.0" x2="307.7" y2="290.6" stroke="rgb(76,76,76)"  stroke-width="2.0"/>
<line x1="307.7" y1="290.6" x2="312.4" y2="324.7" stroke="rgb(76,76,76)"  stroke-width="2.0"/>
<line x1="312.4" y1="324.7" x2="298.6" y2="350.0" stroke="rgb(76,76,76)"  stroke-width="2.0"/>
<line x1="298.6" y1="350.0" x2="284.7" y2="332.1" stroke="rgb(76,76,76)"  stroke-width="2.0"/>
<line x1="284.7" y1="332.1" x2="289.7" y2="295.0" stroke="rgb(76,76,76)"  stroke-width="2.0"/>
<line x1="292.6" y1="327.1" x2="296.0" y2="301.9" stroke="rgb(76,76,76)"  stroke-width="2.0"/>
<line x1="269.0" y1="443.4" x2="239.2" y2="444.3" stroke="rgb(76,76,76)"  stroke-width="2.0"/>
<line x1="239.2" y1="444.3" x2="248.0" y2="430.3" stroke="rgb(76,76,76)"  stroke-width="2.0"/>
<line x1="248.0" y1="430.3" x2="281.7" y2="419.8" stroke="rgb(76,76,76)"  stroke-width="2.0"/>
<line x1="281.7" y1="419.8" x2="296.9" y2="426.9" stroke="rgb(76,76,76)"  stroke-width="2.0"/>
<line x1="296.9" y1="426.9" x2="269.0" y2="443.4" stroke="rgb(76,76,76)"  stroke-width="2.0"/>
<line x1="288.1" y1="423.8" x2="270.5" y2="434.2" stroke="rgb(76,76,76)"  stroke-width="2.0"/>
<line x1="142.5" y1="503.5" x2="146.4" y2="499.2" stroke="rgb(76,76,76)"  stroke-width="2.0"/>
<line x1="146.4" y1="499.2" x2="190.0" y2="467.3" stroke="rgb(76,76,76)"  stroke-width="2.0"/>
<line x1="190.0" y1="467.3" x2="186.5" y2="440.2" stroke="rgb(76,76,76)"  stroke-width="2.0"/>
<line x1="186.5" y1="440.2" x2="165.5" y2="457.0" stroke="rgb(76,76,76)"  stroke-width="2.0"/>
<line x1="165.5" y1="457.0" x2="142.5" y2="503.5" stroke="rgb(76,76,76)"  stroke-width="2.0"/>
<line x1="533.6" y1="347.8" x2="533.7" y2="376.9" stroke="rgb(76,76,76)"  stroke-width="2.0"/>
<line x1="540.8" y1="353.8" x2="540.8" y2="370.9" stroke="rgb(76,76,76)"  stroke-width="2.0"/>
<line x1="533.7" y1="376.9" x2="550.6" y2="406.2" stroke="rgb(76,76,76)"  stroke-width="2.0"/>
<line x1="550.6" y1="406.2" x2="559.9" y2="394.4" stroke="rgb(76,76,76)"  stroke-width="2.0"/>
<line x1="559.9" y1="394.4" x2="550.1" y2="360.0" stroke="rgb(76,76,76)"  stroke-width="2.0"/>
<line x1="550.1" y1="360.0" x2="533.6" y2="347.8" stroke="rgb(76,76,76)"  stroke-width="2.0"/>
<line x1="592.5" y1="154.5" x2="607.7" y2="161.7" stroke="rgb(76,76,76)"  stroke-width="2.0"/>
<line x1="607.7" y1="161.7" x2="641.4" y2="151.1" stroke="rgb(76,76,76)"  stroke-width="2.0"/>
<line x1="641.4" y1="151.1" x2="650.2" y2="137.2" stroke="rgb(76,76,76)"  stroke-width="2.0"/>
<line x1="650.2" y1="137.2" x2="620.4" y2="138.0" stroke="rgb(76,76,76)"  stroke-width="2.0"/>
<line x1="620.4" y1="138.0" x2="592.5" y2="154.5" stroke="rgb(76,76,76)"  stroke-width="2.0"/>
<line x1="618.9" y1="147.3" x2="601.3" y2="157.7" stroke="rgb(76,76,76)"  stroke-width="2.0"/>
<line x1="604.7" y1="249.3" x2="599.7" y2="286.4" stroke="rgb(76,76,76)"  stroke-width="2.0"/>
<line x1="596.8" y1="254.3" x2="593.4" y2="279.5" stroke="rgb(76,76,76)"  stroke-width="2.0"/>
<line x1="599.7" y1="286.4" x2="581.7" y2="290.9" stroke="rgb(76,76,76)"  stroke-width="2.0"/>
<line x1="581.7" y1="290.9" x2="577.0" y2="256.7" stroke="rgb(76,76,76)"  stroke-width="2.0"/>
<line x1="577.0" y1="256.7" x2="590.8" y2="231.5" stroke="rgb(76,76,76)"  stroke-width="2.0"/>
<line x1="590.8" y1="231.5" x2="604.7" y2="249.3" stroke="rgb(76,76,76)"  stroke-width="2.0"/>
<line x1="321.8" y1="124.9" x2="268.7" y2="121.0" stroke="rgb(76,76,76)"  stroke-width="2.0"/>
<line x1="268.7" y1="121.0" x2="266.9" y2="125.8" stroke="rgb(76,76,76)"  stroke-width="2.0"/>
<line x1="266.9" y1="125.8" x2="309.1" y2="150.7" stroke="rgb(76,76,76)"  stroke-width="2.0"/>
<line x1="309.1" y1="150.7" x2="329.6" y2="187.1" stroke="rgb(76,76,76)"  stroke-width="2.0"/>
<line x1="338.8" y1="175.3" x2="321.8" y2="124.9" stroke="rgb(76,76,76)"  stroke-width="2.0"/>
<line x1="309.1" y1="150.7" x2="270.4" y2="184.5" stroke="rgb(76,76,76)"  stroke-width="2.0"/>
<line x1="271.8" y1="196.7" x2="273.3" y2="209.1" stroke="rgb(76,76,76)"  stroke-width="2.0"/>
<line x1="279.3" y1="198.1" x2="280.2" y2="206.0" stroke="rgb(76,76,76)"  stroke-width="2.0"/>
<line x1="274.7" y1="221.2" x2="328.0" y2="247.9" stroke="rgb(76,76,76)"  stroke-width="2.0"/>
<line x1="328.0" y1="247.9" x2="339.3" y2="221.5" stroke="rgb(76,76,76)"  stroke-width="2.0"/>
<line x1="580.4" y1="430.8" x2="559.9" y2="394.4" stroke="rgb(76,76,76)"  stroke-width="2.0"/>
<line x1="550.6" y1="406.2" x2="567.6" y2="456.6" stroke="rgb(76,76,76)"  stroke-width="2.0"/>
<line x1="567.6" y1="456.6" x2="620.7" y2="460.5" stroke="rgb(76,76,76)"  stroke-width="2.0"/>
<line x1="620.7" y1="460.5" x2="622.5" y2="455.6" stroke="rgb(76,76,76)"  stroke-width="2.0"/>
<line x1="622.5" y1="455.6" x2="580.4" y2="430.8" stroke="rgb(76,76,76)"  stroke-width="2.0"/>
<line x1="561.4" y1="333.5" x2="550.1" y2="360.0" stroke="rgb(76,76,76)"  stroke-width="2.0"/>
<line x1="580.4" y1="430.8" x2="619.0" y2="396.9" stroke="rgb(76,76,76)"  stroke-width="2.0"/>
<line x1="617.6" y1="384.8" x2="616.1" y2="372.3" stroke="rgb(76,76,76)"  stroke-width="2.0"/>
<line x1="610.2" y1="383.4" x2="609.2" y2="375.4" stroke="rgb(76,76,76)"  stroke-width="2.0"/>
<line x1="614.7" y1="360.2" x2="561.4" y2="333.5" stroke="rgb(76,76,76)"  stroke-width="2.0"/>
<circle cx="40.000000" cy="548.753192" r="8.800000" opacity="1.000000" style="stroke:black;fill:url(#radialffffffc67f33)"/>
<circle cx="342.232930" cy="336.031693" r="8.800000" opacity="1.000000" style="stroke:black;fill:url(#radialffffffc67f33)"/>
<circle cx="336.061821" cy="499.818187" r="4.733333" opacity="1.000000" style="stroke:black;fill:url(#radialffffff0ccff)"/>
<circle cx="446.978245" cy="497.056355" r="4.733333" opacity="1.000000" style="stroke:black;fill:url(#radialffffff0ccff)"/>
<text x="451.778245" y="493.024355" fill="rgb(12,12,255)"  stroke="rgb(12,12,255)" stroke-width="1" font-size="16" ></text>
<text x="451.778245" y="493.024355" fill="rgb(12,12,255)"  stroke="rgb(12,12,255)" stroke-width="1" font-size="32" >.</text>
<circle cx="441.738055" cy="436.002937" r="5.066667" opacity="1.000000" style="stroke:black;fill:url(#radialffffff666666)"/>
<text x="446.538055" y="431.970937" fill="rgb(102,102,102)"  stroke="rgb(102,102,102)" stroke-width="1" font-size="16" ></text>
<text x="446.538055" y="431.970937" fill="rgb(102,102,102)"  stroke="rgb(102,102,102)" stroke-width="1" font-size="32" >..</text>
<circle cx="331.681785" cy="463.235627" r="4.733333" opacity="1.000000" style="stroke:black;fill:url(#radialffffff0ccff)"/>
<circle cx="187.238396" cy="506.661158" r="2.066667" opacity="1.000000" style="stroke:black;fill:url(#radialffffffbfbfbf)"/>
<circle cx="447.304873" cy="410.259322" r="2.066667" opacity="1.000000" style="stroke:black;fill:url(#radialffffffbfbfbf)"/>
<circle cx="274.692133" cy="221.246048" r="4.733333" opacity="1.000000" style="stroke:black;fill:url(#radialffffff0ccff)"/>
<circle cx="464.874795" cy="466.414276" r="5.066667" opacity="1.000000" style="stroke:black;fill:url(#radialffffff666666)"/>
<circle cx="270.434540" cy="184.536238" r="4.733333" opacity="1.000000" style="stroke:black;fill:url(#radialffffff0ccff)"/>
<circle cx="344.215197" cy="389.197571" r="4.400000" opacity="1.000000" style="stroke:black;fill:url(#radialffffffffcc)"/>
<circle cx="489.082542" cy="465.353093" r="2.066667" opacity="1.000000" style="stroke:black;fill:url(#radialffffffbfbfbf)"/>
<circle cx="314.916228" cy="515.401370" r="5.066667" opacity="1.000000" style="stroke:black;fill:url(#radialffffff666666)"/>
<circle cx="328.049138" cy="247.932255" r="8.800000" opacity="1.000000" style="stroke:black;fill:url(#radialffffffc67f33)"/>
<circle cx="367.571160" cy="390.239204" r="2.066667" opacity="1.000000" style="stroke:black;fill:url(#radialffffffbfbfbf)"/>
<circle cx="311.777658" cy="541.462140" r="2.066667" opacity="1.000000" style="stroke:black;fill:url(#radialffffffbfbfbf)"/>
<circle cx="309.900743" cy="455.247303" r="4.733333" opacity="1.000000" style="stroke:black;fill:url(#radialffffff0ccff)"/>
<circle cx="184.386132" cy="507.413710" r="5.066667" opacity="1.000000" style="stroke:black;fill:url(#radialffffff666666)"/>
<circle cx="309.050750" cy="150.678389" r="8.800000" opacity="1.000000" style="stroke:black;fill:url(#radialffffffc67f33)"/>
<circle cx="312.382656" cy="324.726571" r="4.733333" opacity="1.000000" style="stroke:black;fill:url(#radialffffff0ccff)"/>
<circle cx="299.098066" cy="488.379155" r="5.066667" opacity="1.000000" style="stroke:black;fill:url(#radialffffff666666)"/>
<circle cx="210.870710" cy="459.068914" r="2.066667" opacity="1.000000" style="stroke:black;fill:url(#radialffffffbfbfbf)"/>
<circle cx="305.198459" cy="403.405016" r="8.800000" opacity="1.000000" style="stroke:black;fill:url(#radialffffffc67f33)"/>
<circle cx="661.332143" cy="116.606211" r="4.733333" opacity="1.000000" style="stroke:black;fill:url(#radialffffff0ccff)"/>
<text x="666.132143" y="112.574211" fill="rgb(12,12,255)"  stroke="rgb(12,12,255)" stroke-width="1" font-size="16" ></text>
<text x="666.132143" y="112.574211" fill="rgb(12,12,255)"  stroke="rgb(12,12,255)" stroke-width="1" font-size="32" >..</text>
<circle cx="166.679470" cy="534.379420" r="4.733333" opacity="1.000000" style="stroke:black;fill:url(#radialffffff0ccff)"/>
<circle cx="307.680222" cy="290.595094" r="4.733333" opacity="1.000000" style="stroke:black;fill:url(#radialffffff0ccff)"/>
<circle cx="197.596146" cy="481.303070" r="5.066667" opacity="1.000000" style="stroke:black;fill:url(#radialffffff666666)"/>
<circle cx="266.922336" cy="125.817907" r="4.733333" opacity="1.000000" style="stroke:black;fill:url(#radialffffff0ccff)"/>
<text x="271.722336" y="121.785907" fill="rgb(12,12,255)"  stroke="rgb(12,12,255)" stroke-width="1" font-size="16" ></text>
<text x="271.722336" y="121.785907" fill="rgb(12,12,255)"  stroke="rgb(12,12,255)" stroke-width="1" font-size="32" >.</text>
<circle cx="298.583506" cy="350.005108" r="4.733333" opacity="1.000000" style="stroke:black;fill:url(#radialffffff0ccff)"/>
<circle cx="283.201574" cy="491.601215" r="2.066667" opacity="1.000000" style="stroke:black;fill:url(#radialffffffbfbfbf)"/>
<circle cx="339.288236" cy="221.466221" r="4.733333" opacity="1.000000" style="stroke:black;fill:url(#radialffffff0ccff)"/>
<circle cx="329.557302" cy="187.096756" r="4.733333" opacity="1.000000" style="stroke:black;fill:url(#radialffffff0ccff)"/>
<circle cx="440.038785" cy="523.863653" r="2.066667" opacity="1.000000" style="stroke:black;fill:url(#radialffffffbfbfbf)"/>
<text x="444.838785" y="519.831653" fill="rgb(191,191,191)"  stroke="rgb(191,191,191)" stroke-width="1" font-size="16" ></text>
<text x="444.838785" y="519.831653" fill="rgb(191,191,191)"  stroke="rgb(191,191,191)" stroke-width="1" font-size="32" >.</text>
<circle cx="641.498928" cy="106.246048" r="5.066667" opacity="1.000000" style="stroke:black;fill:url(#radialffffff666666)"/>
<text x="646.298928" y="102.214048" fill="rgb(102,102,102)"  stroke="rgb(102,102,102)" stroke-width="1" font-size="16" ></text>
<text x="646.298928" y="102.214048" fill="rgb(102,102,102)"  stroke="rgb(102,102,102)" stroke-width="1" font-size="32" >..</text>
<circle cx="169.470104" cy="524.972203" r="4.733333" opacity="1.000000" style="stroke:black;fill:url(#radialffffff0ccff)"/>
<circle cx="289.677590" cy="295.019879" r="5.066667" opacity="1.000000" style="stroke:black;fill:url(#radialffffff666666)"/>
<circle cx="187.916207" cy="493.567441" r="4.733333" opacity="1.000000" style="stroke:black;fill:url(#radialffffff0ccff)"/>
<circle cx="284.716877" cy="332.136272" r="5.066667" opacity="1.000000" style="stroke:black;fill:url(#radialffffff666666)"/>
<circle cx="247.989136" cy="430.322621" r="4.733333" opacity="1.000000" style="stroke:black;fill:url(#radialffffff0ccff)"/>
<text x="252.789136" y="426.290621" fill="rgb(12,12,255)"  stroke="rgb(12,12,255)" stroke-width="1" font-size="16" ></text>
<text x="252.789136" y="426.290621" fill="rgb(12,12,255)"  stroke="rgb(12,12,255)" stroke-width="1" font-size="32" >.</text>
<circle cx="281.695471" cy="419.767704" r="4.733333" opacity="1.000000" style="stroke:black;fill:url(#radialffffff0ccff)"/>
<circle cx="268.745331" cy="120.965304" r="4.733333" opacity="1.000000" style="stroke:black;fill:url(#radialffffff0ccff)"/>
<text x="273.545331" y="116.933304" fill="rgb(12,12,255)"  stroke="rgb(12,12,255)" stroke-width="1" font-size="16" ></text>
<text x="273.545331" y="116.933304" fill="rgb(12,12,255)"  stroke="rgb(12,12,255)" stroke-width="1" font-size="32" >.</text>
<circle cx="281.469027" cy="275.352290" r="2.066667" opacity="1.000000" style="stroke:black;fill:url(#radialffffffbfbfbf)"/>
<circle cx="355.800930" cy="233.655737" r="5.066667" opacity="1.000000" style="stroke:black;fill:url(#radialffffff666666)"/>
<circle cx="664.161900" cy="108.851663" r="5.066667" opacity="1.000000" style="stroke:black;fill:url(#radialffffff666666)"/>
<text x="668.961900" y="104.819663" fill="rgb(102,102,102)"  stroke="rgb(102,102,102)" stroke-width="1" font-size="16" ></text>
<text x="668.961900" y="104.819663" fill="rgb(102,102,102)"  stroke="rgb(102,102,102)" stroke-width="1" font-size="32" >..</text>
<circle cx="365.441712" cy="257.972981" r="2.066667" opacity="1.000000" style="stroke:black;fill:url(#radialffffffbfbfbf)"/>
<circle cx="338.820317" cy="175.305476" r="4.733333" opacity="1.000000" style="stroke:black;fill:url(#radialffffff0ccff)"/>
<circle cx="273.475721" cy="343.104942" r="2.066667" opacity="1.000000" style="stroke:black;fill:url(#radialffffffbfbfbf)"/>
<circle cx="321.765761" cy="124.903341" r="8.800000" opacity="1.000000" style="stroke:black;fill:url(#radialffffffc67f33)"/>
<circle cx="355.746215" cy="204.584325" r="5.066667" opacity="1.000000" style="stroke:black;fill:url(#radialffffff666666)"/>
<circle cx="239.229818" cy="444.255278" r="4.733333" opacity="1.000000" style="stroke:black;fill:url(#radialffffff0ccff)"/>
<circle cx="296.898139" cy="426.948426" r="5.066667" opacity="1.000000" style="stroke:black;fill:url(#radialffffff666666)"/>
<circle cx="657.306715" cy="102.892449" r="2.066667" opacity="1.000000" style="stroke:black;fill:url(#radialffffffbfbfbf)"/>
<circle cx="190.038400" cy="467.311188" r="8.800000" opacity="1.000000" style="stroke:black;fill:url(#radialffffffc67f33)"/>
<circle cx="321.659200" cy="421.695825" r="2.066667" opacity="1.000000" style="stroke:black;fill:url(#radialffffffbfbfbf)"/>
<circle cx="551.796445" cy="485.838873" r="2.066667" opacity="1.000000" style="stroke:black;fill:url(#radialffffffbfbfbf)"/>
<text x="556.596445" y="481.806873" fill="rgb(191,191,191)"  stroke="rgb(191,191,191)" stroke-width="1" font-size="16" ></text>
<text x="556.596445" y="481.806873" fill="rgb(191,191,191)"  stroke="rgb(191,191,191)" stroke-width="1" font-size="32" >.</text>
<circle cx="268.974428" cy="443.412789" r="5.066667" opacity="1.000000" style="stroke:black;fill:url(#radialffffff666666)"/>
<circle cx="365.712738" cy="204.441073" r="2.066667" opacity="1.000000" style="stroke:black;fill:url(#radialffffffbfbfbf)"/>
<circle cx="146.413373" cy="499.178923" r="4.400000" opacity="1.000000" style="stroke:black;fill:url(#radialffffffffcc)"/>
<circle cx="274.018973" cy="198.825685" r="2.066667" opacity="1.000000" style="stroke:black;fill:url(#radialffffffbfbfbf)"/>
<circle cx="296.989971" cy="146.097193" r="4.733333" opacity="1.000000" style="stroke:black;fill:url(#radialffffff0ccff)"/>
<circle cx="270.528833" cy="452.429168" r="2.066667" opacity="1.000000" style="stroke:black;fill:url(#radialffffffbfbfbf)"/>
<circle cx="277.440535" cy="177.964098" r="5.066667" opacity="1.000000" style="stroke:black;fill:url(#radialffffff666666)"/>
<text x="282.240535" y="173.932098" fill="rgb(102,102,102)"  stroke="rgb(102,102,102)" stroke-width="1" font-size="16" ></text>
<text x="282.240535" y="173.932098" fill="rgb(102,102,102)"  stroke="rgb(102,102,102)" stroke-width="1" font-size="32" >.</text>
<circle cx="186.468789" cy="440.187895" r="4.733333" opacity="1.000000" style="stroke:black;fill:url(#radialffffff0ccff)"/>
<circle cx="211.989426" cy="389.627937" r="2.066667" opacity="1.000000" style="stroke:black;fill:url(#radialffffffbfbfbf)"/>
<circle cx="197.148487" cy="407.498585" r="5.066667" opacity="1.000000" style="stroke:black;fill:url(#radialffffff666666)"/>
<text x="201.948487" y="403.466585" fill="rgb(102,102,102)"  stroke="rgb(102,102,102)" stroke-width="1" font-size="16" ></text>
<text x="201.948487" y="403.466585" fill="rgb(102,102,102)"  stroke="rgb(102,102,102)" stroke-width="1" font-size="32" >..</text>
<circle cx="723.887630" cy="124.470677" r="4.733333" opacity="1.000000" style="stroke:black;fill:url(#radialffffff0ccff)"/>
<text x="728.687630" y="120.438677" fill="rgb(12,12,255)"  stroke="rgb(12,12,255)" stroke-width="1" font-size="16" ></text>
<text x="728.687630" y="120.438677" fill="rgb(12,12,255)"  stroke="rgb(12,12,255)" stroke-width="1" font-size="32" >..</text>
<circle cx="142.471220" cy="503.452570" r="8.800880" opacity="1.000000" style="stroke:black;fill:url(#radialffffffc67f33)"/>
<circle cx="165.520670" cy="456.991463" r="4.840791" opacity="1.000000" style="stroke:black;fill:url(#radialffffff0ccff)"/>
<text x="170.320670" y="452.959463" fill="rgb(12,12,255)"  stroke="rgb(12,12,255)" stroke-width="1" font-size="16" ></text>
<text x="170.320670" y="452.959463" fill="rgb(12,12,255)"  stroke="rgb(12,12,255)" stroke-width="1" font-size="32" >.</text>
<circle cx="692.259813" cy="173.963556" r="5.255672" opacity="1.000000" style="stroke:black;fill:url(#radialffffff666666)"/>
<text x="697.059813" y="169.931556" fill="rgb(102,102,102)"  stroke="rgb(102,102,102)" stroke-width="1" font-size="16" ></text>
<text x="697.059813" y="169.931556" fill="rgb(102,102,102)"  stroke="rgb(102,102,102)" stroke-width="1" font-size="32" >..</text>
<circle cx="677.418874" cy="191.834203" r="2.269840" opacity="1.000000" style="stroke:black;fill:url(#radialffffffbfbfbf)"/>
<circle cx="702.939511" cy="141.274246" r="5.213815" opacity="1.000000" style="stroke:black;fill:url(#radialffffff0ccff)"/>
<circle cx="611.967764" cy="403.498042" r="5.725906" opacity="1.000000" style="stroke:black;fill:url(#radialffffff666666)"/>
<text x="616.767764" y="399.466042" fill="rgb(102,102,102)"  stroke="rgb(102,102,102)" stroke-width="1" font-size="16" ></text>
<text x="616.767764" y="399.466042" fill="rgb(102,102,102)"  stroke="rgb(102,102,102)" stroke-width="1" font-size="32" >.</text>
<circle cx="618.879467" cy="129.032972" r="2.382692" opacity="1.000000" style="stroke:black;fill:url(#radialffffffbfbfbf)"/>
<circle cx="592.418329" cy="435.364947" r="5.522459" opacity="1.000000" style="stroke:black;fill:url(#radialffffff0ccff)"/>
<circle cx="615.389327" cy="382.636455" r="2.493476" opacity="1.000000" style="stroke:black;fill:url(#radialffffffbfbfbf)"/>
<circle cx="742.994927" cy="82.283217" r="5.551595" opacity="1.000000" style="stroke:black;fill:url(#radialffffffffcc)"/>
<text x="747.794927" y="78.251217" fill="rgb(255,12,12)"  stroke="rgb(255,12,12)" stroke-width="1" font-size="16" ></text>
<text x="747.794927" y="78.251217" fill="rgb(255,12,12)"  stroke="rgb(255,12,12)" stroke-width="1" font-size="32" >.</text>
<circle cx="523.695561" cy="377.021067" r="2.607981" opacity="1.000000" style="stroke:black;fill:url(#radialffffffbfbfbf)"/>
<circle cx="620.433871" cy="138.049351" r="6.441391" opacity="1.000000" style="stroke:black;fill:url(#radialffffff666666)"/>
<circle cx="337.611855" cy="95.623267" r="2.691896" opacity="1.000000" style="stroke:black;fill:url(#radialffffffbfbfbf)"/>
<text x="342.411855" y="91.591267" fill="rgb(191,191,191)"  stroke="rgb(191,191,191)" stroke-width="1" font-size="16" ></text>
<text x="342.411855" y="91.591267" fill="rgb(191,191,191)"  stroke="rgb(191,191,191)" stroke-width="1" font-size="32" >.</text>
<circle cx="567.749099" cy="159.766315" r="2.746875" opacity="1.000000" style="stroke:black;fill:url(#radialffffffbfbfbf)"/>
<circle cx="699.369900" cy="114.150952" r="11.735094" opacity="1.000000" style="stroke:black;fill:url(#radialffffffc67f33)"/>
<circle cx="232.101585" cy="478.569691" r="2.796480" opacity="1.000000" style="stroke:black;fill:url(#radialffffffbfbfbf)"/>
<circle cx="592.510161" cy="154.513714" r="6.926826" opacity="1.000000" style="stroke:black;fill:url(#radialffffff666666)"/>
<circle cx="650.178482" cy="137.206862" r="6.514665" opacity="1.000000" style="stroke:black;fill:url(#radialffffff0ccff)"/>
<circle cx="533.662085" cy="376.877815" r="6.985605" opacity="1.000000" style="stroke:black;fill:url(#radialffffff666666)"/>
<circle cx="567.642538" cy="456.558799" r="12.144510" opacity="1.000000" style="stroke:black;fill:url(#radialffffffc67f33)"/>
<circle cx="615.932579" cy="238.357198" r="2.987045" opacity="1.000000" style="stroke:black;fill:url(#radialffffffbfbfbf)"/>
<circle cx="550.587983" cy="406.156664" r="6.920825" opacity="1.000000" style="stroke:black;fill:url(#radialffffff0ccff)"/>
<circle cx="523.966587" cy="323.489159" r="3.037477" opacity="1.000000" style="stroke:black;fill:url(#radialffffffbfbfbf)"/>
<circle cx="225.246400" cy="472.610477" r="7.455839" opacity="1.000000" style="stroke:black;fill:url(#radialffffff666666)"/>
<text x="230.046400" y="468.578477" fill="rgb(102,102,102)"  stroke="rgb(102,102,102)" stroke-width="1" font-size="16" ></text>
<text x="230.046400" y="468.578477" fill="rgb(102,102,102)"  stroke="rgb(102,102,102)" stroke-width="1" font-size="32" >..</text>
<circle cx="533.607370" cy="347.806403" r="7.558196" opacity="1.000000" style="stroke:black;fill:url(#radialffffff666666)"/>
<circle cx="607.939273" cy="306.109850" r="3.104444" opacity="1.000000" style="stroke:black;fill:url(#radialffffffbfbfbf)"/>
<circle cx="620.662968" cy="460.496836" r="7.208641" opacity="1.000000" style="stroke:black;fill:url(#radialffffff0ccff)"/>
<text x="625.462968" y="456.464836" fill="rgb(12,12,255)"  stroke="rgb(12,12,255)" stroke-width="1" font-size="16" ></text>
<text x="625.462968" y="456.464836" fill="rgb(12,12,255)"  stroke="rgb(12,12,255)" stroke-width="1" font-size="32" >.</text>
<circle cx="607.712829" cy="161.694436" r="7.232310" opacity="1.000000" style="stroke:black;fill:url(#radialffffff0ccff)"/>
<circle cx="641.419164" cy="151.139520" r="7.268287" opacity="1.000000" style="stroke:black;fill:url(#radialffffff0ccff)"/>
<text x="646.219164" y="147.107520" fill="rgb(12,12,255)"  stroke="rgb(12,12,255)" stroke-width="1" font-size="16" ></text>
<text x="646.219164" y="147.107520" fill="rgb(12,12,255)"  stroke="rgb(12,12,255)" stroke-width="1" font-size="32" >.</text>
<circle cx="604.691423" cy="249.325868" r="7.837904" opacity="1.000000" style="stroke:black;fill:url(#radialffffff666666)"/>
<circle cx="701.492093" cy="87.894700" r="7.426396" opacity="1.000000" style="stroke:black;fill:url(#radialffffff0ccff)"/>
<circle cx="599.730710" cy="286.442261" r="7.992959" opacity="1.000000" style="stroke:black;fill:url(#radialffffff666666)"/>
<circle cx="719.938196" cy="56.489937" r="7.511604" opacity="1.000000" style="stroke:black;fill:url(#radialffffff0ccff)"/>
<circle cx="247.909372" cy="475.216092" r="8.187539" opacity="1.000000" style="stroke:black;fill:url(#radialffffff666666)"/>
<text x="252.709372" y="471.184092" fill="rgb(102,102,102)"  stroke="rgb(102,102,102)" stroke-width="1" font-size="16" ></text>
<text x="252.709372" y="471.184092" fill="rgb(102,102,102)"  stroke="rgb(102,102,102)" stroke-width="1" font-size="32" >..</text>
<circle cx="449.369515" cy="57.598487" r="3.341721" opacity="1.000000" style="stroke:black;fill:url(#radialffffffbfbfbf)"/>
<text x="454.169515" y="53.566487" fill="rgb(191,191,191)"  stroke="rgb(191,191,191)" stroke-width="1" font-size="16" ></text>
<text x="454.169515" y="53.566487" fill="rgb(191,191,191)"  stroke="rgb(191,191,191)" stroke-width="1" font-size="32" >.</text>
<circle cx="559.850998" cy="394.365384" r="7.677288" opacity="1.000000" style="stroke:black;fill:url(#radialffffff0ccff)"/>
<circle cx="550.120064" cy="359.995919" r="7.783325" opacity="1.000000" style="stroke:black;fill:url(#radialffffff0ccff)"/>
<circle cx="606.206726" cy="89.860925" r="3.465320" opacity="1.000000" style="stroke:black;fill:url(#radialffffffbfbfbf)"/>
<circle cx="590.824794" cy="231.457032" r="7.980251" opacity="1.000000" style="stroke:black;fill:url(#radialffffff0ccff)"/>
<circle cx="622.485964" cy="455.644234" r="8.031376" opacity="1.000000" style="stroke:black;fill:url(#radialffffff0ccff)"/>
<text x="627.285964" y="451.612234" fill="rgb(12,12,255)"  stroke="rgb(12,12,255)" stroke-width="1" font-size="16" ></text>
<text x="627.285964" y="451.612234" fill="rgb(12,12,255)"  stroke="rgb(12,12,255)" stroke-width="1" font-size="32" >.</text>
<circle cx="691.812154" cy="100.159070" r="8.757089" opacity="1.000000" style="stroke:black;fill:url(#radialffffff666666)"/>
<circle cx="581.728078" cy="290.867046" r="8.182858" opacity="1.000000" style="stroke:black;fill:url(#radialffffff0ccff)"/>
<circle cx="722.728829" cy="47.082720" r="8.294576" opacity="1.000000" style="stroke:black;fill:url(#radialffffff0ccff)"/>
<circle cx="228.076156" cy="464.855929" r="8.300257" opacity="1.000000" style="stroke:black;fill:url(#radialffffff0ccff)"/>
<text x="232.876156" y="460.823929" fill="rgb(12,12,255)"  stroke="rgb(12,12,255)" stroke-width="1" font-size="16" ></text>
<text x="232.876156" y="460.823929" fill="rgb(12,12,255)"  stroke="rgb(12,12,255)" stroke-width="1" font-size="32" >..</text>
<circle cx="584.209841" cy="178.057124" r="15.447833" opacity="1.000000" style="stroke:black;fill:url(#radialffffffc67f33)"/>
<circle cx="678.537589" cy="122.393226" r="3.629016" opacity="1.000000" style="stroke:black;fill:url(#radialffffffbfbfbf)"/>
<circle cx="590.310234" cy="93.082985" r="9.001327" opacity="1.000000" style="stroke:black;fill:url(#radialffffff666666)"/>
<circle cx="577.025644" cy="256.735569" r="8.508544" opacity="1.000000" style="stroke:black;fill:url(#radialffffff0ccff)"/>
<text x="581.825644" y="252.703569" fill="rgb(12,12,255)"  stroke="rgb(12,12,255)" stroke-width="1" font-size="16" ></text>
<text x="581.825644" y="252.703569" fill="rgb(12,12,255)"  stroke="rgb(12,12,255)" stroke-width="1" font-size="32" >.</text>
<circle cx="580.357550" cy="430.783751" r="16.132893" opacity="1.000000" style="stroke:black;fill:url(#radialffffffc67f33)"/>
<circle cx="705.022168" cy="74.048430" r="9.345895" opacity="1.000000" style="stroke:black;fill:url(#radialffffff666666)"/>
<circle cx="579.507556" cy="126.214837" r="8.748075" opacity="1.000000" style="stroke:black;fill:url(#radialffffff0ccff)"/>
<circle cx="577.630642" cy="40.000000" r="3.828263" opacity="1.000000" style="stroke:black;fill:url(#radialffffffbfbfbf)"/>
<circle cx="521.837140" cy="191.222936" r="3.844798" opacity="1.000000" style="stroke:black;fill:url(#radialffffffbfbfbf)"/>
<circle cx="561.359162" cy="333.529885" r="16.434939" opacity="1.000000" style="stroke:black;fill:url(#radialffffffc67f33)"/>
<circle cx="574.492072" cy="66.060770" r="9.482708" opacity="1.000000" style="stroke:black;fill:url(#radialffffff666666)"/>
<circle cx="400.325758" cy="116.109047" r="3.919619" opacity="1.000000" style="stroke:black;fill:url(#radialffffffbfbfbf)"/>
<circle cx="545.193103" cy="192.264569" r="8.506051" opacity="1.000000" style="stroke:black;fill:url(#radialffffffffcc)"/>
<circle cx="618.973760" cy="396.925902" r="9.183585" opacity="1.000000" style="stroke:black;fill:url(#radialffffff0ccff)"/>
<circle cx="424.533505" cy="115.047864" r="9.870854" opacity="1.000000" style="stroke:black;fill:url(#radialffffff666666)"/>
<circle cx="614.716167" cy="360.216092" r="9.231870" opacity="1.000000" style="stroke:black;fill:url(#radialffffff0ccff)"/>
<circle cx="442.103427" cy="171.202818" r="4.067193" opacity="1.000000" style="stroke:black;fill:url(#radialffffffbfbfbf)"/>
<circle cx="702.169904" cy="74.800982" r="4.070914" opacity="1.000000" style="stroke:black;fill:url(#radialffffffbfbfbf)"/>
<circle cx="557.726514" cy="118.226513" r="9.373884" opacity="1.000000" style="stroke:black;fill:url(#radialffffff0ccff)"/>
<circle cx="447.670245" cy="145.459203" r="10.057326" opacity="1.000000" style="stroke:black;fill:url(#radialffffff666666)"/>
<text x="452.470245" y="141.427203" fill="rgb(102,102,102)"  stroke="rgb(102,102,102)" stroke-width="1" font-size="16" ></text>
<text x="452.470245" y="141.427203" fill="rgb(102,102,102)"  stroke="rgb(102,102,102)" stroke-width="1" font-size="32" >..</text>
<circle cx="442.430055" cy="84.405785" r="9.458146" opacity="1.000000" style="stroke:black;fill:url(#radialffffff0ccff)"/>
<text x="447.230055" y="80.373785" fill="rgb(12,12,255)"  stroke="rgb(12,12,255)" stroke-width="1" font-size="16" ></text>
<text x="447.230055" y="80.373785" fill="rgb(12,12,255)"  stroke="rgb(12,12,255)" stroke-width="1" font-size="32" >.</text>
<circle cx="553.346479" cy="81.643953" r="9.466667" opacity="1.000000" style="stroke:black;fill:url(#radialffffff0ccff)"/>
</svg>
</g>
</svg>
