<?xml version="1.0"?>
<svg version="1.1" id="topsvg"
xmlns="http://www.w3.org/2000/svg" xmlns:xlink="http://www.w3.org/1999/xlink"
xmlns:cml="http://www.xml-cml.org/schema" x="0" y="0" width="200px" height="200px" viewBox="0 0 100 100">
<title>LOWQIX_clean - Open Babel Depiction</title>
<defs>
<radialGradient id='radialffffff666666' cx='50%' cy='50%' r='50%' fx='30%' fy='30%'>
  <stop offset=' 0%' stop-color="rgb(255,255,255)"  stop-opacity='0.8'/>
  <stop offset='100%' stop-color="rgb(102,102,102)"  stop-opacity ='1.0'/>
</radialGradient>
<radialGradient id='radialffffff7c7faf' cx='50%' cy='50%' r='50%' fx='30%' fy='30%'>
  <stop offset=' 0%' stop-color="rgb(255,255,255)"  stop-opacity='0.8'/>
  <stop offset='100%' stop-color="rgb(124,127,175)"  stop-opacity ='1.0'/>
</radialGradient>
<radialGradient id='radialffffffbfbfbf' cx='50%' cy='50%' r='50%' fx='30%' fy='30%'>
  <stop offset=' 0%' stop-color="rgb(255,255,255)"  stop-opacity='0.8'/>
  <stop offset='100%' stop-color="rgb(191,191,191)"  stop-opacity ='1.0'/>
</radialGradient>
<radialGradient id='radialffffffffcc' cx='50%' cy='50%' r='50%' fx='30%' fy='30%'>
  <stop offset=' 0%' stop-color="rgb(255,255,255)"  stop-opacity='0.8'/>
  <stop offset='100%' stop-color="rgb(255,12,12)"  stop-opacity ='1.0'/>
</radialGradient>
</defs>
<g transform="translate(0,0)">
<svg width="100" height="100" x="0" y="0" viewBox="0 0 400.042 458.143"
font-family="sans-serif" stroke="rgb(76,76,76)" stroke-width="2"  stroke-linecap="round">
<line x1="40.0" y1="394.7" x2="97.3" y2="391.9" stroke="rgb(76,76,76)"  stroke-width="2.0"/>
<line x1="277.0" y1="60.8" x2="316.2" y2="86.5" stroke="rgb(76,76,76)"  stroke-width="2.0"/>
<line x1="129.9" y1="378.0" x2="97.3" y2="391.9" stroke="rgb(76,76,76)"  stroke-width="2.0"/>
<line x1="131.4" y1="375.4" x2="162.3" y2="392.7" stroke="rgb(76,76,76)"  stroke-width="2.0"/>
<line x1="128.5" y1="380.6" x2="159.4" y2="397.9" stroke="rgb(76,76,76)"  stroke-width="2.0"/>
<line x1="199.4" y1="355.3" x2="196.0" y2="377.7" stroke="rgb(76,76,76)"  stroke-width="2.0"/>
<line x1="316.2" y1="86.5" x2="360.0" y2="56.4" stroke="rgb(76,76,76)"  stroke-width="2.0"/>
<line x1="316.2" y1="86.5" x2="304.5" y2="101.4" stroke="rgb(76,76,76)"  stroke-width="2.0"/>
<line x1="196.0" y1="377.7" x2="160.8" y2="395.3" stroke="rgb(76,76,76)"  stroke-width="2.0"/>
<line x1="196.0" y1="377.7" x2="226.1" y2="394.1" stroke="rgb(76,76,76)"  stroke-width="2.0"/>
<line x1="265.3" y1="379.4" x2="227.3" y2="396.8" stroke="rgb(76,76,76)"  stroke-width="2.0"/>
<line x1="262.8" y1="374.0" x2="224.8" y2="391.4" stroke="rgb(76,76,76)"  stroke-width="2.0"/>
<line x1="156.7" y1="51.7" x2="132.8" y2="62.9" stroke="rgb(76,76,76)"  stroke-width="2.0"/>
<line x1="158.3" y1="49.1" x2="186.9" y2="66.1" stroke="rgb(76,76,76)"  stroke-width="2.0"/>
<line x1="155.2" y1="54.2" x2="183.8" y2="71.3" stroke="rgb(76,76,76)"  stroke-width="2.0"/>
<line x1="185.3" y1="68.7" x2="221.4" y2="50.3" stroke="rgb(76,76,76)"  stroke-width="2.0"/>
<line x1="185.3" y1="68.7" x2="182.1" y2="92.5" stroke="rgb(76,76,76)"  stroke-width="2.0"/>
<line x1="221.4" y1="50.3" x2="241.5" y2="61.0" stroke="rgb(76,76,76)"  stroke-width="2.0"/>
<line x1="304.5" y1="101.4" x2="316.3" y2="89.8" stroke="rgb(76,76,76)"  stroke-width="2.0"/>
<line x1="313.9" y1="88.0" x2="334.9" y2="60.2" stroke="rgb(76,76,76)"  stroke-width="2.0"/>
<line x1="318.7" y1="91.6" x2="339.7" y2="63.8" stroke="rgb(76,76,76)"  stroke-width="2.0"/>
<line x1="316.3" y1="89.8" x2="305.2" y2="111.0" stroke="rgb(76,76,76)"  stroke-width="2.0"/>
<line x1="272.2" y1="150.9" x2="282.0" y2="143.0" stroke="rgb(76,76,76)"  stroke-width="2.0"/>
<line x1="321.5" y1="326.1" x2="308.9" y2="314.2" stroke="rgb(76,76,76)"  stroke-width="2.0"/>
<line x1="279.8" y1="267.4" x2="286.0" y2="282.1" stroke="rgb(76,76,76)"  stroke-width="2.0"/>
<line x1="257.5" y1="183.6" x2="273.3" y2="162.5" stroke="rgb(76,76,76)"  stroke-width="2.0"/>
<line x1="317.0" y1="102.7" x2="332.6" y2="81.4" stroke="rgb(76,76,76)"  stroke-width="2.0"/>
<line x1="332.6" y1="354.0" x2="317.0" y2="332.7" stroke="rgb(76,76,76)"  stroke-width="2.0"/>
<line x1="273.3" y1="272.9" x2="257.5" y2="251.8" stroke="rgb(76,76,76)"  stroke-width="2.0"/>
<line x1="286.0" y1="153.3" x2="279.8" y2="168.0" stroke="rgb(76,76,76)"  stroke-width="2.0"/>
<line x1="308.9" y1="121.2" x2="321.5" y2="109.3" stroke="rgb(76,76,76)"  stroke-width="2.0"/>
<line x1="305.2" y1="324.4" x2="316.3" y2="345.6" stroke="rgb(76,76,76)"  stroke-width="2.0"/>
<line x1="282.0" y1="292.4" x2="272.2" y2="284.5" stroke="rgb(76,76,76)"  stroke-width="2.0"/>
<line x1="334.9" y1="375.2" x2="313.9" y2="347.4" stroke="rgb(76,76,76)"  stroke-width="2.0"/>
<line x1="339.7" y1="371.6" x2="318.7" y2="343.8" stroke="rgb(76,76,76)"  stroke-width="2.0"/>
<line x1="316.3" y1="345.6" x2="304.5" y2="334.0" stroke="rgb(76,76,76)"  stroke-width="2.0"/>
<line x1="241.5" y1="374.4" x2="221.4" y2="385.1" stroke="rgb(76,76,76)"  stroke-width="2.0"/>
<line x1="182.1" y1="342.9" x2="185.3" y2="366.7" stroke="rgb(76,76,76)"  stroke-width="2.0"/>
<line x1="304.5" y1="334.0" x2="316.2" y2="348.9" stroke="rgb(76,76,76)"  stroke-width="2.0"/>
<line x1="221.4" y1="385.1" x2="185.3" y2="366.7" stroke="rgb(76,76,76)"  stroke-width="2.0"/>
<line x1="186.9" y1="369.3" x2="158.3" y2="386.3" stroke="rgb(76,76,76)"  stroke-width="2.0"/>
<line x1="183.8" y1="364.1" x2="155.2" y2="381.2" stroke="rgb(76,76,76)"  stroke-width="2.0"/>
<line x1="132.8" y1="372.5" x2="156.7" y2="383.7" stroke="rgb(76,76,76)"  stroke-width="2.0"/>
<line x1="227.3" y1="38.6" x2="265.3" y2="56.0" stroke="rgb(76,76,76)"  stroke-width="2.0"/>
<line x1="224.8" y1="44.0" x2="262.8" y2="61.4" stroke="rgb(76,76,76)"  stroke-width="2.0"/>
<line x1="226.1" y1="41.3" x2="196.0" y2="57.7" stroke="rgb(76,76,76)"  stroke-width="2.0"/>
<line x1="162.2" y1="37.4" x2="197.3" y2="55.0" stroke="rgb(76,76,76)"  stroke-width="2.0"/>
<line x1="159.5" y1="42.8" x2="194.7" y2="60.3" stroke="rgb(76,76,76)"  stroke-width="2.0"/>
<line x1="160.8" y1="40.1" x2="129.9" y2="57.4" stroke="rgb(76,76,76)"  stroke-width="2.0"/>
<line x1="196.0" y1="57.7" x2="199.4" y2="80.1" stroke="rgb(76,76,76)"  stroke-width="2.0"/>
<line x1="360.0" y1="379.0" x2="316.2" y2="348.9" stroke="rgb(76,76,76)"  stroke-width="2.0"/>
<line x1="316.2" y1="348.9" x2="277.0" y2="374.6" stroke="rgb(76,76,76)"  stroke-width="2.0"/>
<line x1="98.5" y1="40.8" x2="131.1" y2="54.6" stroke="rgb(76,76,76)"  stroke-width="2.0"/>
<line x1="96.1" y1="46.3" x2="128.8" y2="60.1" stroke="rgb(76,76,76)"  stroke-width="2.0"/>
<line x1="129.9" y1="57.4" x2="137.2" y2="83.5" stroke="rgb(76,76,76)"  stroke-width="2.0"/>
<line x1="277.0" y1="374.6" x2="284.3" y2="400.8" stroke="rgb(76,76,76)"  stroke-width="2.0"/>
<line x1="40.0" y1="417.4" x2="55.3" y2="379.6" stroke="rgb(76,76,76)"  stroke-width="2.0"/>
<line x1="137.2" y1="83.5" x2="98.0" y2="109.3" stroke="rgb(76,76,76)"  stroke-width="2.0"/>
<line x1="285.4" y1="398.0" x2="318.1" y2="411.9" stroke="rgb(76,76,76)"  stroke-width="2.0"/>
<line x1="283.1" y1="403.5" x2="315.8" y2="417.4" stroke="rgb(76,76,76)"  stroke-width="2.0"/>
<line x1="284.3" y1="400.8" x2="253.4" y2="418.0" stroke="rgb(76,76,76)"  stroke-width="2.0"/>
<line x1="214.8" y1="378.1" x2="218.2" y2="400.5" stroke="rgb(76,76,76)"  stroke-width="2.0"/>
<line x1="98.0" y1="109.3" x2="54.2" y2="79.1" stroke="rgb(76,76,76)"  stroke-width="2.0"/>
<line x1="98.0" y1="109.3" x2="109.8" y2="124.1" stroke="rgb(76,76,76)"  stroke-width="2.0"/>
<line x1="219.5" y1="397.8" x2="254.7" y2="415.4" stroke="rgb(76,76,76)"  stroke-width="2.0"/>
<line x1="216.9" y1="403.2" x2="252.1" y2="420.7" stroke="rgb(76,76,76)"  stroke-width="2.0"/>
<line x1="218.2" y1="400.5" x2="188.1" y2="416.8" stroke="rgb(76,76,76)"  stroke-width="2.0"/>
<line x1="55.3" y1="379.6" x2="97.9" y2="345.2" stroke="rgb(76,76,76)"  stroke-width="2.0"/>
<line x1="151.4" y1="396.7" x2="189.4" y2="414.1" stroke="rgb(76,76,76)"  stroke-width="2.0"/>
<line x1="148.9" y1="402.2" x2="186.9" y2="419.6" stroke="rgb(76,76,76)"  stroke-width="2.0"/>
<line x1="257.5" y1="74.4" x2="281.4" y2="85.7" stroke="rgb(76,76,76)"  stroke-width="2.0"/>
<line x1="259.0" y1="77.0" x2="230.4" y2="94.0" stroke="rgb(76,76,76)"  stroke-width="2.0"/>
<line x1="255.9" y1="71.8" x2="227.3" y2="88.9" stroke="rgb(76,76,76)"  stroke-width="2.0"/>
<line x1="228.9" y1="91.5" x2="192.8" y2="73.0" stroke="rgb(76,76,76)"  stroke-width="2.0"/>
<line x1="228.9" y1="91.5" x2="232.1" y2="115.2" stroke="rgb(76,76,76)"  stroke-width="2.0"/>
<line x1="192.8" y1="73.0" x2="172.7" y2="83.7" stroke="rgb(76,76,76)"  stroke-width="2.0"/>
<line x1="109.8" y1="124.1" x2="97.9" y2="112.6" stroke="rgb(76,76,76)"  stroke-width="2.0"/>
<line x1="95.5" y1="114.4" x2="74.5" y2="86.6" stroke="rgb(76,76,76)"  stroke-width="2.0"/>
<line x1="100.3" y1="110.7" x2="79.3" y2="83.0" stroke="rgb(76,76,76)"  stroke-width="2.0"/>
<line x1="97.9" y1="112.6" x2="109.0" y2="133.8" stroke="rgb(76,76,76)"  stroke-width="2.0"/>
<line x1="142.0" y1="173.6" x2="132.2" y2="165.7" stroke="rgb(76,76,76)"  stroke-width="2.0"/>
<line x1="92.7" y1="348.9" x2="105.3" y2="336.9" stroke="rgb(76,76,76)"  stroke-width="2.0"/>
<line x1="134.4" y1="290.2" x2="128.2" y2="304.9" stroke="rgb(76,76,76)"  stroke-width="2.0"/>
<line x1="156.7" y1="206.4" x2="140.9" y2="185.2" stroke="rgb(76,76,76)"  stroke-width="2.0"/>
<line x1="97.2" y1="125.5" x2="81.6" y2="104.2" stroke="rgb(76,76,76)"  stroke-width="2.0"/>
<line x1="81.6" y1="376.7" x2="97.2" y2="355.4" stroke="rgb(76,76,76)"  stroke-width="2.0"/>
<line x1="140.9" y1="295.7" x2="156.7" y2="274.5" stroke="rgb(76,76,76)"  stroke-width="2.0"/>
<line x1="128.2" y1="176.0" x2="134.4" y2="190.7" stroke="rgb(76,76,76)"  stroke-width="2.0"/>
<line x1="105.3" y1="144.0" x2="92.7" y2="132.0" stroke="rgb(76,76,76)"  stroke-width="2.0"/>
<line x1="109.0" y1="347.1" x2="97.9" y2="368.3" stroke="rgb(76,76,76)"  stroke-width="2.0"/>
<line x1="132.2" y1="315.2" x2="142.0" y2="307.3" stroke="rgb(76,76,76)"  stroke-width="2.0"/>
<line x1="74.5" y1="394.3" x2="95.5" y2="366.5" stroke="rgb(76,76,76)"  stroke-width="2.0"/>
<line x1="79.3" y1="397.9" x2="100.3" y2="370.1" stroke="rgb(76,76,76)"  stroke-width="2.0"/>
<line x1="97.9" y1="368.3" x2="109.8" y2="356.8" stroke="rgb(76,76,76)"  stroke-width="2.0"/>
<line x1="172.7" y1="397.2" x2="192.8" y2="407.9" stroke="rgb(76,76,76)"  stroke-width="2.0"/>
<line x1="232.1" y1="365.7" x2="228.9" y2="389.4" stroke="rgb(76,76,76)"  stroke-width="2.0"/>
<line x1="109.8" y1="356.8" x2="98.0" y2="371.6" stroke="rgb(76,76,76)"  stroke-width="2.0"/>
<line x1="192.8" y1="407.9" x2="228.9" y2="389.4" stroke="rgb(76,76,76)"  stroke-width="2.0"/>
<line x1="230.4" y1="386.9" x2="259.0" y2="403.9" stroke="rgb(76,76,76)"  stroke-width="2.0"/>
<line x1="227.3" y1="392.0" x2="255.9" y2="409.1" stroke="rgb(76,76,76)"  stroke-width="2.0"/>
<line x1="281.4" y1="395.2" x2="257.5" y2="406.5" stroke="rgb(76,76,76)"  stroke-width="2.0"/>
<line x1="189.4" y1="66.8" x2="151.4" y2="84.2" stroke="rgb(76,76,76)"  stroke-width="2.0"/>
<line x1="186.9" y1="61.3" x2="148.9" y2="78.7" stroke="rgb(76,76,76)"  stroke-width="2.0"/>
<line x1="188.1" y1="64.0" x2="218.2" y2="80.4" stroke="rgb(76,76,76)"  stroke-width="2.0"/>
<line x1="254.7" y1="65.5" x2="219.5" y2="83.1" stroke="rgb(76,76,76)"  stroke-width="2.0"/>
<line x1="252.1" y1="60.2" x2="216.9" y2="77.7" stroke="rgb(76,76,76)"  stroke-width="2.0"/>
<line x1="253.4" y1="62.9" x2="284.3" y2="80.1" stroke="rgb(76,76,76)"  stroke-width="2.0"/>
<line x1="218.2" y1="80.4" x2="214.8" y2="102.8" stroke="rgb(76,76,76)"  stroke-width="2.0"/>
<line x1="54.2" y1="401.7" x2="98.0" y2="371.6" stroke="rgb(76,76,76)"  stroke-width="2.0"/>
<line x1="98.0" y1="371.6" x2="137.2" y2="397.4" stroke="rgb(76,76,76)"  stroke-width="2.0"/>
<line x1="318.1" y1="69.0" x2="285.4" y2="82.9" stroke="rgb(76,76,76)"  stroke-width="2.0"/>
<line x1="315.8" y1="63.5" x2="283.1" y2="77.4" stroke="rgb(76,76,76)"  stroke-width="2.0"/>
<line x1="282.0" y1="143.0" x2="273.3" y2="162.5" stroke="rgb(76,76,76)"  stroke-width="2.0"/>
<line x1="287.3" y1="146.0" x2="288.1" y2="144.2" stroke="rgb(76,76,76)"  stroke-width="2.0" stroke-dasharray="5.0,5.0"/>
<line x1="273.3" y1="162.5" x2="286.0" y2="153.3" stroke="rgb(76,76,76)"  stroke-width="2.0"/>
<line x1="288.0" y1="144.2" x2="281.7" y2="148.9" stroke="rgb(76,76,76)"  stroke-width="2.0" stroke-dasharray="5.0,5.0"/>
<line x1="286.0" y1="153.3" x2="308.9" y2="121.2" stroke="rgb(76,76,76)"  stroke-width="2.0"/>
<line x1="281.6" y1="148.9" x2="303.6" y2="118.3" stroke="rgb(76,76,76)"  stroke-width="2.0" stroke-dasharray="5.0,5.0"/>
<line x1="308.9" y1="121.2" x2="317.0" y2="102.7" stroke="rgb(76,76,76)"  stroke-width="2.0"/>
<line x1="303.6" y1="118.3" x2="302.8" y2="120.1" stroke="rgb(76,76,76)"  stroke-width="2.0" stroke-dasharray="5.0,5.0"/>
<line x1="317.0" y1="102.7" x2="305.2" y2="111.0" stroke="rgb(76,76,76)"  stroke-width="2.0"/>
<line x1="302.8" y1="120.1" x2="309.4" y2="115.4" stroke="rgb(76,76,76)"  stroke-width="2.0" stroke-dasharray="5.0,5.0"/>
<line x1="305.2" y1="111.0" x2="282.0" y2="143.0" stroke="rgb(76,76,76)"  stroke-width="2.0"/>
<line x1="309.4" y1="115.5" x2="287.3" y2="146.0" stroke="rgb(76,76,76)"  stroke-width="2.0" stroke-dasharray="5.0,5.0"/>
<line x1="305.2" y1="324.4" x2="282.0" y2="292.4" stroke="rgb(76,76,76)"  stroke-width="2.0"/>
<line x1="309.4" y1="319.9" x2="287.3" y2="289.4" stroke="rgb(76,76,76)"  stroke-width="2.0" stroke-dasharray="5.0,5.0"/>
<line x1="282.0" y1="292.4" x2="273.3" y2="272.9" stroke="rgb(76,76,76)"  stroke-width="2.0"/>
<line x1="287.3" y1="289.4" x2="288.1" y2="291.2" stroke="rgb(76,76,76)"  stroke-width="2.0" stroke-dasharray="5.0,5.0"/>
<line x1="273.3" y1="272.9" x2="286.0" y2="282.1" stroke="rgb(76,76,76)"  stroke-width="2.0"/>
<line x1="288.0" y1="291.2" x2="281.7" y2="286.5" stroke="rgb(76,76,76)"  stroke-width="2.0" stroke-dasharray="5.0,5.0"/>
<line x1="286.0" y1="282.1" x2="308.9" y2="314.2" stroke="rgb(76,76,76)"  stroke-width="2.0"/>
<line x1="281.6" y1="286.5" x2="303.6" y2="317.1" stroke="rgb(76,76,76)"  stroke-width="2.0" stroke-dasharray="5.0,5.0"/>
<line x1="308.9" y1="314.2" x2="317.0" y2="332.7" stroke="rgb(76,76,76)"  stroke-width="2.0"/>
<line x1="303.6" y1="317.1" x2="302.8" y2="315.3" stroke="rgb(76,76,76)"  stroke-width="2.0" stroke-dasharray="5.0,5.0"/>
<line x1="317.0" y1="332.7" x2="305.2" y2="324.4" stroke="rgb(76,76,76)"  stroke-width="2.0"/>
<line x1="302.8" y1="315.3" x2="309.4" y2="320.0" stroke="rgb(76,76,76)"  stroke-width="2.0" stroke-dasharray="5.0,5.0"/>
<line x1="128.2" y1="176.0" x2="140.9" y2="185.2" stroke="rgb(76,76,76)"  stroke-width="2.0"/>
<line x1="135.0" y1="169.1" x2="117.7" y2="156.5" stroke="rgb(76,76,76)"  stroke-width="2.0" stroke-dasharray="5.0,5.0"/>
<line x1="140.9" y1="185.2" x2="132.2" y2="165.7" stroke="rgb(76,76,76)"  stroke-width="2.0"/>
<line x1="117.6" y1="156.5" x2="123.9" y2="170.5" stroke="rgb(76,76,76)"  stroke-width="2.0" stroke-dasharray="5.0,5.0"/>
<line x1="132.2" y1="165.7" x2="109.0" y2="133.8" stroke="rgb(76,76,76)"  stroke-width="2.0"/>
<line x1="123.9" y1="170.5" x2="102.3" y2="140.8" stroke="rgb(76,76,76)"  stroke-width="2.0" stroke-dasharray="5.0,5.0"/>
<line x1="109.0" y1="133.8" x2="97.2" y2="125.5" stroke="rgb(76,76,76)"  stroke-width="2.0"/>
<line x1="102.3" y1="140.7" x2="119.5" y2="152.8" stroke="rgb(76,76,76)"  stroke-width="2.0" stroke-dasharray="5.0,5.0"/>
<line x1="97.2" y1="125.5" x2="105.3" y2="144.0" stroke="rgb(76,76,76)"  stroke-width="2.0"/>
<line x1="119.6" y1="152.8" x2="113.7" y2="139.3" stroke="rgb(76,76,76)"  stroke-width="2.0" stroke-dasharray="5.0,5.0"/>
<line x1="105.3" y1="144.0" x2="128.2" y2="176.0" stroke="rgb(76,76,76)"  stroke-width="2.0"/>
<line x1="113.7" y1="139.3" x2="135.1" y2="169.1" stroke="rgb(76,76,76)"  stroke-width="2.0" stroke-dasharray="5.0,5.0"/>
<line x1="109.0" y1="347.1" x2="132.2" y2="315.2" stroke="rgb(76,76,76)"  stroke-width="2.0"/>
<line x1="102.1" y1="339.9" x2="123.6" y2="310.3" stroke="rgb(76,76,76)"  stroke-width="2.0" stroke-dasharray="5.0,5.0"/>
<line x1="132.2" y1="315.2" x2="140.9" y2="295.7" stroke="rgb(76,76,76)"  stroke-width="2.0"/>
<line x1="123.6" y1="310.3" x2="116.9" y2="325.3" stroke="rgb(76,76,76)"  stroke-width="2.0" stroke-dasharray="5.0,5.0"/>
<line x1="140.9" y1="295.7" x2="128.2" y2="304.9" stroke="rgb(76,76,76)"  stroke-width="2.0"/>
<line x1="117.0" y1="325.3" x2="135.2" y2="312.0" stroke="rgb(76,76,76)"  stroke-width="2.0" stroke-dasharray="5.0,5.0"/>
<line x1="128.2" y1="304.9" x2="105.3" y2="336.9" stroke="rgb(76,76,76)"  stroke-width="2.0"/>
<line x1="135.3" y1="312.0" x2="113.9" y2="341.7" stroke="rgb(76,76,76)"  stroke-width="2.0" stroke-dasharray="5.0,5.0"/>
<line x1="105.3" y1="336.9" x2="97.2" y2="355.4" stroke="rgb(76,76,76)"  stroke-width="2.0"/>
<line x1="113.9" y1="341.7" x2="120.2" y2="327.2" stroke="rgb(76,76,76)"  stroke-width="2.0" stroke-dasharray="5.0,5.0"/>
<line x1="97.2" y1="355.4" x2="109.0" y2="347.1" stroke="rgb(76,76,76)"  stroke-width="2.0"/>
<line x1="120.2" y1="327.3" x2="102.1" y2="339.9" stroke="rgb(76,76,76)"  stroke-width="2.0" stroke-dasharray="5.0,5.0"/>
<line x1="348.8" y1="395.4" x2="358.9" y2="356.8" stroke="rgb(76,76,76)"  stroke-width="2.0"/>
<line x1="358.9" y1="356.8" x2="316.3" y2="322.5" stroke="rgb(76,76,76)"  stroke-width="2.0"/>
<line x1="316.3" y1="322.5" x2="267.3" y2="346.0" stroke="rgb(76,76,76)"  stroke-width="2.0"/>
<line x1="267.3" y1="346.0" x2="264.0" y2="376.7" stroke="rgb(76,76,76)"  stroke-width="2.0"/>
<line x1="264.0" y1="376.7" x2="290.9" y2="393.9" stroke="rgb(76,76,76)"  stroke-width="2.0"/>
<line x1="290.9" y1="393.9" x2="348.8" y2="395.4" stroke="rgb(76,76,76)"  stroke-width="2.0"/>
<line x1="321.5" y1="326.1" x2="342.1" y2="354.7" stroke="rgb(76,76,76)"  stroke-width="2.0"/>
<line x1="342.1" y1="354.7" x2="348.8" y2="395.4" stroke="rgb(76,76,76)"  stroke-width="2.0"/>
<line x1="316.3" y1="322.5" x2="312.8" y2="307.8" stroke="rgb(76,76,76)"  stroke-width="2.0"/>
<line x1="312.8" y1="307.8" x2="321.5" y2="326.1" stroke="rgb(76,76,76)"  stroke-width="2.0"/>
<line x1="316.3" y1="112.9" x2="267.3" y2="89.4" stroke="rgb(76,76,76)"  stroke-width="2.0"/>
<line x1="267.3" y1="89.4" x2="264.0" y2="58.7" stroke="rgb(76,76,76)"  stroke-width="2.0"/>
<line x1="264.0" y1="58.7" x2="290.9" y2="41.5" stroke="rgb(76,76,76)"  stroke-width="2.0"/>
<line x1="290.9" y1="41.5" x2="348.8" y2="40.0" stroke="rgb(76,76,76)"  stroke-width="2.0"/>
<line x1="348.8" y1="40.0" x2="358.9" y2="78.6" stroke="rgb(76,76,76)"  stroke-width="2.0"/>
<line x1="358.9" y1="78.6" x2="316.3" y2="112.9" stroke="rgb(76,76,76)"  stroke-width="2.0"/>
<line x1="321.5" y1="109.3" x2="342.1" y2="80.7" stroke="rgb(76,76,76)"  stroke-width="2.0"/>
<line x1="342.1" y1="80.7" x2="348.8" y2="40.0" stroke="rgb(76,76,76)"  stroke-width="2.0"/>
<line x1="316.3" y1="112.9" x2="312.8" y2="127.6" stroke="rgb(76,76,76)"  stroke-width="2.0"/>
<line x1="312.8" y1="127.6" x2="321.5" y2="109.3" stroke="rgb(76,76,76)"  stroke-width="2.0"/>
<line x1="97.9" y1="135.7" x2="55.3" y2="101.3" stroke="rgb(76,76,76)"  stroke-width="2.0"/>
<line x1="55.3" y1="101.3" x2="65.4" y2="62.7" stroke="rgb(76,76,76)"  stroke-width="2.0"/>
<line x1="65.4" y1="62.7" x2="72.1" y2="103.4" stroke="rgb(76,76,76)"  stroke-width="2.0"/>
<line x1="72.1" y1="103.4" x2="92.7" y2="132.0" stroke="rgb(76,76,76)"  stroke-width="2.0"/>
<line x1="92.7" y1="132.0" x2="101.4" y2="150.4" stroke="rgb(76,76,76)"  stroke-width="2.0"/>
<line x1="101.4" y1="150.4" x2="97.9" y2="135.7" stroke="rgb(76,76,76)"  stroke-width="2.0"/>
<line x1="150.2" y1="81.4" x2="123.3" y2="64.3" stroke="rgb(76,76,76)"  stroke-width="2.0"/>
<line x1="123.3" y1="64.3" x2="65.4" y2="62.7" stroke="rgb(76,76,76)"  stroke-width="2.0"/>
<line x1="97.9" y1="135.7" x2="146.9" y2="112.2" stroke="rgb(76,76,76)"  stroke-width="2.0"/>
<line x1="146.9" y1="112.2" x2="150.2" y2="81.4" stroke="rgb(76,76,76)"  stroke-width="2.0"/>
<line x1="97.9" y1="345.2" x2="101.4" y2="330.5" stroke="rgb(76,76,76)"  stroke-width="2.0"/>
<line x1="101.4" y1="330.5" x2="92.7" y2="348.9" stroke="rgb(76,76,76)"  stroke-width="2.0"/>
<line x1="92.7" y1="348.9" x2="72.1" y2="377.4" stroke="rgb(76,76,76)"  stroke-width="2.0"/>
<line x1="72.1" y1="377.4" x2="65.4" y2="418.1" stroke="rgb(76,76,76)"  stroke-width="2.0"/>
<line x1="65.4" y1="418.1" x2="123.3" y2="416.6" stroke="rgb(76,76,76)"  stroke-width="2.0"/>
<line x1="123.3" y1="416.6" x2="150.2" y2="399.5" stroke="rgb(76,76,76)"  stroke-width="2.0"/>
<line x1="150.2" y1="399.5" x2="146.9" y2="368.7" stroke="rgb(76,76,76)"  stroke-width="2.0"/>
<line x1="146.9" y1="368.7" x2="97.9" y2="345.2" stroke="rgb(76,76,76)"  stroke-width="2.0"/>
<circle cx="40.000000" cy="394.697365" r="8.133333" opacity="1.000000" style="stroke:black;fill:url(#radialffffff7c7faf)"/>
<circle cx="277.023709" cy="60.789021" r="4.400000" opacity="1.000000" style="stroke:black;fill:url(#radialffffffffcc)"/>
<text x="281.823709" y="56.757021" fill="rgb(255,12,12)"  stroke="rgb(255,12,12)" stroke-width="1" font-size="16" ></text>
<text x="281.823709" y="56.757021" fill="rgb(255,12,12)"  stroke="rgb(255,12,12)" stroke-width="1" font-size="32" >.</text>
<circle cx="129.936661" cy="378.026952" r="5.066667" opacity="1.000000" style="stroke:black;fill:url(#radialffffff666666)"/>
<text x="134.736661" y="373.994952" fill="rgb(102,102,102)"  stroke="rgb(102,102,102)" stroke-width="1" font-size="16" ></text>
<text x="134.736661" y="373.994952" fill="rgb(102,102,102)"  stroke="rgb(102,102,102)" stroke-width="1" font-size="32" >.</text>
<circle cx="97.284072" cy="391.871985" r="4.400000" opacity="1.000000" style="stroke:black;fill:url(#radialffffffffcc)"/>
<circle cx="199.419500" cy="355.322257" r="2.066667" opacity="1.000000" style="stroke:black;fill:url(#radialffffffbfbfbf)"/>
<circle cx="316.230212" cy="86.527079" r="8.133333" opacity="1.000000" style="stroke:black;fill:url(#radialffffff7c7faf)"/>
<circle cx="267.264696" cy="345.985194" r="4.400000" opacity="1.000000" style="stroke:black;fill:url(#radialffffffffcc)"/>
<circle cx="360.042166" cy="56.396700" r="4.400000" opacity="1.000000" style="stroke:black;fill:url(#radialffffffffcc)"/>
<text x="364.842166" y="52.364700" fill="rgb(255,12,12)"  stroke="rgb(255,12,12)" stroke-width="1" font-size="16" ></text>
<text x="364.842166" y="52.364700" fill="rgb(255,12,12)"  stroke="rgb(255,12,12)" stroke-width="1" font-size="32" >.</text>
<circle cx="196.010530" cy="377.733451" r="5.066667" opacity="1.000000" style="stroke:black;fill:url(#radialffffff666666)"/>
<text x="200.810530" y="373.701451" fill="rgb(102,102,102)"  stroke="rgb(102,102,102)" stroke-width="1" font-size="16" ></text>
<text x="200.810530" y="373.701451" fill="rgb(102,102,102)"  stroke="rgb(102,102,102)" stroke-width="1" font-size="32" >.</text>
<circle cx="358.939264" cy="356.833000" r="4.400000" opacity="1.000000" style="stroke:black;fill:url(#radialffffffffcc)"/>
<circle cx="160.817923" cy="395.287384" r="5.066667" opacity="1.000000" style="stroke:black;fill:url(#radialffffff666666)"/>
<text x="165.617923" y="391.255384" fill="rgb(102,102,102)"  stroke="rgb(102,102,102)" stroke-width="1" font-size="16" ></text>
<text x="165.617923" y="391.255384" fill="rgb(102,102,102)"  stroke="rgb(102,102,102)" stroke-width="1" font-size="32" >.</text>
<circle cx="316.337160" cy="322.485416" r="8.133333" opacity="1.000000" style="stroke:black;fill:url(#radialffffff7c7faf)"/>
<circle cx="264.022832" cy="376.709043" r="5.066667" opacity="1.000000" style="stroke:black;fill:url(#radialffffff666666)"/>
<circle cx="226.089680" cy="394.099346" r="5.066667" opacity="1.000000" style="stroke:black;fill:url(#radialffffff666666)"/>
<text x="230.889680" y="390.067346" fill="rgb(102,102,102)"  stroke="rgb(102,102,102)" stroke-width="1" font-size="16" ></text>
<text x="230.889680" y="390.067346" fill="rgb(102,102,102)"  stroke="rgb(102,102,102)" stroke-width="1" font-size="32" >.</text>
<circle cx="156.740527" cy="51.666664" r="5.066667" opacity="1.000000" style="stroke:black;fill:url(#radialffffff666666)"/>
<text x="161.540527" y="47.634664" fill="rgb(102,102,102)"  stroke="rgb(102,102,102)" stroke-width="1" font-size="16" ></text>
<text x="161.540527" y="47.634664" fill="rgb(102,102,102)"  stroke="rgb(102,102,102)" stroke-width="1" font-size="32" >.</text>
<circle cx="132.777470" cy="62.910696" r="2.066667" opacity="1.000000" style="stroke:black;fill:url(#radialffffffbfbfbf)"/>
<circle cx="290.893540" cy="393.867946" r="4.400000" opacity="1.000000" style="stroke:black;fill:url(#radialffffffffcc)"/>
<circle cx="185.349142" cy="68.715815" r="5.066667" opacity="1.000000" style="stroke:black;fill:url(#radialffffff666666)"/>
<circle cx="221.377280" cy="50.272052" r="5.066667" opacity="1.000000" style="stroke:black;fill:url(#radialffffff666666)"/>
<text x="226.177280" y="46.240052" fill="rgb(102,102,102)"  stroke="rgb(102,102,102)" stroke-width="1" font-size="16" ></text>
<text x="226.177280" y="46.240052" fill="rgb(102,102,102)"  stroke="rgb(102,102,102)" stroke-width="1" font-size="32" >..</text>
<circle cx="304.462579" cy="101.374255" r="4.400000" opacity="1.000000" style="stroke:black;fill:url(#radialffffffffcc)"/>
<circle cx="348.832669" cy="395.394598" r="8.133333" opacity="1.000000" style="stroke:black;fill:url(#radialffffff7c7faf)"/>
<circle cx="182.073856" cy="92.455288" r="2.066667" opacity="1.000000" style="stroke:black;fill:url(#radialffffffbfbfbf)"/>
<circle cx="241.530311" cy="60.957264" r="2.066667" opacity="1.000000" style="stroke:black;fill:url(#radialffffffbfbfbf)"/>
<circle cx="312.817899" cy="307.775845" r="4.400000" opacity="1.000000" style="stroke:black;fill:url(#radialffffffffcc)"/>
<circle cx="316.327133" cy="89.802079" r="5.066667" opacity="1.000000" style="stroke:black;fill:url(#radialffffff666666)"/>
<circle cx="337.282275" cy="62.032590" r="4.400000" opacity="1.000000" style="stroke:black;fill:url(#radialffffffffcc)"/>
<circle cx="272.244467" cy="150.892112" r="2.066667" opacity="1.000000" style="stroke:black;fill:url(#radialffffffbfbfbf)"/>
<circle cx="321.507432" cy="326.106977" r="5.066667" opacity="1.000000" style="stroke:black;fill:url(#radialffffff666666)"/>
<text x="326.307432" y="322.074977" fill="rgb(102,102,102)"  stroke="rgb(102,102,102)" stroke-width="1" font-size="16" ></text>
<text x="326.307432" y="322.074977" fill="rgb(102,102,102)"  stroke="rgb(102,102,102)" stroke-width="1" font-size="32" >.</text>
<circle cx="342.094939" cy="354.696373" r="4.400000" opacity="1.000000" style="stroke:black;fill:url(#radialffffffffcc)"/>
<circle cx="281.970059" cy="142.959154" r="5.066667" opacity="1.000000" style="stroke:black;fill:url(#radialffffff666666)"/>
<circle cx="279.831097" cy="267.416157" r="2.066667" opacity="1.000000" style="stroke:black;fill:url(#radialffffffbfbfbf)"/>
<circle cx="305.164426" cy="111.005759" r="5.066667" opacity="1.000000" style="stroke:black;fill:url(#radialffffff666666)"/>
<circle cx="308.941031" cy="314.157651" r="5.066667" opacity="1.000000" style="stroke:black;fill:url(#radialffffff666666)"/>
<circle cx="285.980612" cy="282.144551" r="5.066667" opacity="1.000000" style="stroke:black;fill:url(#radialffffff666666)"/>
<circle cx="257.472261" cy="183.606896" r="2.066667" opacity="1.000000" style="stroke:black;fill:url(#radialffffffbfbfbf)"/>
<circle cx="273.280526" cy="162.476564" r="5.066667" opacity="1.000000" style="stroke:black;fill:url(#radialffffff666666)"/>
<circle cx="316.995559" cy="102.716005" r="5.066667" opacity="1.000000" style="stroke:black;fill:url(#radialffffff666666)"/>
<circle cx="332.569875" cy="81.438246" r="2.066667" opacity="1.000000" style="stroke:black;fill:url(#radialffffffbfbfbf)"/>
<circle cx="332.569875" cy="353.956353" r="2.066667" opacity="1.000000" style="stroke:black;fill:url(#radialffffffbfbfbf)"/>
<circle cx="316.995559" cy="332.678594" r="5.066667" opacity="1.000000" style="stroke:black;fill:url(#radialffffff666666)"/>
<circle cx="273.280526" cy="272.918034" r="5.066667" opacity="1.000000" style="stroke:black;fill:url(#radialffffff666666)"/>
<circle cx="257.472261" cy="251.787702" r="2.066667" opacity="1.000000" style="stroke:black;fill:url(#radialffffffbfbfbf)"/>
<circle cx="285.980612" cy="153.250047" r="5.066667" opacity="1.000000" style="stroke:black;fill:url(#radialffffff666666)"/>
<circle cx="308.941031" cy="121.236947" r="5.066667" opacity="1.000000" style="stroke:black;fill:url(#radialffffff666666)"/>
<circle cx="305.164426" cy="324.388839" r="5.066667" opacity="1.000000" style="stroke:black;fill:url(#radialffffff666666)"/>
<circle cx="279.831097" cy="167.978441" r="2.066667" opacity="1.000000" style="stroke:black;fill:url(#radialffffffbfbfbf)"/>
<circle cx="281.970059" cy="292.435444" r="5.066667" opacity="1.000000" style="stroke:black;fill:url(#radialffffff666666)"/>
<circle cx="342.094939" cy="80.698225" r="4.400000" opacity="1.000000" style="stroke:black;fill:url(#radialffffffffcc)"/>
<circle cx="321.507432" cy="109.287622" r="5.066667" opacity="1.000000" style="stroke:black;fill:url(#radialffffff666666)"/>
<text x="326.307432" y="105.255622" fill="rgb(102,102,102)"  stroke="rgb(102,102,102)" stroke-width="1" font-size="16" ></text>
<text x="326.307432" y="105.255622" fill="rgb(102,102,102)"  stroke="rgb(102,102,102)" stroke-width="1" font-size="32" >.</text>
<circle cx="272.244467" cy="284.502486" r="2.066667" opacity="1.000000" style="stroke:black;fill:url(#radialffffffbfbfbf)"/>
<circle cx="337.282275" cy="373.362009" r="4.400000" opacity="1.000000" style="stroke:black;fill:url(#radialffffffffcc)"/>
<circle cx="316.327133" cy="345.592519" r="5.066667" opacity="1.000000" style="stroke:black;fill:url(#radialffffff666666)"/>
<circle cx="312.817899" cy="127.618753" r="4.400000" opacity="1.000000" style="stroke:black;fill:url(#radialffffffffcc)"/>
<circle cx="241.530311" cy="374.437334" r="2.066667" opacity="1.000000" style="stroke:black;fill:url(#radialffffffbfbfbf)"/>
<circle cx="182.073856" cy="342.939310" r="2.066667" opacity="1.000000" style="stroke:black;fill:url(#radialffffffbfbfbf)"/>
<circle cx="348.832669" cy="40.000000" r="8.133333" opacity="1.000000" style="stroke:black;fill:url(#radialffffff7c7faf)"/>
<circle cx="304.462579" cy="334.020343" r="4.400000" opacity="1.000000" style="stroke:black;fill:url(#radialffffffffcc)"/>
<circle cx="221.377280" cy="385.122546" r="5.066667" opacity="1.000000" style="stroke:black;fill:url(#radialffffff666666)"/>
<text x="226.177280" y="381.090546" fill="rgb(102,102,102)"  stroke="rgb(102,102,102)" stroke-width="1" font-size="16" ></text>
<text x="226.177280" y="381.090546" fill="rgb(102,102,102)"  stroke="rgb(102,102,102)" stroke-width="1" font-size="32" >..</text>
<circle cx="185.349142" cy="366.678783" r="5.066667" opacity="1.000000" style="stroke:black;fill:url(#radialffffff666666)"/>
<circle cx="290.893540" cy="41.526652" r="4.400000" opacity="1.000000" style="stroke:black;fill:url(#radialffffffffcc)"/>
<circle cx="132.777470" cy="372.483902" r="2.066667" opacity="1.000000" style="stroke:black;fill:url(#radialffffffbfbfbf)"/>
<circle cx="156.740527" cy="383.727934" r="5.066667" opacity="1.000000" style="stroke:black;fill:url(#radialffffff666666)"/>
<text x="161.540527" y="379.695934" fill="rgb(102,102,102)"  stroke="rgb(102,102,102)" stroke-width="1" font-size="16" ></text>
<text x="161.540527" y="379.695934" fill="rgb(102,102,102)"  stroke="rgb(102,102,102)" stroke-width="1" font-size="32" >.</text>
<circle cx="226.089680" cy="41.295253" r="5.066667" opacity="1.000000" style="stroke:black;fill:url(#radialffffff666666)"/>
<text x="230.889680" y="37.263253" fill="rgb(102,102,102)"  stroke="rgb(102,102,102)" stroke-width="1" font-size="16" ></text>
<text x="230.889680" y="37.263253" fill="rgb(102,102,102)"  stroke="rgb(102,102,102)" stroke-width="1" font-size="32" >.</text>
<circle cx="264.022832" cy="58.685555" r="5.066667" opacity="1.000000" style="stroke:black;fill:url(#radialffffff666666)"/>
<circle cx="316.337160" cy="112.909183" r="8.133333" opacity="1.000000" style="stroke:black;fill:url(#radialffffff7c7faf)"/>
<circle cx="160.817923" cy="40.107214" r="5.066667" opacity="1.000000" style="stroke:black;fill:url(#radialffffff666666)"/>
<text x="165.617923" y="36.075214" fill="rgb(102,102,102)"  stroke="rgb(102,102,102)" stroke-width="1" font-size="16" ></text>
<text x="165.617923" y="36.075214" fill="rgb(102,102,102)"  stroke="rgb(102,102,102)" stroke-width="1" font-size="32" >.</text>
<circle cx="358.939264" cy="78.561598" r="4.400000" opacity="1.000000" style="stroke:black;fill:url(#radialffffffffcc)"/>
<circle cx="196.010530" cy="57.661147" r="5.066667" opacity="1.000000" style="stroke:black;fill:url(#radialffffff666666)"/>
<circle cx="360.042166" cy="378.997899" r="4.400000" opacity="1.000000" style="stroke:black;fill:url(#radialffffffffcc)"/>
<text x="364.842166" y="374.965899" fill="rgb(255,12,12)"  stroke="rgb(255,12,12)" stroke-width="1" font-size="16" ></text>
<text x="364.842166" y="374.965899" fill="rgb(255,12,12)"  stroke="rgb(255,12,12)" stroke-width="1" font-size="32" >.</text>
<circle cx="267.264696" cy="89.409405" r="4.400000" opacity="1.000000" style="stroke:black;fill:url(#radialffffffffcc)"/>
<circle cx="316.230212" cy="348.867519" r="8.133333" opacity="1.000000" style="stroke:black;fill:url(#radialffffff7c7faf)"/>
<circle cx="199.419500" cy="80.072341" r="2.066667" opacity="1.000000" style="stroke:black;fill:url(#radialffffffbfbfbf)"/>
<circle cx="97.284072" cy="43.522613" r="4.400000" opacity="1.000000" style="stroke:black;fill:url(#radialffffffffcc)"/>
<circle cx="129.936661" cy="57.367646" r="5.066667" opacity="1.000000" style="stroke:black;fill:url(#radialffffff666666)"/>
<circle cx="277.023709" cy="374.605577" r="4.400000" opacity="1.000000" style="stroke:black;fill:url(#radialffffffffcc)"/>
<circle cx="40.000000" cy="417.445890" r="8.161081" opacity="1.000000" style="stroke:black;fill:url(#radialffffff7c7faf)"/>
<circle cx="137.189079" cy="83.537546" r="4.445033" opacity="1.000000" style="stroke:black;fill:url(#radialffffffffcc)"/>
<circle cx="284.276127" cy="400.775476" r="5.349334" opacity="1.000000" style="stroke:black;fill:url(#radialffffff666666)"/>
<circle cx="316.928716" cy="414.620510" r="4.700221" opacity="1.000000" style="stroke:black;fill:url(#radialffffffffcc)"/>
<circle cx="214.793288" cy="378.070781" r="2.220951" opacity="1.000000" style="stroke:black;fill:url(#radialffffffbfbfbf)"/>
<circle cx="97.982577" cy="109.275604" r="8.847265" opacity="1.000000" style="stroke:black;fill:url(#radialffffff7c7faf)"/>
<circle cx="146.948092" cy="368.733718" r="4.875938" opacity="1.000000" style="stroke:black;fill:url(#radialffffffffcc)"/>
<circle cx="54.170622" cy="79.145224" r="4.879470" opacity="1.000000" style="stroke:black;fill:url(#radialffffffffcc)"/>
<text x="58.970622" y="75.113224" fill="rgb(255,12,12)"  stroke="rgb(255,12,12)" stroke-width="1" font-size="16" ></text>
<text x="58.970622" y="75.113224" fill="rgb(255,12,12)"  stroke="rgb(255,12,12)" stroke-width="1" font-size="32" >.</text>
<circle cx="218.202259" cy="400.481976" r="5.628952" opacity="1.000000" style="stroke:black;fill:url(#radialffffff666666)"/>
<circle cx="55.273524" cy="379.581525" r="4.890066" opacity="1.000000" style="stroke:black;fill:url(#radialffffffffcc)"/>
<circle cx="253.394865" cy="418.035909" r="5.645220" opacity="1.000000" style="stroke:black;fill:url(#radialffffff666666)"/>
<text x="258.194865" y="414.003909" fill="rgb(102,102,102)"  stroke="rgb(102,102,102)" stroke-width="1" font-size="16" ></text>
<text x="258.194865" y="414.003909" fill="rgb(102,102,102)"  stroke="rgb(102,102,102)" stroke-width="1" font-size="32" >.</text>
<circle cx="97.875629" cy="345.233940" r="9.081325" opacity="1.000000" style="stroke:black;fill:url(#radialffffff7c7faf)"/>
<circle cx="150.189956" cy="399.457568" r="5.854679" opacity="1.000000" style="stroke:black;fill:url(#radialffffff666666)"/>
<circle cx="188.123108" cy="416.847870" r="5.893317" opacity="1.000000" style="stroke:black;fill:url(#radialffffff666666)"/>
<text x="192.923108" y="412.815870" fill="rgb(102,102,102)"  stroke="rgb(102,102,102)" stroke-width="1" font-size="16" ></text>
<text x="192.923108" y="412.815870" fill="rgb(102,102,102)"  stroke="rgb(102,102,102)" stroke-width="1" font-size="32" >.</text>
<circle cx="257.472261" cy="74.415189" r="5.900435" opacity="1.000000" style="stroke:black;fill:url(#radialffffff666666)"/>
<text x="262.272261" y="70.383189" fill="rgb(102,102,102)"  stroke="rgb(102,102,102)" stroke-width="1" font-size="16" ></text>
<text x="262.272261" y="70.383189" fill="rgb(102,102,102)"  stroke="rgb(102,102,102)" stroke-width="1" font-size="32" >.</text>
<circle cx="281.435318" cy="85.659220" r="2.411733" opacity="1.000000" style="stroke:black;fill:url(#radialffffffbfbfbf)"/>
<circle cx="123.319248" cy="416.616470" r="5.277704" opacity="1.000000" style="stroke:black;fill:url(#radialffffffffcc)"/>
<circle cx="228.863647" cy="91.464339" r="6.132263" opacity="1.000000" style="stroke:black;fill:url(#radialffffff666666)"/>
<circle cx="192.835508" cy="73.020577" r="6.144465" opacity="1.000000" style="stroke:black;fill:url(#radialffffff666666)"/>
<text x="197.635508" y="68.988577" fill="rgb(102,102,102)"  stroke="rgb(102,102,102)" stroke-width="1" font-size="16" ></text>
<text x="197.635508" y="68.988577" fill="rgb(102,102,102)"  stroke="rgb(102,102,102)" stroke-width="1" font-size="32" >..</text>
<circle cx="109.750209" cy="124.122780" r="5.382781" opacity="1.000000" style="stroke:black;fill:url(#radialffffffffcc)"/>
<circle cx="65.380119" cy="418.143123" r="9.973657" opacity="1.000000" style="stroke:black;fill:url(#radialffffff7c7faf)"/>
<circle cx="232.138932" cy="115.203813" r="2.563529" opacity="1.000000" style="stroke:black;fill:url(#radialffffffbfbfbf)"/>
<circle cx="172.682477" cy="83.705789" r="2.580534" opacity="1.000000" style="stroke:black;fill:url(#radialffffffbfbfbf)"/>
<circle cx="101.394889" cy="330.524369" r="5.539956" opacity="1.000000" style="stroke:black;fill:url(#radialffffffffcc)"/>
<circle cx="97.885655" cy="112.550604" r="6.626423" opacity="1.000000" style="stroke:black;fill:url(#radialffffff666666)"/>
<circle cx="76.930513" cy="84.781114" r="5.797792" opacity="1.000000" style="stroke:black;fill:url(#radialffffffffcc)"/>
<circle cx="141.968322" cy="173.640637" r="2.738966" opacity="1.000000" style="stroke:black;fill:url(#radialffffffbfbfbf)"/>
<circle cx="92.705357" cy="348.855501" r="6.754539" opacity="1.000000" style="stroke:black;fill:url(#radialffffff666666)"/>
<text x="97.505357" y="344.823501" fill="rgb(102,102,102)"  stroke="rgb(102,102,102)" stroke-width="1" font-size="16" ></text>
<text x="97.505357" y="344.823501" fill="rgb(102,102,102)"  stroke="rgb(102,102,102)" stroke-width="1" font-size="32" >.</text>
<circle cx="72.117849" cy="377.444897" r="5.871965" opacity="1.000000" style="stroke:black;fill:url(#radialffffffffcc)"/>
<circle cx="132.242730" cy="165.707678" r="7.030089" opacity="1.000000" style="stroke:black;fill:url(#radialffffff666666)"/>
<circle cx="134.381691" cy="290.164681" r="2.872513" opacity="1.000000" style="stroke:black;fill:url(#radialffffffbfbfbf)"/>
<circle cx="109.048362" cy="133.754283" r="7.062626" opacity="1.000000" style="stroke:black;fill:url(#radialffffff666666)"/>
<circle cx="105.271758" cy="336.906176" r="7.275135" opacity="1.000000" style="stroke:black;fill:url(#radialffffff666666)"/>
<circle cx="128.232176" cy="304.893075" r="7.328009" opacity="1.000000" style="stroke:black;fill:url(#radialffffff666666)"/>
<circle cx="156.740527" cy="206.355420" r="3.035507" opacity="1.000000" style="stroke:black;fill:url(#radialffffffbfbfbf)"/>
<circle cx="140.932262" cy="185.225089" r="7.468326" opacity="1.000000" style="stroke:black;fill:url(#radialffffff666666)"/>
<circle cx="97.217229" cy="125.464529" r="7.550686" opacity="1.000000" style="stroke:black;fill:url(#radialffffff666666)"/>
<circle cx="81.642913" cy="104.186770" r="3.094401" opacity="1.000000" style="stroke:black;fill:url(#radialffffffbfbfbf)"/>
<circle cx="81.642913" cy="376.704877" r="3.126751" opacity="1.000000" style="stroke:black;fill:url(#radialffffffbfbfbf)"/>
<circle cx="97.217229" cy="355.427118" r="7.701171" opacity="1.000000" style="stroke:black;fill:url(#radialffffff666666)"/>
<circle cx="140.932262" cy="295.666558" r="7.783531" opacity="1.000000" style="stroke:black;fill:url(#radialffffff666666)"/>
<circle cx="156.740527" cy="274.536226" r="3.185645" opacity="1.000000" style="stroke:black;fill:url(#radialffffffbfbfbf)"/>
<circle cx="128.232176" cy="175.998571" r="7.923848" opacity="1.000000" style="stroke:black;fill:url(#radialffffff666666)"/>
<circle cx="105.271758" cy="143.985471" r="7.976721" opacity="1.000000" style="stroke:black;fill:url(#radialffffff666666)"/>
<circle cx="109.048362" cy="347.137364" r="8.189230" opacity="1.000000" style="stroke:black;fill:url(#radialffffff666666)"/>
<circle cx="134.381691" cy="190.726966" r="3.348639" opacity="1.000000" style="stroke:black;fill:url(#radialffffffbfbfbf)"/>
<circle cx="132.242730" cy="315.183969" r="8.221767" opacity="1.000000" style="stroke:black;fill:url(#radialffffff666666)"/>
<circle cx="72.117849" cy="103.446750" r="7.373068" opacity="1.000000" style="stroke:black;fill:url(#radialffffffffcc)"/>
<circle cx="92.705357" cy="132.036146" r="8.497318" opacity="1.000000" style="stroke:black;fill:url(#radialffffff666666)"/>
<text x="97.505357" y="128.004146" fill="rgb(102,102,102)"  stroke="rgb(102,102,102)" stroke-width="1" font-size="16" ></text>
<text x="97.505357" y="128.004146" fill="rgb(102,102,102)"  stroke="rgb(102,102,102)" stroke-width="1" font-size="32" >.</text>
<circle cx="141.968322" cy="307.251010" r="3.482186" opacity="1.000000" style="stroke:black;fill:url(#radialffffffbfbfbf)"/>
<circle cx="76.930513" cy="396.110533" r="7.447241" opacity="1.000000" style="stroke:black;fill:url(#radialffffffffcc)"/>
<circle cx="97.885655" cy="368.341043" r="8.625433" opacity="1.000000" style="stroke:black;fill:url(#radialffffff666666)"/>
<circle cx="101.394889" cy="150.367278" r="7.705077" opacity="1.000000" style="stroke:black;fill:url(#radialffffffffcc)"/>
<circle cx="172.682477" cy="397.185858" r="3.640618" opacity="1.000000" style="stroke:black;fill:url(#radialffffffbfbfbf)"/>
<circle cx="232.138932" cy="365.687834" r="3.657623" opacity="1.000000" style="stroke:black;fill:url(#radialffffffbfbfbf)"/>
<circle cx="65.380119" cy="62.748524" r="14.509586" opacity="1.000000" style="stroke:black;fill:url(#radialffffff7c7faf)"/>
<circle cx="109.750209" cy="356.768867" r="7.862252" opacity="1.000000" style="stroke:black;fill:url(#radialffffffffcc)"/>
<circle cx="192.835508" cy="407.871070" r="9.107392" opacity="1.000000" style="stroke:black;fill:url(#radialffffff666666)"/>
<text x="197.635508" y="403.839070" fill="rgb(102,102,102)"  stroke="rgb(102,102,102)" stroke-width="1" font-size="16" ></text>
<text x="197.635508" y="403.839070" fill="rgb(102,102,102)"  stroke="rgb(102,102,102)" stroke-width="1" font-size="32" >..</text>
<circle cx="228.863647" cy="389.427308" r="9.119593" opacity="1.000000" style="stroke:black;fill:url(#radialffffff666666)"/>
<circle cx="123.319248" cy="64.275177" r="7.967329" opacity="1.000000" style="stroke:black;fill:url(#radialffffffffcc)"/>
<circle cx="281.435318" cy="395.232427" r="3.809419" opacity="1.000000" style="stroke:black;fill:url(#radialffffffbfbfbf)"/>
<circle cx="257.472261" cy="406.476458" r="9.351421" opacity="1.000000" style="stroke:black;fill:url(#radialffffff666666)"/>
<text x="262.272261" y="402.444458" fill="rgb(102,102,102)"  stroke="rgb(102,102,102)" stroke-width="1" font-size="16" ></text>
<text x="262.272261" y="402.444458" fill="rgb(102,102,102)"  stroke="rgb(102,102,102)" stroke-width="1" font-size="32" >.</text>
<circle cx="188.123108" cy="64.043777" r="9.358539" opacity="1.000000" style="stroke:black;fill:url(#radialffffff666666)"/>
<text x="192.923108" y="60.011777" fill="rgb(102,102,102)"  stroke="rgb(102,102,102)" stroke-width="1" font-size="16" ></text>
<text x="192.923108" y="60.011777" fill="rgb(102,102,102)"  stroke="rgb(102,102,102)" stroke-width="1" font-size="32" >.</text>
<circle cx="150.189956" cy="81.434079" r="9.397177" opacity="1.000000" style="stroke:black;fill:url(#radialffffff666666)"/>
<circle cx="97.875629" cy="135.657707" r="15.401919" opacity="1.000000" style="stroke:black;fill:url(#radialffffff7c7faf)"/>
<circle cx="253.394865" cy="62.855738" r="9.606636" opacity="1.000000" style="stroke:black;fill:url(#radialffffff666666)"/>
<text x="258.194865" y="58.823738" fill="rgb(102,102,102)"  stroke="rgb(102,102,102)" stroke-width="1" font-size="16" ></text>
<text x="258.194865" y="58.823738" fill="rgb(102,102,102)"  stroke="rgb(102,102,102)" stroke-width="1" font-size="32" >.</text>
<circle cx="55.273524" cy="101.310122" r="8.354967" opacity="1.000000" style="stroke:black;fill:url(#radialffffffffcc)"/>
<circle cx="218.202259" cy="80.409671" r="9.622905" opacity="1.000000" style="stroke:black;fill:url(#radialffffff666666)"/>
<circle cx="54.170622" cy="401.746423" r="8.365563" opacity="1.000000" style="stroke:black;fill:url(#radialffffffffcc)"/>
<text x="58.970622" y="397.714423" fill="rgb(255,12,12)"  stroke="rgb(255,12,12)" stroke-width="1" font-size="16" ></text>
<text x="58.970622" y="397.714423" fill="rgb(255,12,12)"  stroke="rgb(255,12,12)" stroke-width="1" font-size="32" >.</text>
<circle cx="146.948092" cy="112.157929" r="8.369095" opacity="1.000000" style="stroke:black;fill:url(#radialffffffffcc)"/>
<circle cx="97.982577" cy="371.616043" r="15.635978" opacity="1.000000" style="stroke:black;fill:url(#radialffffff7c7faf)"/>
<circle cx="214.793288" cy="102.820866" r="4.000201" opacity="1.000000" style="stroke:black;fill:url(#radialffffffbfbfbf)"/>
<circle cx="316.928716" cy="66.271137" r="8.544812" opacity="1.000000" style="stroke:black;fill:url(#radialffffffffcc)"/>
<circle cx="284.276127" cy="80.116171" r="9.902522" opacity="1.000000" style="stroke:black;fill:url(#radialffffff666666)"/>
<text x="289.076127" y="76.084171" fill="rgb(102,102,102)"  stroke="rgb(102,102,102)" stroke-width="1" font-size="16" ></text>
<text x="289.076127" y="76.084171" fill="rgb(102,102,102)"  stroke="rgb(102,102,102)" stroke-width="1" font-size="32" >.</text>
<circle cx="137.189079" cy="397.354101" r="8.800000" opacity="1.000000" style="stroke:black;fill:url(#radialffffffffcc)"/>
<text x="141.989079" y="393.322101" fill="rgb(255,12,12)"  stroke="rgb(255,12,12)" stroke-width="1" font-size="16" ></text>
<text x="141.989079" y="393.322101" fill="rgb(255,12,12)"  stroke="rgb(255,12,12)" stroke-width="1" font-size="32" >.</text>
</svg>
</g>
</svg>
