<?xml version="1.0"?>
<svg version="1.1" id="topsvg"
xmlns="http://www.w3.org/2000/svg" xmlns:xlink="http://www.w3.org/1999/xlink"
xmlns:cml="http://www.xml-cml.org/schema" x="0" y="0" width="200px" height="200px" viewBox="0 0 100 100">
<title>TONQOD_clean - Open Babel Depiction</title>
<defs>
<radialGradient id='radialffffff666666' cx='50%' cy='50%' r='50%' fx='30%' fy='30%'>
  <stop offset=' 0%' stop-color="rgb(255,255,255)"  stop-opacity='0.8'/>
  <stop offset='100%' stop-color="rgb(102,102,102)"  stop-opacity ='1.0'/>
</radialGradient>
<radialGradient id='radialffffff7c7faf' cx='50%' cy='50%' r='50%' fx='30%' fy='30%'>
  <stop offset=' 0%' stop-color="rgb(255,255,255)"  stop-opacity='0.8'/>
  <stop offset='100%' stop-color="rgb(124,127,175)"  stop-opacity ='1.0'/>
</radialGradient>
<radialGradient id='radialffffffbfbfbf' cx='50%' cy='50%' r='50%' fx='30%' fy='30%'>
  <stop offset=' 0%' stop-color="rgb(255,255,255)"  stop-opacity='0.8'/>
  <stop offset='100%' stop-color="rgb(191,191,191)"  stop-opacity ='1.0'/>
</radialGradient>
<radialGradient id='radialffffffffcc' cx='50%' cy='50%' r='50%' fx='30%' fy='30%'>
  <stop offset=' 0%' stop-color="rgb(255,255,255)"  stop-opacity='0.8'/>
  <stop offset='100%' stop-color="rgb(255,12,12)"  stop-opacity ='1.0'/>
</radialGradient>
</defs>
<g transform="translate(0,0)">
<svg width="100" height="100" x="0" y="0" viewBox="0 0 453.028 817.028"
font-family="sans-serif" stroke="rgb(76,76,76)" stroke-width="2"  stroke-linecap="round">
<line x1="78.0" y1="408.6" x2="87.6" y2="368.3" stroke="rgb(76,76,76)"  stroke-width="2.0"/>
<line x1="79.0" y1="411.5" x2="40.9" y2="424.1" stroke="rgb(76,76,76)"  stroke-width="2.0"/>
<line x1="77.1" y1="405.8" x2="39.1" y2="418.5" stroke="rgb(76,76,76)"  stroke-width="2.0"/>
<line x1="306.9" y1="464.4" x2="285.3" y2="485.9" stroke="rgb(76,76,76)"  stroke-width="2.0"/>
<line x1="347.2" y1="295.9" x2="337.7" y2="339.9" stroke="rgb(76,76,76)"  stroke-width="2.0"/>
<line x1="345.3" y1="298.2" x2="317.0" y2="274.3" stroke="rgb(76,76,76)"  stroke-width="2.0"/>
<line x1="349.2" y1="293.6" x2="320.9" y2="269.8" stroke="rgb(76,76,76)"  stroke-width="2.0"/>
<line x1="337.7" y1="339.9" x2="298.8" y2="352.5" stroke="rgb(76,76,76)"  stroke-width="2.0"/>
<line x1="285.8" y1="391.9" x2="295.9" y2="351.8" stroke="rgb(76,76,76)"  stroke-width="2.0"/>
<line x1="291.6" y1="393.3" x2="301.7" y2="353.3" stroke="rgb(76,76,76)"  stroke-width="2.0"/>
<line x1="288.7" y1="392.6" x2="262.2" y2="400.9" stroke="rgb(76,76,76)"  stroke-width="2.0"/>
<line x1="298.8" y1="352.5" x2="278.9" y2="333.2" stroke="rgb(76,76,76)"  stroke-width="2.0"/>
<line x1="271.6" y1="524.2" x2="282.4" y2="485.1" stroke="rgb(76,76,76)"  stroke-width="2.0"/>
<line x1="277.4" y1="525.8" x2="288.2" y2="486.7" stroke="rgb(76,76,76)"  stroke-width="2.0"/>
<line x1="274.5" y1="525.0" x2="258.6" y2="538.5" stroke="rgb(76,76,76)"  stroke-width="2.0"/>
<line x1="285.3" y1="485.9" x2="273.8" y2="467.9" stroke="rgb(76,76,76)"  stroke-width="2.0"/>
<line x1="132.9" y1="223.3" x2="104.6" y2="210.9" stroke="rgb(76,76,76)"  stroke-width="2.0"/>
<line x1="135.3" y1="217.8" x2="107.0" y2="205.4" stroke="rgb(76,76,76)"  stroke-width="2.0"/>
<line x1="105.8" y1="208.2" x2="115.4" y2="193.3" stroke="rgb(76,76,76)"  stroke-width="2.0"/>
<line x1="215.9" y1="485.3" x2="235.8" y2="471.9" stroke="rgb(76,76,76)"  stroke-width="2.0"/>
<line x1="174.1" y1="209.9" x2="154.2" y2="197.2" stroke="rgb(76,76,76)"  stroke-width="2.0"/>
<line x1="115.4" y1="193.3" x2="154.2" y2="197.2" stroke="rgb(76,76,76)"  stroke-width="2.0"/>
<line x1="226.2" y1="456.5" x2="199.6" y2="459.1" stroke="rgb(76,76,76)"  stroke-width="2.0"/>
<line x1="151.8" y1="195.5" x2="161.9" y2="180.9" stroke="rgb(76,76,76)"  stroke-width="2.0"/>
<line x1="156.7" y1="198.9" x2="166.8" y2="184.3" stroke="rgb(76,76,76)"  stroke-width="2.0"/>
<line x1="293.5" y1="433.7" x2="313.4" y2="420.9" stroke="rgb(76,76,76)"  stroke-width="2.0"/>
<line x1="365.5" y1="174.3" x2="375.0" y2="158.9" stroke="rgb(76,76,76)"  stroke-width="2.0"/>
<line x1="254.6" y1="437.5" x2="245.0" y2="422.6" stroke="rgb(76,76,76)"  stroke-width="2.0"/>
<line x1="164.3" y1="182.6" x2="190.8" y2="185.7" stroke="rgb(76,76,76)"  stroke-width="2.0"/>
<line x1="375.3" y1="155.9" x2="413.3" y2="160.0" stroke="rgb(76,76,76)"  stroke-width="2.0"/>
<line x1="374.7" y1="161.9" x2="412.7" y2="166.0" stroke="rgb(76,76,76)"  stroke-width="2.0"/>
<line x1="258.6" y1="657.6" x2="274.5" y2="671.2" stroke="rgb(76,76,76)"  stroke-width="2.0"/>
<line x1="146.1" y1="145.0" x2="167.7" y2="166.4" stroke="rgb(76,76,76)"  stroke-width="2.0"/>
<line x1="271.8" y1="669.8" x2="282.7" y2="649.2" stroke="rgb(76,76,76)"  stroke-width="2.0"/>
<line x1="277.1" y1="672.6" x2="288.0" y2="652.0" stroke="rgb(76,76,76)"  stroke-width="2.0"/>
<line x1="139.7" y1="297.6" x2="159.5" y2="278.3" stroke="rgb(76,76,76)"  stroke-width="2.0"/>
<line x1="198.4" y1="290.9" x2="208.0" y2="334.9" stroke="rgb(76,76,76)"  stroke-width="2.0"/>
<line x1="179.3" y1="209.5" x2="167.7" y2="166.4" stroke="rgb(76,76,76)"  stroke-width="2.0"/>
<line x1="215.9" y1="613.8" x2="235.8" y2="594.8" stroke="rgb(76,76,76)"  stroke-width="2.0"/>
<line x1="165.0" y1="165.0" x2="175.9" y2="144.4" stroke="rgb(76,76,76)"  stroke-width="2.0"/>
<line x1="170.3" y1="167.8" x2="181.2" y2="147.2" stroke="rgb(76,76,76)"  stroke-width="2.0"/>
<line x1="199.6" y1="546.1" x2="226.2" y2="554.5" stroke="rgb(76,76,76)"  stroke-width="2.0"/>
<line x1="226.8" y1="262.6" x2="253.4" y2="270.9" stroke="rgb(76,76,76)"  stroke-width="2.0"/>
<line x1="217.3" y1="222.2" x2="237.2" y2="203.2" stroke="rgb(76,76,76)"  stroke-width="2.0"/>
<line x1="285.3" y1="650.6" x2="273.8" y2="607.5" stroke="rgb(76,76,76)"  stroke-width="2.0"/>
<line x1="285.3" y1="650.6" x2="306.9" y2="672.1" stroke="rgb(76,76,76)"  stroke-width="2.0"/>
<line x1="245.0" y1="482.1" x2="254.6" y2="526.1" stroke="rgb(76,76,76)"  stroke-width="2.0"/>
<line x1="293.5" y1="538.7" x2="313.4" y2="519.4" stroke="rgb(76,76,76)"  stroke-width="2.0"/>
<line x1="178.6" y1="145.8" x2="194.5" y2="159.4" stroke="rgb(76,76,76)"  stroke-width="2.0"/>
<line x1="208.0" y1="394.4" x2="198.4" y2="379.5" stroke="rgb(76,76,76)"  stroke-width="2.0"/>
<line x1="40.3" y1="651.1" x2="78.3" y2="655.1" stroke="rgb(76,76,76)"  stroke-width="2.0"/>
<line x1="39.7" y1="657.0" x2="77.7" y2="661.1" stroke="rgb(76,76,76)"  stroke-width="2.0"/>
<line x1="262.2" y1="631.3" x2="288.7" y2="634.4" stroke="rgb(76,76,76)"  stroke-width="2.0"/>
<line x1="78.0" y1="658.1" x2="87.6" y2="642.7" stroke="rgb(76,76,76)"  stroke-width="2.0"/>
<line x1="286.2" y1="632.7" x2="296.3" y2="618.2" stroke="rgb(76,76,76)"  stroke-width="2.0"/>
<line x1="291.2" y1="636.1" x2="301.3" y2="621.6" stroke="rgb(76,76,76)"  stroke-width="2.0"/>
<line x1="139.7" y1="396.1" x2="159.5" y2="383.4" stroke="rgb(76,76,76)"  stroke-width="2.0"/>
<line x1="253.4" y1="357.9" x2="226.8" y2="360.5" stroke="rgb(76,76,76)"  stroke-width="2.0"/>
<line x1="298.8" y1="619.9" x2="337.7" y2="623.7" stroke="rgb(76,76,76)"  stroke-width="2.0"/>
<line x1="298.8" y1="619.9" x2="278.9" y2="607.1" stroke="rgb(76,76,76)"  stroke-width="2.0"/>
<line x1="337.7" y1="623.7" x2="347.2" y2="608.8" stroke="rgb(76,76,76)"  stroke-width="2.0"/>
<line x1="217.3" y1="345.1" x2="237.2" y2="331.7" stroke="rgb(76,76,76)"  stroke-width="2.0"/>
<line x1="179.3" y1="349.2" x2="167.7" y2="331.2" stroke="rgb(76,76,76)"  stroke-width="2.0"/>
<line x1="346.0" y1="611.6" x2="317.8" y2="599.2" stroke="rgb(76,76,76)"  stroke-width="2.0"/>
<line x1="348.4" y1="606.1" x2="320.1" y2="593.7" stroke="rgb(76,76,76)"  stroke-width="2.0"/>
<line x1="194.5" y1="278.5" x2="178.6" y2="292.0" stroke="rgb(76,76,76)"  stroke-width="2.0"/>
<line x1="164.8" y1="330.4" x2="175.7" y2="291.2" stroke="rgb(76,76,76)"  stroke-width="2.0"/>
<line x1="170.6" y1="332.0" x2="181.4" y2="292.8" stroke="rgb(76,76,76)"  stroke-width="2.0"/>
<line x1="167.7" y1="331.2" x2="146.1" y2="352.6" stroke="rgb(76,76,76)"  stroke-width="2.0"/>
<line x1="174.1" y1="483.8" x2="154.2" y2="464.5" stroke="rgb(76,76,76)"  stroke-width="2.0"/>
<line x1="190.8" y1="416.1" x2="164.3" y2="424.4" stroke="rgb(76,76,76)"  stroke-width="2.0"/>
<line x1="151.3" y1="463.8" x2="161.4" y2="423.7" stroke="rgb(76,76,76)"  stroke-width="2.0"/>
<line x1="157.2" y1="465.2" x2="167.2" y2="425.2" stroke="rgb(76,76,76)"  stroke-width="2.0"/>
<line x1="154.2" y1="464.5" x2="115.4" y2="477.1" stroke="rgb(76,76,76)"  stroke-width="2.0"/>
<line x1="132.1" y1="547.3" x2="103.8" y2="523.4" stroke="rgb(76,76,76)"  stroke-width="2.0"/>
<line x1="136.0" y1="542.7" x2="107.7" y2="518.8" stroke="rgb(76,76,76)"  stroke-width="2.0"/>
<line x1="115.4" y1="477.1" x2="105.8" y2="521.1" stroke="rgb(76,76,76)"  stroke-width="2.0"/>
<line x1="414.0" y1="398.6" x2="376.0" y2="411.2" stroke="rgb(76,76,76)"  stroke-width="2.0"/>
<line x1="412.1" y1="392.9" x2="374.1" y2="405.5" stroke="rgb(76,76,76)"  stroke-width="2.0"/>
<line x1="365.5" y1="448.8" x2="375.0" y2="408.4" stroke="rgb(76,76,76)"  stroke-width="2.0"/>
<line x1="293.5" y1="433.7" x2="254.6" y2="437.5" stroke="rgb(76,76,76)"  stroke-width="2.0"/>
<line x1="290.5" y1="440.1" x2="256.7" y2="443.4" stroke="rgb(76,76,76)"  stroke-width="2.0" stroke-dasharray="5.0,5.0"/>
<line x1="254.6" y1="437.5" x2="226.2" y2="456.5" stroke="rgb(76,76,76)"  stroke-width="2.0"/>
<line x1="256.7" y1="443.4" x2="234.5" y2="458.3" stroke="rgb(76,76,76)"  stroke-width="2.0" stroke-dasharray="5.0,5.0"/>
<line x1="226.2" y1="456.5" x2="235.8" y2="471.9" stroke="rgb(76,76,76)"  stroke-width="2.0"/>
<line x1="234.5" y1="458.3" x2="238.9" y2="465.5" stroke="rgb(76,76,76)"  stroke-width="2.0" stroke-dasharray="5.0,5.0"/>
<line x1="235.8" y1="471.9" x2="273.8" y2="467.9" stroke="rgb(76,76,76)"  stroke-width="2.0"/>
<line x1="238.9" y1="465.5" x2="271.7" y2="462.0" stroke="rgb(76,76,76)"  stroke-width="2.0" stroke-dasharray="5.0,5.0"/>
<line x1="273.8" y1="467.9" x2="303.6" y2="448.2" stroke="rgb(76,76,76)"  stroke-width="2.0"/>
<line x1="271.7" y1="462.0" x2="295.0" y2="446.6" stroke="rgb(76,76,76)"  stroke-width="2.0" stroke-dasharray="5.0,5.0"/>
<line x1="303.6" y1="448.2" x2="293.5" y2="433.7" stroke="rgb(76,76,76)"  stroke-width="2.0"/>
<line x1="295.0" y1="446.6" x2="290.5" y2="440.1" stroke="rgb(76,76,76)"  stroke-width="2.0" stroke-dasharray="5.0,5.0"/>
<line x1="198.4" y1="290.9" x2="226.8" y2="262.6" stroke="rgb(76,76,76)"  stroke-width="2.0"/>
<line x1="196.7" y1="284.0" x2="220.1" y2="260.7" stroke="rgb(76,76,76)"  stroke-width="2.0" stroke-dasharray="5.0,5.0"/>
<line x1="226.8" y1="262.6" x2="217.3" y2="222.2" stroke="rgb(76,76,76)"  stroke-width="2.0"/>
<line x1="220.1" y1="260.7" x2="212.1" y2="226.9" stroke="rgb(76,76,76)"  stroke-width="2.0" stroke-dasharray="5.0,5.0"/>
<line x1="217.3" y1="222.2" x2="179.3" y2="209.5" stroke="rgb(76,76,76)"  stroke-width="2.0"/>
<line x1="212.1" y1="226.9" x2="180.8" y2="216.5" stroke="rgb(76,76,76)"  stroke-width="2.0" stroke-dasharray="5.0,5.0"/>
<line x1="179.3" y1="209.5" x2="149.5" y2="238.3" stroke="rgb(76,76,76)"  stroke-width="2.0"/>
<line x1="180.8" y1="216.5" x2="156.2" y2="240.2" stroke="rgb(76,76,76)"  stroke-width="2.0" stroke-dasharray="5.0,5.0"/>
<line x1="149.5" y1="238.3" x2="159.5" y2="278.3" stroke="rgb(76,76,76)"  stroke-width="2.0"/>
<line x1="156.2" y1="240.2" x2="164.6" y2="273.6" stroke="rgb(76,76,76)"  stroke-width="2.0" stroke-dasharray="5.0,5.0"/>
<line x1="159.5" y1="278.3" x2="198.4" y2="290.9" stroke="rgb(76,76,76)"  stroke-width="2.0"/>
<line x1="164.6" y1="273.6" x2="196.7" y2="284.0" stroke="rgb(76,76,76)"  stroke-width="2.0" stroke-dasharray="5.0,5.0"/>
<line x1="273.8" y1="607.5" x2="235.8" y2="594.8" stroke="rgb(76,76,76)"  stroke-width="2.0"/>
<line x1="272.1" y1="600.0" x2="241.3" y2="589.8" stroke="rgb(76,76,76)"  stroke-width="2.0" stroke-dasharray="5.0,5.0"/>
<line x1="235.8" y1="594.8" x2="226.2" y2="554.5" stroke="rgb(76,76,76)"  stroke-width="2.0"/>
<line x1="241.3" y1="589.8" x2="233.4" y2="556.5" stroke="rgb(76,76,76)"  stroke-width="2.0" stroke-dasharray="5.0,5.0"/>
<line x1="226.2" y1="554.5" x2="254.6" y2="526.1" stroke="rgb(76,76,76)"  stroke-width="2.0"/>
<line x1="233.4" y1="556.5" x2="256.4" y2="533.6" stroke="rgb(76,76,76)"  stroke-width="2.0" stroke-dasharray="5.0,5.0"/>
<line x1="254.6" y1="526.1" x2="293.5" y2="538.7" stroke="rgb(76,76,76)"  stroke-width="2.0"/>
<line x1="256.4" y1="533.6" x2="288.0" y2="543.8" stroke="rgb(76,76,76)"  stroke-width="2.0" stroke-dasharray="5.0,5.0"/>
<line x1="293.5" y1="538.7" x2="303.6" y2="578.8" stroke="rgb(76,76,76)"  stroke-width="2.0"/>
<line x1="288.0" y1="543.8" x2="296.3" y2="576.7" stroke="rgb(76,76,76)"  stroke-width="2.0" stroke-dasharray="5.0,5.0"/>
<line x1="303.6" y1="578.8" x2="273.8" y2="607.5" stroke="rgb(76,76,76)"  stroke-width="2.0"/>
<line x1="296.3" y1="576.7" x2="272.1" y2="600.0" stroke="rgb(76,76,76)"  stroke-width="2.0" stroke-dasharray="5.0,5.0"/>
<line x1="198.4" y1="379.5" x2="226.8" y2="360.5" stroke="rgb(76,76,76)"  stroke-width="2.0"/>
<line x1="194.8" y1="369.4" x2="212.6" y2="357.4" stroke="rgb(76,76,76)"  stroke-width="2.0" stroke-dasharray="5.0,5.0"/>
<line x1="226.8" y1="360.5" x2="217.3" y2="345.1" stroke="rgb(76,76,76)"  stroke-width="2.0"/>
<line x1="212.7" y1="357.5" x2="211.8" y2="356.1" stroke="rgb(76,76,76)"  stroke-width="2.0" stroke-dasharray="5.0,5.0"/>
<line x1="217.3" y1="345.1" x2="179.3" y2="349.2" stroke="rgb(76,76,76)"  stroke-width="2.0"/>
<line x1="211.8" y1="356.2" x2="182.9" y2="359.3" stroke="rgb(76,76,76)"  stroke-width="2.0" stroke-dasharray="5.0,5.0"/>
<line x1="179.3" y1="349.2" x2="149.5" y2="368.8" stroke="rgb(76,76,76)"  stroke-width="2.0"/>
<line x1="182.9" y1="359.3" x2="164.1" y2="371.6" stroke="rgb(76,76,76)"  stroke-width="2.0" stroke-dasharray="5.0,5.0"/>
<line x1="149.5" y1="368.8" x2="159.5" y2="383.4" stroke="rgb(76,76,76)"  stroke-width="2.0"/>
<line x1="164.1" y1="371.6" x2="164.6" y2="372.4" stroke="rgb(76,76,76)"  stroke-width="2.0" stroke-dasharray="5.0,5.0"/>
<line x1="159.5" y1="383.4" x2="198.4" y2="379.5" stroke="rgb(76,76,76)"  stroke-width="2.0"/>
<line x1="164.6" y1="372.4" x2="194.8" y2="369.4" stroke="rgb(76,76,76)"  stroke-width="2.0" stroke-dasharray="5.0,5.0"/>
<line x1="184.0" y1="419.1" x2="179.7" y2="358.8" stroke="rgb(76,76,76)"  stroke-width="2.0"/>
<line x1="179.7" y1="358.8" x2="208.0" y2="334.9" stroke="rgb(76,76,76)"  stroke-width="2.0"/>
<line x1="208.0" y1="334.9" x2="244.1" y2="343.6" stroke="rgb(76,76,76)"  stroke-width="2.0"/>
<line x1="244.1" y1="343.6" x2="269.1" y2="397.9" stroke="rgb(76,76,76)"  stroke-width="2.0"/>
<line x1="269.1" y1="397.9" x2="273.3" y2="410.3" stroke="rgb(76,76,76)"  stroke-width="2.0"/>
<line x1="273.3" y1="410.3" x2="245.0" y2="422.6" stroke="rgb(76,76,76)"  stroke-width="2.0"/>
<line x1="245.0" y1="422.6" x2="208.9" y2="425.1" stroke="rgb(76,76,76)"  stroke-width="2.0"/>
<line x1="208.9" y1="425.1" x2="184.0" y2="419.1" stroke="rgb(76,76,76)"  stroke-width="2.0"/>
<line x1="208.0" y1="394.4" x2="179.7" y2="406.7" stroke="rgb(76,76,76)"  stroke-width="2.0"/>
<line x1="179.7" y1="406.7" x2="184.0" y2="419.1" stroke="rgb(76,76,76)"  stroke-width="2.0"/>
<line x1="269.1" y1="397.9" x2="244.1" y2="391.9" stroke="rgb(76,76,76)"  stroke-width="2.0"/>
<line x1="244.1" y1="391.9" x2="208.0" y2="394.4" stroke="rgb(76,76,76)"  stroke-width="2.0"/>
<line x1="245.0" y1="482.1" x2="208.9" y2="473.5" stroke="rgb(76,76,76)"  stroke-width="2.0"/>
<line x1="208.9" y1="473.5" x2="184.0" y2="419.1" stroke="rgb(76,76,76)"  stroke-width="2.0"/>
<line x1="269.1" y1="397.9" x2="273.3" y2="458.2" stroke="rgb(76,76,76)"  stroke-width="2.0"/>
<line x1="273.3" y1="458.2" x2="245.0" y2="482.1" stroke="rgb(76,76,76)"  stroke-width="2.0"/>
<circle cx="78.015736" cy="408.632917" r="5.066667" opacity="1.000000" style="stroke:black;fill:url(#radialffffff666666)"/>
<text x="82.815736" y="404.600917" fill="rgb(102,102,102)"  stroke="rgb(102,102,102)" stroke-width="1" font-size="16" ></text>
<text x="82.815736" y="404.600917" fill="rgb(102,102,102)"  stroke="rgb(102,102,102)" stroke-width="1" font-size="32" >.</text>
<circle cx="87.568324" cy="368.268997" r="5.066667" opacity="1.000000" style="stroke:black;fill:url(#radialffffff666666)"/>
<text x="92.368324" y="364.236997" fill="rgb(102,102,102)"  stroke="rgb(102,102,102)" stroke-width="1" font-size="16" ></text>
<text x="92.368324" y="364.236997" fill="rgb(102,102,102)"  stroke="rgb(102,102,102)" stroke-width="1" font-size="32" >..</text>
<circle cx="199.611051" cy="650.018365" r="2.066667" opacity="1.000000" style="stroke:black;fill:url(#radialffffffbfbfbf)"/>
<text x="204.411051" y="645.986365" fill="rgb(191,191,191)"  stroke="rgb(191,191,191)" stroke-width="1" font-size="16" ></text>
<text x="204.411051" y="645.986365" fill="rgb(191,191,191)"  stroke="rgb(191,191,191)" stroke-width="1" font-size="32" >.</text>
<circle cx="306.945985" cy="464.425890" r="5.066667" opacity="1.000000" style="stroke:black;fill:url(#radialffffff666666)"/>
<text x="311.745985" y="460.393890" fill="rgb(102,102,102)"  stroke="rgb(102,102,102)" stroke-width="1" font-size="16" ></text>
<text x="311.745985" y="460.393890" fill="rgb(102,102,102)"  stroke="rgb(102,102,102)" stroke-width="1" font-size="32" >..</text>
<circle cx="104.835373" cy="287.269470" r="4.400000" opacity="1.000000" style="stroke:black;fill:url(#radialffffffffcc)"/>
<text x="109.635373" y="283.237470" fill="rgb(255,12,12)"  stroke="rgb(255,12,12)" stroke-width="1" font-size="16" ></text>
<text x="109.635373" y="283.237470" fill="rgb(255,12,12)"  stroke="rgb(255,12,12)" stroke-width="1" font-size="32" >..</text>
<circle cx="215.875517" cy="582.377089" r="2.066667" opacity="1.000000" style="stroke:black;fill:url(#radialffffffbfbfbf)"/>
<text x="220.675517" y="578.345089" fill="rgb(191,191,191)"  stroke="rgb(191,191,191)" stroke-width="1" font-size="16" ></text>
<text x="220.675517" y="578.345089" fill="rgb(191,191,191)"  stroke="rgb(191,191,191)" stroke-width="1" font-size="32" >.</text>
<circle cx="183.967787" cy="777.027517" r="8.133333" opacity="1.000000" style="stroke:black;fill:url(#radialffffff7c7faf)"/>
<circle cx="40.000000" cy="421.303204" r="5.066667" opacity="1.000000" style="stroke:black;fill:url(#radialffffff666666)"/>
<text x="44.800000" y="417.271204" fill="rgb(102,102,102)"  stroke="rgb(102,102,102)" stroke-width="1" font-size="16" ></text>
<text x="44.800000" y="417.271204" fill="rgb(102,102,102)"  stroke="rgb(102,102,102)" stroke-width="1" font-size="32" >..</text>
<circle cx="347.245096" cy="295.892468" r="5.066667" opacity="1.000000" style="stroke:black;fill:url(#radialffffff666666)"/>
<text x="352.045096" y="291.860468" fill="rgb(102,102,102)"  stroke="rgb(102,102,102)" stroke-width="1" font-size="16" ></text>
<text x="352.045096" y="291.860468" fill="rgb(102,102,102)"  stroke="rgb(102,102,102)" stroke-width="1" font-size="32" >.</text>
<circle cx="337.664667" cy="339.903737" r="5.066667" opacity="1.000000" style="stroke:black;fill:url(#radialffffff666666)"/>
<text x="342.464667" y="335.871737" fill="rgb(102,102,102)"  stroke="rgb(102,102,102)" stroke-width="1" font-size="16" ></text>
<text x="342.464667" y="335.871737" fill="rgb(102,102,102)"  stroke="rgb(102,102,102)" stroke-width="1" font-size="32" >..</text>
<circle cx="318.949056" cy="272.050560" r="4.400000" opacity="1.000000" style="stroke:black;fill:url(#radialffffffffcc)"/>
<circle cx="288.703824" cy="392.586433" r="5.066667" opacity="1.000000" style="stroke:black;fill:url(#radialffffff666666)"/>
<text x="293.503824" y="388.554433" fill="rgb(102,102,102)"  stroke="rgb(102,102,102)" stroke-width="1" font-size="16" ></text>
<text x="293.503824" y="388.554433" fill="rgb(102,102,102)"  stroke="rgb(102,102,102)" stroke-width="1" font-size="32" >.</text>
<circle cx="298.785568" cy="352.519656" r="5.066667" opacity="1.000000" style="stroke:black;fill:url(#radialffffff666666)"/>
<circle cx="262.218134" cy="400.937067" r="2.066667" opacity="1.000000" style="stroke:black;fill:url(#radialffffffbfbfbf)"/>
<circle cx="278.928205" cy="333.238895" r="2.066667" opacity="1.000000" style="stroke:black;fill:url(#radialffffffbfbfbf)"/>
<circle cx="274.472588" cy="524.984987" r="5.066667" opacity="1.000000" style="stroke:black;fill:url(#radialffffff666666)"/>
<text x="279.272588" y="520.952987" fill="rgb(102,102,102)"  stroke="rgb(102,102,102)" stroke-width="1" font-size="16" ></text>
<text x="279.272588" y="520.952987" fill="rgb(102,102,102)"  stroke="rgb(102,102,102)" stroke-width="1" font-size="32" >.</text>
<circle cx="285.334147" cy="485.874734" r="5.066667" opacity="1.000000" style="stroke:black;fill:url(#radialffffff666666)"/>
<circle cx="258.570057" cy="538.539465" r="2.066667" opacity="1.000000" style="stroke:black;fill:url(#radialffffffbfbfbf)"/>
<circle cx="134.078128" cy="220.533400" r="4.400000" opacity="1.000000" style="stroke:black;fill:url(#radialffffffffcc)"/>
<circle cx="348.191812" cy="205.694314" r="4.400000" opacity="1.000000" style="stroke:black;fill:url(#radialffffffffcc)"/>
<text x="352.991812" y="201.662314" fill="rgb(255,12,12)"  stroke="rgb(255,12,12)" stroke-width="1" font-size="16" ></text>
<text x="352.991812" y="201.662314" fill="rgb(255,12,12)"  stroke="rgb(255,12,12)" stroke-width="1" font-size="32" >..</text>
<circle cx="105.782119" cy="208.190455" r="5.066667" opacity="1.000000" style="stroke:black;fill:url(#radialffffff666666)"/>
<text x="110.582119" y="204.158455" fill="rgb(102,102,102)"  stroke="rgb(102,102,102)" stroke-width="1" font-size="16" ></text>
<text x="110.582119" y="204.158455" fill="rgb(102,102,102)"  stroke="rgb(102,102,102)" stroke-width="1" font-size="32" >.</text>
<circle cx="215.875309" cy="485.317971" r="2.066667" opacity="1.000000" style="stroke:black;fill:url(#radialffffffbfbfbf)"/>
<circle cx="273.776207" cy="467.850175" r="5.066667" opacity="1.000000" style="stroke:black;fill:url(#radialffffff666666)"/>
<circle cx="51.557981" cy="445.100832" r="2.066667" opacity="1.000000" style="stroke:black;fill:url(#radialffffffbfbfbf)"/>
<text x="56.357981" y="441.068832" fill="rgb(191,191,191)"  stroke="rgb(191,191,191)" stroke-width="1" font-size="16" ></text>
<text x="56.357981" y="441.068832" fill="rgb(191,191,191)"  stroke="rgb(191,191,191)" stroke-width="1" font-size="32" >.</text>
<circle cx="235.760453" cy="471.936797" r="5.066667" opacity="1.000000" style="stroke:black;fill:url(#radialffffff666666)"/>
<circle cx="303.576073" cy="448.219372" r="5.066667" opacity="1.000000" style="stroke:black;fill:url(#radialffffff666666)"/>
<text x="308.376073" y="444.187372" fill="rgb(102,102,102)"  stroke="rgb(102,102,102)" stroke-width="1" font-size="16" ></text>
<text x="308.376073" y="444.187372" fill="rgb(102,102,102)"  stroke="rgb(102,102,102)" stroke-width="1" font-size="32" >.</text>
<circle cx="174.099113" cy="209.943484" r="2.066667" opacity="1.000000" style="stroke:black;fill:url(#radialffffffbfbfbf)"/>
<circle cx="115.362625" cy="193.298972" r="5.066667" opacity="1.000000" style="stroke:black;fill:url(#radialffffff666666)"/>
<text x="120.162625" y="189.266972" fill="rgb(102,102,102)"  stroke="rgb(102,102,102)" stroke-width="1" font-size="16" ></text>
<text x="120.162625" y="189.266972" fill="rgb(102,102,102)"  stroke="rgb(102,102,102)" stroke-width="1" font-size="32" >..</text>
<circle cx="226.207746" cy="456.522054" r="5.066667" opacity="1.000000" style="stroke:black;fill:url(#radialffffff666666)"/>
<circle cx="199.611282" cy="737.079819" r="2.066667" opacity="1.000000" style="stroke:black;fill:url(#radialffffffbfbfbf)"/>
<text x="204.411282" y="733.047819" fill="rgb(191,191,191)"  stroke="rgb(191,191,191)" stroke-width="1" font-size="16" ></text>
<text x="204.411282" y="733.047819" fill="rgb(191,191,191)"  stroke="rgb(191,191,191)" stroke-width="1" font-size="32" >.</text>
<circle cx="154.241767" cy="197.164404" r="5.066667" opacity="1.000000" style="stroke:black;fill:url(#radialffffff666666)"/>
<circle cx="293.494211" cy="433.675230" r="5.066667" opacity="1.000000" style="stroke:black;fill:url(#radialffffff666666)"/>
<circle cx="199.610642" cy="459.084880" r="2.066667" opacity="1.000000" style="stroke:black;fill:url(#radialffffffbfbfbf)"/>
<circle cx="365.458993" cy="174.317581" r="5.066667" opacity="1.000000" style="stroke:black;fill:url(#radialffffff666666)"/>
<text x="370.258993" y="170.285581" fill="rgb(102,102,102)"  stroke="rgb(102,102,102)" stroke-width="1" font-size="16" ></text>
<text x="370.258993" y="170.285581" fill="rgb(102,102,102)"  stroke="rgb(102,102,102)" stroke-width="1" font-size="32" >..</text>
<circle cx="254.615094" cy="437.540663" r="5.066667" opacity="1.000000" style="stroke:black;fill:url(#radialffffff666666)"/>
<circle cx="313.351506" cy="420.896150" r="2.066667" opacity="1.000000" style="stroke:black;fill:url(#radialffffffbfbfbf)"/>
<circle cx="164.323580" cy="182.620262" r="5.066667" opacity="1.000000" style="stroke:black;fill:url(#radialffffff666666)"/>
<text x="169.123580" y="178.588262" fill="rgb(102,102,102)"  stroke="rgb(102,102,102)" stroke-width="1" font-size="16" ></text>
<text x="169.123580" y="178.588262" fill="rgb(102,102,102)"  stroke="rgb(102,102,102)" stroke-width="1" font-size="32" >.</text>
<circle cx="375.011646" cy="158.902838" r="5.066667" opacity="1.000000" style="stroke:black;fill:url(#radialffffff666666)"/>
<text x="379.811646" y="154.870838" fill="rgb(102,102,102)"  stroke="rgb(102,102,102)" stroke-width="1" font-size="16" ></text>
<text x="379.811646" y="154.870838" fill="rgb(102,102,102)"  stroke="rgb(102,102,102)" stroke-width="1" font-size="32" >.</text>
<circle cx="190.809300" cy="185.738802" r="2.066667" opacity="1.000000" style="stroke:black;fill:url(#radialffffffbfbfbf)"/>
<circle cx="413.027427" cy="162.989459" r="5.066667" opacity="1.000000" style="stroke:black;fill:url(#radialffffff666666)"/>
<text x="417.827427" y="158.957459" fill="rgb(102,102,102)"  stroke="rgb(102,102,102)" stroke-width="1" font-size="16" ></text>
<text x="417.827427" y="158.957459" fill="rgb(102,102,102)"  stroke="rgb(102,102,102)" stroke-width="1" font-size="32" >..</text>
<circle cx="215.875857" cy="710.846728" r="2.066667" opacity="1.000000" style="stroke:black;fill:url(#radialffffffbfbfbf)"/>
<text x="220.675857" y="706.814728" fill="rgb(191,191,191)"  stroke="rgb(191,191,191)" stroke-width="1" font-size="16" ></text>
<text x="220.675857" y="706.814728" fill="rgb(191,191,191)"  stroke="rgb(191,191,191)" stroke-width="1" font-size="32" >.</text>
<circle cx="245.034539" cy="422.649179" r="5.066667" opacity="1.000000" style="stroke:black;fill:url(#radialffffff666666)"/>
<text x="249.834539" y="418.617179" fill="rgb(102,102,102)"  stroke="rgb(102,102,102)" stroke-width="1" font-size="16" ></text>
<text x="249.834539" y="418.617179" fill="rgb(102,102,102)"  stroke="rgb(102,102,102)" stroke-width="1" font-size="32" >.</text>
<circle cx="208.940456" cy="425.145321" r="4.400000" opacity="1.000000" style="stroke:black;fill:url(#radialffffffffcc)"/>
<circle cx="273.330501" cy="410.306234" r="4.400000" opacity="1.000000" style="stroke:black;fill:url(#radialffffffffcc)"/>
<circle cx="258.570372" cy="657.625234" r="2.066667" opacity="1.000000" style="stroke:black;fill:url(#radialffffffbfbfbf)"/>
<circle cx="146.081509" cy="144.964900" r="5.066667" opacity="1.000000" style="stroke:black;fill:url(#radialffffff666666)"/>
<text x="150.881509" y="140.932900" fill="rgb(102,102,102)"  stroke="rgb(102,102,102)" stroke-width="1" font-size="16" ></text>
<text x="150.881509" y="140.932900" fill="rgb(102,102,102)"  stroke="rgb(102,102,102)" stroke-width="1" font-size="32" >..</text>
<circle cx="274.472975" cy="671.179712" r="5.066667" opacity="1.000000" style="stroke:black;fill:url(#radialffffff666666)"/>
<text x="279.272975" y="667.147712" fill="rgb(102,102,102)"  stroke="rgb(102,102,102)" stroke-width="1" font-size="16" ></text>
<text x="279.272975" y="667.147712" fill="rgb(102,102,102)"  stroke="rgb(102,102,102)" stroke-width="1" font-size="32" >.</text>
<circle cx="139.676277" cy="297.600739" r="2.066667" opacity="1.000000" style="stroke:black;fill:url(#radialffffffbfbfbf)"/>
<circle cx="401.469686" cy="229.902568" r="2.066667" opacity="1.000000" style="stroke:black;fill:url(#radialffffffbfbfbf)"/>
<text x="406.269686" y="225.870568" fill="rgb(191,191,191)"  stroke="rgb(191,191,191)" stroke-width="1" font-size="16" ></text>
<text x="406.269686" y="225.870568" fill="rgb(191,191,191)"  stroke="rgb(191,191,191)" stroke-width="1" font-size="32" >.</text>
<circle cx="159.533554" cy="278.319978" r="5.066667" opacity="1.000000" style="stroke:black;fill:url(#radialffffff666666)"/>
<circle cx="149.451624" cy="238.253201" r="5.066667" opacity="1.000000" style="stroke:black;fill:url(#radialffffff666666)"/>
<text x="154.251624" y="234.221201" fill="rgb(102,102,102)"  stroke="rgb(102,102,102)" stroke-width="1" font-size="16" ></text>
<text x="154.251624" y="234.221201" fill="rgb(102,102,102)"  stroke="rgb(102,102,102)" stroke-width="1" font-size="32" >.</text>
<circle cx="179.697416" cy="358.789074" r="4.400000" opacity="1.000000" style="stroke:black;fill:url(#radialffffffffcc)"/>
<circle cx="198.412715" cy="290.935897" r="5.066667" opacity="1.000000" style="stroke:black;fill:url(#radialffffff666666)"/>
<circle cx="207.993347" cy="334.947166" r="5.066667" opacity="1.000000" style="stroke:black;fill:url(#radialffffff666666)"/>
<text x="212.793347" y="330.915166" fill="rgb(102,102,102)"  stroke="rgb(102,102,102)" stroke-width="1" font-size="16" ></text>
<text x="212.793347" y="330.915166" fill="rgb(102,102,102)"  stroke="rgb(102,102,102)" stroke-width="1" font-size="32" >.</text>
<circle cx="179.251466" cy="209.536430" r="5.066667" opacity="1.000000" style="stroke:black;fill:url(#radialffffff666666)"/>
<circle cx="183.967020" cy="419.137182" r="8.133333" opacity="1.000000" style="stroke:black;fill:url(#radialffffff7c7faf)"/>
<circle cx="215.875649" cy="613.787610" r="2.066667" opacity="1.000000" style="stroke:black;fill:url(#radialffffffbfbfbf)"/>
<circle cx="244.087460" cy="343.570164" r="4.400000" opacity="1.000000" style="stroke:black;fill:url(#radialffffffffcc)"/>
<circle cx="167.693460" cy="166.413744" r="5.066667" opacity="1.000000" style="stroke:black;fill:url(#radialffffff666666)"/>
<circle cx="199.610872" cy="546.146334" r="2.066667" opacity="1.000000" style="stroke:black;fill:url(#radialffffffbfbfbf)"/>
<circle cx="226.820039" cy="262.570637" r="5.066667" opacity="1.000000" style="stroke:black;fill:url(#radialffffff666666)"/>
<circle cx="217.267266" cy="222.206718" r="5.066667" opacity="1.000000" style="stroke:black;fill:url(#radialffffff666666)"/>
<circle cx="235.760778" cy="594.820799" r="5.070013" opacity="1.000000" style="stroke:black;fill:url(#radialffffff666666)"/>
<circle cx="226.208005" cy="554.456880" r="5.103272" opacity="1.000000" style="stroke:black;fill:url(#radialffffff666666)"/>
<circle cx="253.417171" cy="270.881183" r="2.096446" opacity="1.000000" style="stroke:black;fill:url(#radialffffffbfbfbf)"/>
<circle cx="285.334584" cy="650.613772" r="5.173644" opacity="1.000000" style="stroke:black;fill:url(#radialffffff666666)"/>
<circle cx="208.940584" cy="473.457352" r="4.497568" opacity="1.000000" style="stroke:black;fill:url(#radialffffffffcc)"/>
<circle cx="237.152394" cy="203.239907" r="2.122504" opacity="1.000000" style="stroke:black;fill:url(#radialffffffbfbfbf)"/>
<circle cx="269.061024" cy="397.890334" r="8.361380" opacity="1.000000" style="stroke:black;fill:url(#radialffffff7c7faf)"/>
<circle cx="273.776577" cy="607.491087" r="5.240771" opacity="1.000000" style="stroke:black;fill:url(#radialffffff666666)"/>
<circle cx="245.034697" cy="482.080351" r="5.289443" opacity="1.000000" style="stroke:black;fill:url(#radialffffff666666)"/>
<text x="249.834697" y="478.048351" fill="rgb(102,102,102)"  stroke="rgb(102,102,102)" stroke-width="1" font-size="16" ></text>
<text x="249.834697" y="478.048351" fill="rgb(102,102,102)"  stroke="rgb(102,102,102)" stroke-width="1" font-size="32" >.</text>
<circle cx="254.615329" cy="526.091620" r="5.292079" opacity="1.000000" style="stroke:black;fill:url(#radialffffff666666)"/>
<circle cx="273.330628" cy="458.238443" r="4.667609" opacity="1.000000" style="stroke:black;fill:url(#radialffffffffcc)"/>
<circle cx="303.576419" cy="578.774316" r="5.440327" opacity="1.000000" style="stroke:black;fill:url(#radialffffff666666)"/>
<text x="308.376419" y="574.742316" fill="rgb(102,102,102)"  stroke="rgb(102,102,102)" stroke-width="1" font-size="16" ></text>
<text x="308.376419" y="574.742316" fill="rgb(102,102,102)"  stroke="rgb(102,102,102)" stroke-width="1" font-size="32" >.</text>
<circle cx="293.494490" cy="538.707538" r="5.457970" opacity="1.000000" style="stroke:black;fill:url(#radialffffff666666)"/>
<circle cx="51.558358" cy="587.124949" r="2.268507" opacity="1.000000" style="stroke:black;fill:url(#radialffffffbfbfbf)"/>
<text x="56.358358" y="583.092949" fill="rgb(191,191,191)"  stroke="rgb(191,191,191)" stroke-width="1" font-size="16" ></text>
<text x="56.358358" y="583.092949" fill="rgb(191,191,191)"  stroke="rgb(191,191,191)" stroke-width="1" font-size="32" >.</text>
<circle cx="313.351767" cy="519.426778" r="2.277606" opacity="1.000000" style="stroke:black;fill:url(#radialffffffbfbfbf)"/>
<circle cx="178.555069" cy="145.847805" r="5.611186" opacity="1.000000" style="stroke:black;fill:url(#radialffffff666666)"/>
<text x="183.355069" y="141.815805" fill="rgb(102,102,102)"  stroke="rgb(102,102,102)" stroke-width="1" font-size="16" ></text>
<text x="183.355069" y="141.815805" fill="rgb(102,102,102)"  stroke="rgb(102,102,102)" stroke-width="1" font-size="32" >.</text>
<circle cx="306.946535" cy="672.062616" r="5.757709" opacity="1.000000" style="stroke:black;fill:url(#radialffffff666666)"/>
<text x="311.746535" y="668.030616" fill="rgb(102,102,102)"  stroke="rgb(102,102,102)" stroke-width="1" font-size="16" ></text>
<text x="311.746535" y="668.030616" fill="rgb(102,102,102)"  stroke="rgb(102,102,102)" stroke-width="1" font-size="32" >..</text>
<circle cx="194.457671" cy="159.402282" r="2.439326" opacity="1.000000" style="stroke:black;fill:url(#radialffffffbfbfbf)"/>
<circle cx="179.697543" cy="406.721282" r="5.265875" opacity="1.000000" style="stroke:black;fill:url(#radialffffffffcc)"/>
<circle cx="244.087588" cy="391.882196" r="5.444898" opacity="1.000000" style="stroke:black;fill:url(#radialffffffffcc)"/>
<circle cx="207.993504" cy="394.378338" r="6.462238" opacity="1.000000" style="stroke:black;fill:url(#radialffffff666666)"/>
<text x="212.793504" y="390.346338" fill="rgb(102,102,102)"  stroke="rgb(102,102,102)" stroke-width="1" font-size="16" ></text>
<text x="212.793504" y="390.346338" fill="rgb(102,102,102)"  stroke="rgb(102,102,102)" stroke-width="1" font-size="32" >.</text>
<circle cx="237.152186" cy="106.180788" r="2.651920" opacity="1.000000" style="stroke:black;fill:url(#radialffffffbfbfbf)"/>
<text x="241.952186" y="102.148788" fill="rgb(191,191,191)"  stroke="rgb(191,191,191)" stroke-width="1" font-size="16" ></text>
<text x="241.952186" y="102.148788" fill="rgb(191,191,191)"  stroke="rgb(191,191,191)" stroke-width="1" font-size="32" >.</text>
<circle cx="40.000617" cy="654.038057" r="6.508274" opacity="1.000000" style="stroke:black;fill:url(#radialffffff666666)"/>
<text x="44.800617" y="650.006057" fill="rgb(102,102,102)"  stroke="rgb(102,102,102)" stroke-width="1" font-size="16" ></text>
<text x="44.800617" y="650.006057" fill="rgb(102,102,102)"  stroke="rgb(102,102,102)" stroke-width="1" font-size="32" >..</text>
<circle cx="262.218744" cy="631.288715" r="2.759044" opacity="1.000000" style="stroke:black;fill:url(#radialffffffbfbfbf)"/>
<circle cx="78.016397" cy="658.124679" r="6.793817" opacity="1.000000" style="stroke:black;fill:url(#radialffffff666666)"/>
<text x="82.816397" y="654.092679" fill="rgb(102,102,102)"  stroke="rgb(102,102,102)" stroke-width="1" font-size="16" ></text>
<text x="82.816397" y="654.092679" fill="rgb(102,102,102)"  stroke="rgb(102,102,102)" stroke-width="1" font-size="32" >.</text>
<circle cx="288.704464" cy="634.407255" r="6.955246" opacity="1.000000" style="stroke:black;fill:url(#radialffffff666666)"/>
<text x="293.504464" y="630.375255" fill="rgb(102,102,102)"  stroke="rgb(102,102,102)" stroke-width="1" font-size="16" ></text>
<text x="293.504464" y="630.375255" fill="rgb(102,102,102)"  stroke="rgb(102,102,102)" stroke-width="1" font-size="32" >.</text>
<circle cx="139.676538" cy="396.131366" r="2.950130" opacity="1.000000" style="stroke:black;fill:url(#radialffffffbfbfbf)"/>
<circle cx="198.412949" cy="379.486854" r="7.252552" opacity="1.000000" style="stroke:black;fill:url(#radialffffff666666)"/>
<circle cx="87.569051" cy="642.709936" r="7.506458" opacity="1.000000" style="stroke:black;fill:url(#radialffffff666666)"/>
<text x="92.369051" y="638.677936" fill="rgb(102,102,102)"  stroke="rgb(102,102,102)" stroke-width="1" font-size="16" ></text>
<text x="92.369051" y="638.677936" fill="rgb(102,102,102)"  stroke="rgb(102,102,102)" stroke-width="1" font-size="32" >..</text>
<circle cx="253.417402" cy="357.942637" r="3.063458" opacity="1.000000" style="stroke:black;fill:url(#radialffffffbfbfbf)"/>
<circle cx="159.533832" cy="383.352287" r="7.535459" opacity="1.000000" style="stroke:black;fill:url(#radialffffff666666)"/>
<circle cx="298.786277" cy="619.863113" r="7.667887" opacity="1.000000" style="stroke:black;fill:url(#radialffffff666666)"/>
<circle cx="253.416762" cy="79.947698" r="3.137907" opacity="1.000000" style="stroke:black;fill:url(#radialffffffbfbfbf)"/>
<text x="258.216762" y="75.915698" fill="rgb(191,191,191)"  stroke="rgb(191,191,191)" stroke-width="1" font-size="16" ></text>
<text x="258.216762" y="75.915698" fill="rgb(191,191,191)"  stroke="rgb(191,191,191)" stroke-width="1" font-size="32" >.</text>
<circle cx="226.820298" cy="360.505463" r="7.696888" opacity="1.000000" style="stroke:black;fill:url(#radialffffff666666)"/>
<circle cx="337.665419" cy="623.728545" r="7.950794" opacity="1.000000" style="stroke:black;fill:url(#radialffffff666666)"/>
<text x="342.465419" y="619.696545" fill="rgb(102,102,102)"  stroke="rgb(102,102,102)" stroke-width="1" font-size="16" ></text>
<text x="342.465419" y="619.696545" fill="rgb(102,102,102)"  stroke="rgb(102,102,102)" stroke-width="1" font-size="32" >..</text>
<circle cx="278.928931" cy="607.084033" r="3.251235" opacity="1.000000" style="stroke:black;fill:url(#radialffffffbfbfbf)"/>
<circle cx="149.451970" cy="368.808144" r="8.248100" opacity="1.000000" style="stroke:black;fill:url(#radialffffff666666)"/>
<text x="154.251970" y="364.776144" fill="rgb(102,102,102)"  stroke="rgb(102,102,102)" stroke-width="1" font-size="16" ></text>
<text x="154.251970" y="364.776144" fill="rgb(102,102,102)"  stroke="rgb(102,102,102)" stroke-width="1" font-size="32" >.</text>
<circle cx="217.267591" cy="345.090720" r="8.409529" opacity="1.000000" style="stroke:black;fill:url(#radialffffff666666)"/>
<circle cx="401.470062" cy="371.926684" r="3.442321" opacity="1.000000" style="stroke:black;fill:url(#radialffffffbfbfbf)"/>
<text x="406.270062" y="367.894684" fill="rgb(191,191,191)"  stroke="rgb(191,191,191)" stroke-width="1" font-size="16" ></text>
<text x="406.270062" y="367.894684" fill="rgb(191,191,191)"  stroke="rgb(191,191,191)" stroke-width="1" font-size="32" >.</text>
<circle cx="179.251836" cy="349.177342" r="8.695072" opacity="1.000000" style="stroke:black;fill:url(#radialffffff666666)"/>
<circle cx="237.152735" cy="331.709546" r="3.549445" opacity="1.000000" style="stroke:black;fill:url(#radialffffffbfbfbf)"/>
<circle cx="347.245925" cy="608.837061" r="8.741108" opacity="1.000000" style="stroke:black;fill:url(#radialffffff666666)"/>
<text x="352.045925" y="604.805061" fill="rgb(102,102,102)"  stroke="rgb(102,102,102)" stroke-width="1" font-size="16" ></text>
<text x="352.045925" y="604.805061" fill="rgb(102,102,102)"  stroke="rgb(102,102,102)" stroke-width="1" font-size="32" >.</text>
<circle cx="104.836231" cy="611.333203" r="7.758008" opacity="1.000000" style="stroke:black;fill:url(#radialffffffffcc)"/>
<text x="109.636231" y="607.301203" fill="rgb(255,12,12)"  stroke="rgb(255,12,12)" stroke-width="1" font-size="16" ></text>
<text x="109.636231" y="607.301203" fill="rgb(255,12,12)"  stroke="rgb(255,12,12)" stroke-width="1" font-size="32" >..</text>
<circle cx="318.949916" cy="596.494117" r="7.937030" opacity="1.000000" style="stroke:black;fill:url(#radialffffffffcc)"/>
<circle cx="194.457987" cy="278.488052" r="3.762039" opacity="1.000000" style="stroke:black;fill:url(#radialffffffbfbfbf)"/>
<circle cx="167.693897" cy="331.152783" r="9.445637" opacity="1.000000" style="stroke:black;fill:url(#radialffffff666666)"/>
<circle cx="178.555456" cy="292.042530" r="9.592160" opacity="1.000000" style="stroke:black;fill:url(#radialffffff666666)"/>
<text x="183.355456" y="288.010530" fill="rgb(102,102,102)"  stroke="rgb(102,102,102)" stroke-width="1" font-size="16" ></text>
<text x="183.355456" y="288.010530" fill="rgb(102,102,102)"  stroke="rgb(102,102,102)" stroke-width="1" font-size="32" >.</text>
<circle cx="174.099839" cy="483.788621" r="3.923759" opacity="1.000000" style="stroke:black;fill:url(#radialffffffbfbfbf)"/>
<circle cx="190.809910" cy="416.090450" r="3.932858" opacity="1.000000" style="stroke:black;fill:url(#radialffffffbfbfbf)"/>
<circle cx="154.242475" cy="464.507861" r="9.745376" opacity="1.000000" style="stroke:black;fill:url(#radialffffff666666)"/>
<circle cx="164.324220" cy="424.441083" r="9.763020" opacity="1.000000" style="stroke:black;fill:url(#radialffffff666666)"/>
<text x="169.124220" y="420.409083" fill="rgb(102,102,102)"  stroke="rgb(102,102,102)" stroke-width="1" font-size="16" ></text>
<text x="169.124220" y="420.409083" fill="rgb(102,102,102)"  stroke="rgb(102,102,102)" stroke-width="1" font-size="32" >.</text>
<circle cx="134.078988" cy="544.976956" r="8.535297" opacity="1.000000" style="stroke:black;fill:url(#radialffffffffcc)"/>
<circle cx="115.363377" cy="477.123780" r="9.911267" opacity="1.000000" style="stroke:black;fill:url(#radialffffff666666)"/>
<text x="120.163377" y="473.091780" fill="rgb(102,102,102)"  stroke="rgb(102,102,102)" stroke-width="1" font-size="16" ></text>
<text x="120.163377" y="473.091780" fill="rgb(102,102,102)"  stroke="rgb(102,102,102)" stroke-width="1" font-size="32" >..</text>
<circle cx="105.782948" cy="521.135048" r="9.913903" opacity="1.000000" style="stroke:black;fill:url(#radialffffff666666)"/>
<text x="110.582948" y="517.103048" fill="rgb(102,102,102)"  stroke="rgb(102,102,102)" stroke-width="1" font-size="16" ></text>
<text x="110.582948" y="517.103048" fill="rgb(102,102,102)"  stroke="rgb(102,102,102)" stroke-width="1" font-size="32" >.</text>
<circle cx="413.028044" cy="395.724312" r="9.962575" opacity="1.000000" style="stroke:black;fill:url(#radialffffff666666)"/>
<text x="417.828044" y="391.692312" fill="rgb(102,102,102)"  stroke="rgb(102,102,102)" stroke-width="1" font-size="16" ></text>
<text x="417.828044" y="391.692312" fill="rgb(102,102,102)"  stroke="rgb(102,102,102)" stroke-width="1" font-size="32" >..</text>
<circle cx="269.060257" cy="40.000000" r="16.043992" opacity="1.000000" style="stroke:black;fill:url(#radialffffff7c7faf)"/>
<circle cx="237.152527" cy="234.650427" r="4.078861" opacity="1.000000" style="stroke:black;fill:url(#radialffffffbfbfbf)"/>
<text x="241.952527" y="230.618427" fill="rgb(191,191,191)"  stroke="rgb(191,191,191)" stroke-width="1" font-size="16" ></text>
<text x="241.952527" y="230.618427" fill="rgb(191,191,191)"  stroke="rgb(191,191,191)" stroke-width="1" font-size="32" >.</text>
<circle cx="348.192671" cy="529.758047" r="8.705338" opacity="1.000000" style="stroke:black;fill:url(#radialffffffffcc)"/>
<text x="352.992671" y="525.726047" fill="rgb(255,12,12)"  stroke="rgb(255,12,12)" stroke-width="1" font-size="16" ></text>
<text x="352.992671" y="525.726047" fill="rgb(255,12,12)"  stroke="rgb(255,12,12)" stroke-width="1" font-size="32" >..</text>
<circle cx="146.082059" cy="352.601627" r="10.029702" opacity="1.000000" style="stroke:black;fill:url(#radialffffff666666)"/>
<text x="150.882059" y="348.569627" fill="rgb(102,102,102)"  stroke="rgb(102,102,102)" stroke-width="1" font-size="16" ></text>
<text x="150.882059" y="348.569627" fill="rgb(102,102,102)"  stroke="rgb(102,102,102)" stroke-width="1" font-size="32" >..</text>
<circle cx="253.416993" cy="167.009152" r="4.104919" opacity="1.000000" style="stroke:black;fill:url(#radialffffffbfbfbf)"/>
<text x="258.216993" y="162.977152" fill="rgb(191,191,191)"  stroke="rgb(191,191,191)" stroke-width="1" font-size="16" ></text>
<text x="258.216993" y="162.977152" fill="rgb(191,191,191)"  stroke="rgb(191,191,191)" stroke-width="1" font-size="32" >.</text>
<circle cx="365.459720" cy="448.758519" r="10.100074" opacity="1.000000" style="stroke:black;fill:url(#radialffffff666666)"/>
<text x="370.259720" y="444.726519" fill="rgb(102,102,102)"  stroke="rgb(102,102,102)" stroke-width="1" font-size="16" ></text>
<text x="370.259720" y="444.726519" fill="rgb(102,102,102)"  stroke="rgb(102,102,102)" stroke-width="1" font-size="32" >..</text>
<circle cx="375.012307" cy="408.394600" r="10.133333" opacity="1.000000" style="stroke:black;fill:url(#radialffffff666666)"/>
<text x="379.812307" y="404.362600" fill="rgb(102,102,102)"  stroke="rgb(102,102,102)" stroke-width="1" font-size="16" ></text>
<text x="379.812307" y="404.362600" fill="rgb(102,102,102)"  stroke="rgb(102,102,102)" stroke-width="1" font-size="32" >.</text>
</svg>
</g>
</svg>
