<?xml version="1.0"?>
<svg version="1.1" id="topsvg"
xmlns="http://www.w3.org/2000/svg" xmlns:xlink="http://www.w3.org/1999/xlink"
xmlns:cml="http://www.xml-cml.org/schema" x="0" y="0" width="200px" height="200px" viewBox="0 0 100 100">
<title>VEMMAC_clean - Open Babel Depiction</title>
<defs>
<radialGradient id='radialffffff0ccff' cx='50%' cy='50%' r='50%' fx='30%' fy='30%'>
  <stop offset=' 0%' stop-color="rgb(255,255,255)"  stop-opacity='0.8'/>
  <stop offset='100%' stop-color="rgb(12,12,255)"  stop-opacity ='1.0'/>
</radialGradient>
<radialGradient id='radialffffff666666' cx='50%' cy='50%' r='50%' fx='30%' fy='30%'>
  <stop offset=' 0%' stop-color="rgb(255,255,255)"  stop-opacity='0.8'/>
  <stop offset='100%' stop-color="rgb(102,102,102)"  stop-opacity ='1.0'/>
</radialGradient>
<radialGradient id='radialffffff7c7faf' cx='50%' cy='50%' r='50%' fx='30%' fy='30%'>
  <stop offset=' 0%' stop-color="rgb(255,255,255)"  stop-opacity='0.8'/>
  <stop offset='100%' stop-color="rgb(124,127,175)"  stop-opacity ='1.0'/>
</radialGradient>
<radialGradient id='radialffffffbfbfbf' cx='50%' cy='50%' r='50%' fx='30%' fy='30%'>
  <stop offset=' 0%' stop-color="rgb(255,255,255)"  stop-opacity='0.8'/>
  <stop offset='100%' stop-color="rgb(191,191,191)"  stop-opacity ='1.0'/>
</radialGradient>
</defs>
<g transform="translate(0,0)">
<svg width="100" height="100" x="0" y="0" viewBox="0 0 517.872 461.995"
font-family="sans-serif" stroke="rgb(76,76,76)" stroke-width="2"  stroke-linecap="round">
<line x1="169.8" y1="192.8" x2="185.6" y2="129.7" stroke="rgb(76,76,76)"  stroke-width="2.0"/>
<line x1="169.8" y1="192.8" x2="217.5" y2="209.9" stroke="rgb(76,76,76)"  stroke-width="2.0"/>
<line x1="255.7" y1="50.1" x2="220.5" y2="76.9" stroke="rgb(76,76,76)"  stroke-width="2.0"/>
<line x1="256.8" y1="47.4" x2="294.1" y2="61.8" stroke="rgb(76,76,76)"  stroke-width="2.0"/>
<line x1="254.6" y1="52.9" x2="291.9" y2="67.4" stroke="rgb(76,76,76)"  stroke-width="2.0"/>
<line x1="327.0" y1="40.0" x2="293.0" y2="64.6" stroke="rgb(76,76,76)"  stroke-width="2.0"/>
<line x1="327.0" y1="40.0" x2="352.5" y2="50.8" stroke="rgb(76,76,76)"  stroke-width="2.0"/>
<line x1="293.0" y1="64.6" x2="296.4" y2="91.7" stroke="rgb(76,76,76)"  stroke-width="2.0"/>
<line x1="444.2" y1="107.1" x2="455.2" y2="155.6" stroke="rgb(76,76,76)"  stroke-width="2.0"/>
<line x1="243.0" y1="226.2" x2="251.6" y2="228.1" stroke="rgb(76,76,76)"  stroke-width="2.0"/>
<line x1="452.1" y1="195.7" x2="441.9" y2="213.6" stroke="rgb(76,76,76)"  stroke-width="2.0"/>
<line x1="298.5" y1="265.8" x2="282.5" y2="251.6" stroke="rgb(76,76,76)"  stroke-width="2.0"/>
<line x1="441.9" y1="213.6" x2="407.6" y2="202.5" stroke="rgb(76,76,76)"  stroke-width="2.0"/>
<line x1="141.9" y1="250.3" x2="119.0" y2="242.2" stroke="rgb(76,76,76)"  stroke-width="2.0"/>
<line x1="390.3" y1="183.5" x2="407.6" y2="202.5" stroke="rgb(76,76,76)"  stroke-width="2.0"/>
<line x1="206.7" y1="191.9" x2="227.9" y2="207.7" stroke="rgb(76,76,76)"  stroke-width="2.0"/>
<line x1="119.0" y1="242.2" x2="110.3" y2="259.5" stroke="rgb(76,76,76)"  stroke-width="2.0"/>
<line x1="410.2" y1="203.9" x2="401.6" y2="221.1" stroke="rgb(76,76,76)"  stroke-width="2.0"/>
<line x1="404.9" y1="201.2" x2="396.2" y2="218.4" stroke="rgb(76,76,76)"  stroke-width="2.0"/>
<line x1="290.0" y1="254.3" x2="311.1" y2="270.1" stroke="rgb(76,76,76)"  stroke-width="2.0"/>
<line x1="110.3" y1="259.5" x2="127.6" y2="278.5" stroke="rgb(76,76,76)"  stroke-width="2.0"/>
<line x1="109.4" y1="262.3" x2="75.0" y2="251.2" stroke="rgb(76,76,76)"  stroke-width="2.0"/>
<line x1="111.2" y1="256.6" x2="76.9" y2="245.5" stroke="rgb(76,76,76)"  stroke-width="2.0"/>
<line x1="398.9" y1="219.8" x2="376.0" y2="211.7" stroke="rgb(76,76,76)"  stroke-width="2.0"/>
<line x1="235.4" y1="210.4" x2="219.4" y2="196.2" stroke="rgb(76,76,76)"  stroke-width="2.0"/>
<line x1="75.9" y1="248.4" x2="65.7" y2="266.3" stroke="rgb(76,76,76)"  stroke-width="2.0"/>
<line x1="266.3" y1="233.9" x2="274.8" y2="235.8" stroke="rgb(76,76,76)"  stroke-width="2.0"/>
<line x1="62.6" y1="306.4" x2="73.7" y2="354.9" stroke="rgb(76,76,76)"  stroke-width="2.0"/>
<line x1="221.5" y1="370.3" x2="224.9" y2="397.4" stroke="rgb(76,76,76)"  stroke-width="2.0"/>
<line x1="165.4" y1="411.2" x2="190.9" y2="422.0" stroke="rgb(76,76,76)"  stroke-width="2.0"/>
<line x1="224.9" y1="397.4" x2="190.9" y2="422.0" stroke="rgb(76,76,76)"  stroke-width="2.0"/>
<line x1="225.9" y1="394.6" x2="263.2" y2="409.1" stroke="rgb(76,76,76)"  stroke-width="2.0"/>
<line x1="223.8" y1="400.2" x2="261.1" y2="414.6" stroke="rgb(76,76,76)"  stroke-width="2.0"/>
<line x1="297.4" y1="385.1" x2="262.2" y2="411.8" stroke="rgb(76,76,76)"  stroke-width="2.0"/>
<line x1="300.3" y1="252.1" x2="298.5" y2="263.2" stroke="rgb(76,76,76)"  stroke-width="2.0"/>
<line x1="289.5" y1="254.3" x2="291.9" y2="239.9" stroke="rgb(76,76,76)"  stroke-width="2.0" stroke-dasharray="5.0,5.0"/>
<line x1="298.5" y1="263.2" x2="274.8" y2="235.8" stroke="rgb(76,76,76)"  stroke-width="2.0"/>
<line x1="291.9" y1="239.7" x2="283.5" y2="230.1" stroke="rgb(76,76,76)"  stroke-width="2.0" stroke-dasharray="5.0,5.0"/>
<line x1="274.8" y1="235.8" x2="261.5" y2="208.6" stroke="rgb(76,76,76)"  stroke-width="2.0"/>
<line x1="283.5" y1="230.1" x2="287.1" y2="237.4" stroke="rgb(76,76,76)"  stroke-width="2.0" stroke-dasharray="5.0,5.0"/>
<line x1="261.5" y1="208.6" x2="278.3" y2="219.4" stroke="rgb(76,76,76)"  stroke-width="2.0"/>
<line x1="287.1" y1="237.4" x2="271.0" y2="227.0" stroke="rgb(76,76,76)"  stroke-width="2.0" stroke-dasharray="5.0,5.0"/>
<line x1="278.3" y1="219.4" x2="300.3" y2="252.1" stroke="rgb(76,76,76)"  stroke-width="2.0"/>
<line x1="270.9" y1="227.0" x2="289.4" y2="254.3" stroke="rgb(76,76,76)"  stroke-width="2.0" stroke-dasharray="5.0,5.0"/>
<line x1="297.4" y1="385.1" x2="294.5" y2="344.9" stroke="rgb(76,76,76)"  stroke-width="2.0"/>
<line x1="308.8" y1="376.0" x2="307.2" y2="353.4" stroke="rgb(76,76,76)"  stroke-width="2.0" stroke-dasharray="5.0,5.0"/>
<line x1="294.5" y1="344.9" x2="332.2" y2="332.3" stroke="rgb(76,76,76)"  stroke-width="2.0"/>
<line x1="307.2" y1="353.4" x2="328.0" y2="346.5" stroke="rgb(76,76,76)"  stroke-width="2.0" stroke-dasharray="5.0,5.0"/>
<line x1="332.2" y1="332.3" x2="356.7" y2="363.2" stroke="rgb(76,76,76)"  stroke-width="2.0"/>
<line x1="328.0" y1="346.5" x2="341.9" y2="364.0" stroke="rgb(76,76,76)"  stroke-width="2.0" stroke-dasharray="5.0,5.0"/>
<line x1="356.7" y1="363.2" x2="335.7" y2="396.9" stroke="rgb(76,76,76)"  stroke-width="2.0"/>
<line x1="341.9" y1="364.0" x2="330.4" y2="382.6" stroke="rgb(76,76,76)"  stroke-width="2.0" stroke-dasharray="5.0,5.0"/>
<line x1="335.7" y1="396.9" x2="297.4" y2="385.1" stroke="rgb(76,76,76)"  stroke-width="2.0"/>
<line x1="330.4" y1="382.6" x2="308.8" y2="376.0" stroke="rgb(76,76,76)"  stroke-width="2.0" stroke-dasharray="5.0,5.0"/>
<line x1="251.6" y1="228.1" x2="227.9" y2="207.7" stroke="rgb(76,76,76)"  stroke-width="2.0"/>
<line x1="256.3" y1="222.3" x2="264.2" y2="229.0" stroke="rgb(76,76,76)"  stroke-width="2.0" stroke-dasharray="5.0,5.0"/>
<line x1="227.9" y1="207.7" x2="235.4" y2="210.4" stroke="rgb(76,76,76)"  stroke-width="2.0"/>
<line x1="263.7" y1="228.7" x2="232.1" y2="217.2" stroke="rgb(76,76,76)"  stroke-width="2.0" stroke-dasharray="5.0,5.0"/>
<line x1="235.4" y1="210.4" x2="266.3" y2="233.9" stroke="rgb(76,76,76)"  stroke-width="2.0"/>
<line x1="232.0" y1="217.3" x2="261.5" y2="239.7" stroke="rgb(76,76,76)"  stroke-width="2.0" stroke-dasharray="5.0,5.0"/>
<line x1="266.3" y1="233.9" x2="290.0" y2="254.3" stroke="rgb(76,76,76)"  stroke-width="2.0"/>
<line x1="261.5" y1="239.7" x2="253.7" y2="233.0" stroke="rgb(76,76,76)"  stroke-width="2.0" stroke-dasharray="5.0,5.0"/>
<line x1="290.0" y1="254.3" x2="282.5" y2="251.6" stroke="rgb(76,76,76)"  stroke-width="2.0"/>
<line x1="254.2" y1="233.3" x2="285.8" y2="244.8" stroke="rgb(76,76,76)"  stroke-width="2.0" stroke-dasharray="5.0,5.0"/>
<line x1="282.5" y1="251.6" x2="251.6" y2="228.1" stroke="rgb(76,76,76)"  stroke-width="2.0"/>
<line x1="285.8" y1="244.7" x2="256.3" y2="222.3" stroke="rgb(76,76,76)"  stroke-width="2.0" stroke-dasharray="5.0,5.0"/>
<line x1="220.5" y1="76.9" x2="223.4" y2="117.1" stroke="rgb(76,76,76)"  stroke-width="2.0"/>
<line x1="223.4" y1="117.1" x2="185.6" y2="129.7" stroke="rgb(76,76,76)"  stroke-width="2.0"/>
<line x1="185.6" y1="129.7" x2="161.2" y2="98.8" stroke="rgb(76,76,76)"  stroke-width="2.0"/>
<line x1="161.2" y1="98.8" x2="182.1" y2="65.1" stroke="rgb(76,76,76)"  stroke-width="2.0"/>
<line x1="194.8" y1="69.0" x2="220.5" y2="76.9" stroke="rgb(76,76,76)"  stroke-width="2.0"/>
<line x1="194.6" y1="76.5" x2="212.7" y2="82.0" stroke="rgb(76,76,76)"  stroke-width="2.0"/>
<line x1="243.0" y1="226.2" x2="252.0" y2="244.4" stroke="rgb(76,76,76)"  stroke-width="2.0"/>
<line x1="239.2" y1="234.8" x2="244.2" y2="244.9" stroke="rgb(76,76,76)"  stroke-width="2.0"/>
<line x1="256.4" y1="253.4" x2="239.6" y2="242.6" stroke="rgb(76,76,76)"  stroke-width="2.0"/>
<line x1="239.6" y1="242.6" x2="217.5" y2="209.9" stroke="rgb(76,76,76)"  stroke-width="2.0"/>
<line x1="217.5" y1="209.9" x2="219.4" y2="198.8" stroke="rgb(76,76,76)"  stroke-width="2.0"/>
<line x1="219.4" y1="198.8" x2="243.0" y2="226.2" stroke="rgb(76,76,76)"  stroke-width="2.0"/>
<line x1="452.1" y1="195.7" x2="468.4" y2="207.3" stroke="rgb(76,76,76)"  stroke-width="2.0"/>
<line x1="461.2" y1="193.3" x2="470.2" y2="199.7" stroke="rgb(76,76,76)"  stroke-width="2.0"/>
<line x1="476.5" y1="213.0" x2="477.9" y2="187.3" stroke="rgb(76,76,76)"  stroke-width="2.0"/>
<line x1="477.9" y1="187.3" x2="455.2" y2="155.6" stroke="rgb(76,76,76)"  stroke-width="2.0"/>
<line x1="455.2" y1="155.6" x2="438.3" y2="160.1" stroke="rgb(76,76,76)"  stroke-width="2.0"/>
<line x1="438.3" y1="160.1" x2="452.1" y2="195.7" stroke="rgb(76,76,76)"  stroke-width="2.0"/>
<line x1="65.7" y1="266.3" x2="79.6" y2="301.9" stroke="rgb(76,76,76)"  stroke-width="2.0"/>
<line x1="79.6" y1="301.9" x2="62.6" y2="306.4" stroke="rgb(76,76,76)"  stroke-width="2.0"/>
<line x1="62.6" y1="306.4" x2="40.0" y2="274.7" stroke="rgb(76,76,76)"  stroke-width="2.0"/>
<line x1="40.0" y1="274.7" x2="41.4" y2="249.0" stroke="rgb(76,76,76)"  stroke-width="2.0"/>
<line x1="49.4" y1="254.7" x2="65.7" y2="266.3" stroke="rgb(76,76,76)"  stroke-width="2.0"/>
<line x1="47.7" y1="262.3" x2="56.7" y2="268.7" stroke="rgb(76,76,76)"  stroke-width="2.0"/>
<circle cx="169.814332" cy="192.765578" r="8.133333" opacity="1.000000" style="stroke:black;fill:url(#radialffffff7c7faf)"/>
<circle cx="255.712205" cy="50.148253" r="5.066667" opacity="1.000000" style="stroke:black;fill:url(#radialffffff666666)"/>
<text x="260.512205" y="46.116253" fill="rgb(102,102,102)"  stroke="rgb(102,102,102)" stroke-width="1" font-size="16" ></text>
<text x="260.512205" y="46.116253" fill="rgb(102,102,102)"  stroke="rgb(102,102,102)" stroke-width="1" font-size="32" >.</text>
<circle cx="223.397632" cy="117.095262" r="4.733333" opacity="1.000000" style="stroke:black;fill:url(#radialffffff0ccff)"/>
<text x="228.197632" y="113.063262" fill="rgb(12,12,255)"  stroke="rgb(12,12,255)" stroke-width="1" font-size="16" ></text>
<text x="228.197632" y="113.063262" fill="rgb(12,12,255)"  stroke="rgb(12,12,255)" stroke-width="1" font-size="32" >.</text>
<circle cx="326.968820" cy="40.000000" r="5.066667" opacity="1.000000" style="stroke:black;fill:url(#radialffffff666666)"/>
<text x="331.768820" y="35.968000" fill="rgb(102,102,102)"  stroke="rgb(102,102,102)" stroke-width="1" font-size="16" ></text>
<text x="331.768820" y="35.968000" fill="rgb(102,102,102)"  stroke="rgb(102,102,102)" stroke-width="1" font-size="32" >..</text>
<circle cx="220.519754" cy="76.928234" r="5.066667" opacity="1.000000" style="stroke:black;fill:url(#radialffffff666666)"/>
<circle cx="185.639264" cy="129.651806" r="4.733333" opacity="1.000000" style="stroke:black;fill:url(#radialffffff0ccff)"/>
<circle cx="293.016234" cy="64.633667" r="5.066667" opacity="1.000000" style="stroke:black;fill:url(#radialffffff666666)"/>
<circle cx="352.461654" cy="50.783643" r="2.066667" opacity="1.000000" style="stroke:black;fill:url(#radialffffffbfbfbf)"/>
<circle cx="182.133055" cy="65.075377" r="4.733333" opacity="1.000000" style="stroke:black;fill:url(#radialffffff0ccff)"/>
<circle cx="161.200609" cy="98.790580" r="4.733333" opacity="1.000000" style="stroke:black;fill:url(#radialffffff0ccff)"/>
<text x="166.000609" y="94.758580" fill="rgb(12,12,255)"  stroke="rgb(12,12,255)" stroke-width="1" font-size="16" ></text>
<text x="166.000609" y="94.758580" fill="rgb(12,12,255)"  stroke="rgb(12,12,255)" stroke-width="1" font-size="32" >.</text>
<circle cx="296.374548" cy="91.743704" r="2.066667" opacity="1.000000" style="stroke:black;fill:url(#radialffffffbfbfbf)"/>
<circle cx="444.196843" cy="107.127579" r="8.133333" opacity="1.000000" style="stroke:black;fill:url(#radialffffff7c7faf)"/>
<circle cx="239.584001" cy="242.562559" r="4.733333" opacity="1.000000" style="stroke:black;fill:url(#radialffffff0ccff)"/>
<text x="244.384001" y="238.530559" fill="rgb(12,12,255)"  stroke="rgb(12,12,255)" stroke-width="1" font-size="16" ></text>
<text x="244.384001" y="238.530559" fill="rgb(12,12,255)"  stroke="rgb(12,12,255)" stroke-width="1" font-size="32" >.</text>
<circle cx="217.547215" cy="209.944355" r="4.733333" opacity="1.000000" style="stroke:black;fill:url(#radialffffff0ccff)"/>
<circle cx="477.871786" cy="187.272361" r="4.733333" opacity="1.000000" style="stroke:black;fill:url(#radialffffff0ccff)"/>
<text x="482.671786" y="183.240361" fill="rgb(12,12,255)"  stroke="rgb(12,12,255)" stroke-width="1" font-size="16" ></text>
<text x="482.671786" y="183.240361" fill="rgb(12,12,255)"  stroke="rgb(12,12,255)" stroke-width="1" font-size="32" >.</text>
<circle cx="455.242416" cy="155.611630" r="4.733333" opacity="1.000000" style="stroke:black;fill:url(#radialffffff0ccff)"/>
<circle cx="256.359986" cy="253.399578" r="4.733333" opacity="1.000000" style="stroke:black;fill:url(#radialffffff0ccff)"/>
<circle cx="476.460443" cy="213.030617" r="4.733333" opacity="1.000000" style="stroke:black;fill:url(#radialffffff0ccff)"/>
<circle cx="219.411983" cy="198.776593" r="4.733333" opacity="1.000000" style="stroke:black;fill:url(#radialffffff0ccff)"/>
<text x="224.211983" y="194.744593" fill="rgb(12,12,255)"  stroke="rgb(12,12,255)" stroke-width="1" font-size="16" ></text>
<text x="224.211983" y="194.744593" fill="rgb(12,12,255)"  stroke="rgb(12,12,255)" stroke-width="1" font-size="32" >.</text>
<circle cx="438.305559" cy="160.105546" r="4.733333" opacity="1.000000" style="stroke:black;fill:url(#radialffffff0ccff)"/>
<text x="443.105559" y="156.073546" fill="rgb(12,12,255)"  stroke="rgb(12,12,255)" stroke-width="1" font-size="16" ></text>
<text x="443.105559" y="156.073546" fill="rgb(12,12,255)"  stroke="rgb(12,12,255)" stroke-width="1" font-size="32" >.</text>
<circle cx="243.042006" cy="226.221835" r="5.066667" opacity="1.000000" style="stroke:black;fill:url(#radialffffff666666)"/>
<circle cx="452.139627" cy="195.711931" r="5.066667" opacity="1.000000" style="stroke:black;fill:url(#radialffffff666666)"/>
<circle cx="298.481141" cy="265.789495" r="2.066667" opacity="1.000000" style="stroke:black;fill:url(#radialffffffbfbfbf)"/>
<circle cx="251.555713" cy="228.070554" r="5.066667" opacity="1.000000" style="stroke:black;fill:url(#radialffffff666666)"/>
<circle cx="441.941704" cy="213.624437" r="5.066667" opacity="1.000000" style="stroke:black;fill:url(#radialffffff666666)"/>
<text x="446.741704" y="209.592437" fill="rgb(102,102,102)"  stroke="rgb(102,102,102)" stroke-width="1" font-size="16" ></text>
<text x="446.741704" y="209.592437" fill="rgb(102,102,102)"  stroke="rgb(102,102,102)" stroke-width="1" font-size="32" >..</text>
<circle cx="141.858499" cy="250.292281" r="2.066667" opacity="1.000000" style="stroke:black;fill:url(#radialffffffbfbfbf)"/>
<circle cx="390.276170" cy="183.499156" r="2.066667" opacity="1.000000" style="stroke:black;fill:url(#radialffffffbfbfbf)"/>
<circle cx="282.463869" cy="251.593430" r="5.066667" opacity="1.000000" style="stroke:black;fill:url(#radialffffff666666)"/>
<circle cx="206.727280" cy="191.906571" r="2.066667" opacity="1.000000" style="stroke:black;fill:url(#radialffffffbfbfbf)"/>
<circle cx="118.978660" cy="242.237471" r="5.066667" opacity="1.000000" style="stroke:black;fill:url(#radialffffff666666)"/>
<text x="123.778660" y="238.205471" fill="rgb(102,102,102)"  stroke="rgb(102,102,102)" stroke-width="1" font-size="16" ></text>
<text x="123.778660" y="238.205471" fill="rgb(102,102,102)"  stroke="rgb(102,102,102)" stroke-width="1" font-size="32" >..</text>
<circle cx="407.551587" cy="202.518648" r="5.066667" opacity="1.000000" style="stroke:black;fill:url(#radialffffff666666)"/>
<circle cx="227.908660" cy="207.661180" r="5.066667" opacity="1.000000" style="stroke:black;fill:url(#radialffffff666666)"/>
<circle cx="289.963126" cy="254.334040" r="5.498090" opacity="1.000000" style="stroke:black;fill:url(#radialffffff666666)"/>
<circle cx="110.320199" cy="259.476571" r="5.571698" opacity="1.000000" style="stroke:black;fill:url(#radialffffff666666)"/>
<circle cx="398.893126" cy="219.757749" r="5.688243" opacity="1.000000" style="stroke:black;fill:url(#radialffffff666666)"/>
<text x="403.693126" y="215.725749" fill="rgb(102,102,102)"  stroke="rgb(102,102,102)" stroke-width="1" font-size="16" ></text>
<text x="403.693126" y="215.725749" fill="rgb(102,102,102)"  stroke="rgb(102,102,102)" stroke-width="1" font-size="32" >.</text>
<circle cx="311.144506" cy="270.088649" r="2.346893" opacity="1.000000" style="stroke:black;fill:url(#radialffffffbfbfbf)"/>
<circle cx="235.407917" cy="210.401790" r="5.857950" opacity="1.000000" style="stroke:black;fill:url(#radialffffff666666)"/>
<circle cx="127.595616" cy="278.496064" r="2.397767" opacity="1.000000" style="stroke:black;fill:url(#radialffffffbfbfbf)"/>
<circle cx="376.013287" cy="211.702939" r="2.478666" opacity="1.000000" style="stroke:black;fill:url(#radialffffffbfbfbf)"/>
<circle cx="75.930082" cy="248.370783" r="6.148292" opacity="1.000000" style="stroke:black;fill:url(#radialffffff666666)"/>
<text x="80.730082" y="244.338783" fill="rgb(102,102,102)"  stroke="rgb(102,102,102)" stroke-width="1" font-size="16" ></text>
<text x="80.730082" y="244.338783" fill="rgb(102,102,102)"  stroke="rgb(102,102,102)" stroke-width="1" font-size="32" >.</text>
<circle cx="266.316073" cy="233.924666" r="6.264837" opacity="1.000000" style="stroke:black;fill:url(#radialffffff666666)"/>
<circle cx="219.390645" cy="196.205725" r="2.595009" opacity="1.000000" style="stroke:black;fill:url(#radialffffffbfbfbf)"/>
<circle cx="65.732159" cy="266.283288" r="7.239118" opacity="1.000000" style="stroke:black;fill:url(#radialffffff666666)"/>
<circle cx="274.829780" cy="235.773384" r="7.484477" opacity="1.000000" style="stroke:black;fill:url(#radialffffff666666)"/>
<circle cx="79.566227" cy="301.889673" r="7.099045" opacity="1.000000" style="stroke:black;fill:url(#radialffffff0ccff)"/>
<text x="84.366227" y="297.857673" fill="rgb(12,12,255)"  stroke="rgb(12,12,255)" stroke-width="1" font-size="16" ></text>
<text x="84.366227" y="297.857673" fill="rgb(12,12,255)"  stroke="rgb(12,12,255)" stroke-width="1" font-size="32" >.</text>
<circle cx="298.459803" cy="263.218626" r="7.447646" opacity="1.000000" style="stroke:black;fill:url(#radialffffff0ccff)"/>
<text x="303.259803" y="259.186626" fill="rgb(12,12,255)"  stroke="rgb(12,12,255)" stroke-width="1" font-size="16" ></text>
<text x="303.259803" y="259.186626" fill="rgb(12,12,255)"  stroke="rgb(12,12,255)" stroke-width="1" font-size="32" >.</text>
<circle cx="41.411343" cy="248.964603" r="7.459107" opacity="1.000000" style="stroke:black;fill:url(#radialffffff0ccff)"/>
<circle cx="261.511800" cy="208.595641" r="7.683549" opacity="1.000000" style="stroke:black;fill:url(#radialffffff0ccff)"/>
<circle cx="62.629370" cy="306.383590" r="8.045521" opacity="1.000000" style="stroke:black;fill:url(#radialffffff0ccff)"/>
<circle cx="40.000000" cy="274.722859" r="8.256591" opacity="1.000000" style="stroke:black;fill:url(#radialffffff0ccff)"/>
<text x="44.800000" y="270.690859" fill="rgb(12,12,255)"  stroke="rgb(12,12,255)" stroke-width="1" font-size="16" ></text>
<text x="44.800000" y="270.690859" fill="rgb(12,12,255)"  stroke="rgb(12,12,255)" stroke-width="1" font-size="32" >.</text>
<circle cx="300.324571" cy="252.050865" r="8.460022" opacity="1.000000" style="stroke:black;fill:url(#radialffffff0ccff)"/>
<circle cx="278.287785" cy="219.432661" r="8.597552" opacity="1.000000" style="stroke:black;fill:url(#radialffffff0ccff)"/>
<circle cx="73.674943" cy="354.867641" r="15.649774" opacity="1.000000" style="stroke:black;fill:url(#radialffffff7c7faf)"/>
<circle cx="221.497238" cy="370.251516" r="4.009066" opacity="1.000000" style="stroke:black;fill:url(#radialffffffbfbfbf)"/>
<circle cx="356.671177" cy="363.204639" r="9.268967" opacity="1.000000" style="stroke:black;fill:url(#radialffffff0ccff)"/>
<circle cx="335.738731" cy="396.919842" r="9.285203" opacity="1.000000" style="stroke:black;fill:url(#radialffffff0ccff)"/>
<circle cx="165.410132" cy="411.211576" r="4.065779" opacity="1.000000" style="stroke:black;fill:url(#radialffffffbfbfbf)"/>
<circle cx="224.855551" cy="397.361553" r="9.989185" opacity="1.000000" style="stroke:black;fill:url(#radialffffff666666)"/>
<circle cx="332.232522" cy="332.343413" r="9.366384" opacity="1.000000" style="stroke:black;fill:url(#radialffffff0ccff)"/>
<circle cx="297.352032" cy="385.066985" r="10.061770" opacity="1.000000" style="stroke:black;fill:url(#radialffffff666666)"/>
<circle cx="190.902966" cy="421.995219" r="10.074038" opacity="1.000000" style="stroke:black;fill:url(#radialffffff666666)"/>
<text x="195.702966" y="417.963219" fill="rgb(102,102,102)"  stroke="rgb(102,102,102)" stroke-width="1" font-size="16" ></text>
<text x="195.702966" y="417.963219" fill="rgb(102,102,102)"  stroke="rgb(102,102,102)" stroke-width="1" font-size="32" >..</text>
<circle cx="294.474154" cy="344.899957" r="9.448520" opacity="1.000000" style="stroke:black;fill:url(#radialffffff0ccff)"/>
<text x="299.274154" y="340.867957" fill="rgb(12,12,255)"  stroke="rgb(12,12,255)" stroke-width="1" font-size="16" ></text>
<text x="299.274154" y="340.867957" fill="rgb(12,12,255)"  stroke="rgb(12,12,255)" stroke-width="1" font-size="32" >.</text>
<circle cx="262.159581" cy="411.846967" r="10.133333" opacity="1.000000" style="stroke:black;fill:url(#radialffffff666666)"/>
<text x="266.959581" y="407.814967" fill="rgb(102,102,102)"  stroke="rgb(102,102,102)" stroke-width="1" font-size="16" ></text>
<text x="266.959581" y="407.814967" fill="rgb(102,102,102)"  stroke="rgb(102,102,102)" stroke-width="1" font-size="32" >.</text>
</svg>
</g>
</svg>
